<svg xmlns="http://www.w3.org/2000/svg" xmlns:xlink="http://www.w3.org/1999/xlink" xmlns:lucid="lucid" width="1083" height="813.42"><g transform="translate(-139 -498.91669708777215)" lucid:page-tab-id="0_0"><path d="M404 538.92c0-11.05 8.95-20 20-20h758c11.05 0 20 8.95 20 20V581c0 11.05-8.95 20-20 20H424c-11.05 0-20-8.95-20-20zM221.33 923.33c0-11.04 8.96-20 20-20h60c11.05 0 20 8.96 20 20v234c0 11.05-8.95 20-20 20h-60c-11.04 0-20-8.95-20-20zM404 942.33c0-11.04 8.95-20 20-20h757.33c11.05 0 20 8.96 20 20v80c0 11.05-8.95 20-20 20H424c-11.05 0-20-8.95-20-20z" stroke="#000" stroke-opacity="0" stroke-width=".5" fill="#d1bcd2" fill-opacity=".3"/><path d="M424.33 1262.22c0-5.52 4.48-10 10-10h73c5.53 0 10 4.48 10 10v19.1c0 5.54-4.47 10-10 10h-73c-5.52 0-10-4.46-10-10z" stroke="#000" stroke-width="2" fill="#fff" fill-opacity="0"/><use xlink:href="#a" transform="matrix(1,0,0,1,429.33333333333337,1257.2222222222222) translate(4.827365451388886 22.32855902777778)"/><path d="M871.33 1261.33c0-5.52 4.48-10 10-10h60c5.53 0 10 4.48 10 10v20c0 5.53-4.47 10-10 10h-60c-5.52 0-10-4.47-10-10z" stroke="#000" stroke-width="2" fill="#fff" fill-opacity="0"/><use xlink:href="#b" transform="matrix(1,0,0,1,876.3333333333334,1256.3333333333335) translate(12.996419270833329 22.32855902777778)"/><path d="M623.33 1261.33c0-5.52 4.48-10 10-10h122c5.53 0 10 4.48 10 10v20c0 5.53-4.47 10-10 10h-122c-5.52 0-10-4.47-10-10z" stroke="#000" stroke-width="2" fill="#fff" fill-opacity="0"/><use xlink:href="#c" transform="matrix(1,0,0,1,628.3333333333334,1256.3333333333335) translate(14.658311631944443 22.32855902777778)"/><path d="M488.63 1087.7c0-2.95-2.56-5.37-5.72-5.37h-17.14c-3.16 0-5.72 2.42-5.72 5.38v109.26c0 2.96 2.56 5.37 5.72 5.37h17.15c3.17 0 5.73-2.4 5.73-5.37z" stroke="#000" stroke-width="3" fill="#fff" fill-opacity=".6"/><path d="M483.86 1100.84c0 4.94-4.26 8.95-9.53 8.95-5.26 0-9.52-4.02-9.52-8.96 0-4.95 4.27-8.95 9.53-8.95 5.27 0 9.53 4 9.53 8.94z" stroke="#000" stroke-width="3"/><path d="M483.86 1127.7c0 4.95-4.26 8.96-9.53 8.96-5.26 0-9.52-4-9.52-8.95 0-4.94 4.27-8.95 9.53-8.95 5.27 0 9.53 4 9.53 8.96z" stroke="#000" stroke-width="3" fill="#ccc"/><path d="M483.86 1154.57c0 4.95-4.26 8.96-9.53 8.96-5.26 0-9.52-4-9.52-8.96 0-4.94 4.27-8.95 9.53-8.95 5.27 0 9.53 4 9.53 8.95z" stroke="#000" stroke-width="3" fill="#666"/><path d="M483.86 1181.44c0 4.95-4.26 8.95-9.53 8.95-5.26 0-9.52-4-9.52-8.96 0-4.94 4.27-8.96 9.53-8.96 5.27 0 9.53 4.02 9.53 8.96z" stroke="#000" stroke-width="3" fill="#fff"/><path d="M708.63 1087.7c0-2.95-2.56-5.37-5.72-5.37h-17.14c-3.16 0-5.72 2.42-5.72 5.38v109.26c0 2.96 2.56 5.37 5.72 5.37h17.15c3.17 0 5.73-2.4 5.73-5.37z" stroke="#000" stroke-width="3" fill="#666" fill-opacity=".6"/><path d="M703.86 1100.84c0 4.94-4.26 8.95-9.53 8.95-5.26 0-9.52-4.02-9.52-8.96 0-4.95 4.27-8.95 9.53-8.95 5.27 0 9.53 4 9.53 8.94z" stroke="#000" stroke-width="3"/><path d="M703.86 1127.7c0 4.95-4.26 8.96-9.53 8.96-5.26 0-9.52-4-9.52-8.95 0-4.94 4.27-8.95 9.53-8.95 5.27 0 9.53 4 9.53 8.96z" stroke="#000" stroke-width="3" fill="#ccc"/><path d="M703.86 1154.57c0 4.95-4.26 8.96-9.53 8.96-5.26 0-9.52-4-9.52-8.96 0-4.94 4.27-8.95 9.53-8.95 5.27 0 9.53 4 9.53 8.95z" stroke="#000" stroke-width="3" fill="#666"/><path d="M703.86 1181.44c0 4.95-4.26 8.95-9.53 8.95-5.26 0-9.52-4-9.52-8.96 0-4.94 4.27-8.96 9.53-8.96 5.27 0 9.53 4.02 9.53 8.96z" stroke="#000" stroke-width="3" fill="#fff"/><path d="M928 1087.7c0-2.95-2.45-5.37-5.47-5.37h-16.4c-3.02 0-5.46 2.42-5.46 5.38v109.26c0 2.96 2.44 5.37 5.46 5.37h16.4c3.02 0 5.47-2.4 5.47-5.37z" stroke="#000" stroke-width="3" fill="#ccc" fill-opacity=".6"/><path d="M923.44 1100.84c0 4.94-4.07 8.95-9.1 8.95-5.04 0-9.12-4.02-9.12-8.96 0-4.95 4.08-8.95 9.1-8.95 5.05 0 9.12 4 9.12 8.94z" stroke="#000" stroke-width="3"/><path d="M923.44 1127.7c0 4.95-4.07 8.96-9.1 8.96-5.04 0-9.12-4-9.12-8.95 0-4.94 4.08-8.95 9.1-8.95 5.05 0 9.12 4 9.12 8.96z" stroke="#000" stroke-width="3" fill="#ccc"/><path d="M923.44 1154.57c0 4.95-4.07 8.96-9.1 8.96-5.04 0-9.12-4-9.12-8.96 0-4.94 4.08-8.95 9.1-8.95 5.05 0 9.12 4 9.12 8.95z" stroke="#000" stroke-width="3" fill="#666"/><path d="M923.44 1181.44c0 4.95-4.07 8.95-9.1 8.95-5.04 0-9.12-4-9.12-8.96 0-4.94 4.08-8.96 9.1-8.96 5.05 0 9.12 4.02 9.12 8.96z" stroke="#000" stroke-width="3" fill="#fff"/><path d="M424 957.33c0-8.28 6.7-15 15-15h70c8.28 0 15 6.72 15 15v50c0 8.3-6.72 15-15 15h-70c-8.3 0-15-6.7-15-15z" stroke="#000" stroke-width="3" fill="#fff" fill-opacity=".48"/><use xlink:href="#d" transform="matrix(1,0,0,1,423.9990600093999,942.3333333333334) translate(17.994791666666664 47.994791666666664)"/><path d="M644 957.33c0-8.28 6.7-15 15-15h70c8.28 0 15 6.72 15 15v50c0 8.3-6.72 15-15 15h-70c-8.3 0-15-6.7-15-15z" stroke="#000" stroke-width="3" fill="#fff" fill-opacity=".48"/><use xlink:href="#d" transform="matrix(1,0,0,1,643.9990600093998,942.3333333333334) translate(17.994791666666664 47.994791666666664)"/><path d="M864 957.33c0-8.28 6.7-15 15-15h70c8.28 0 15 6.72 15 15v50c0 8.3-6.72 15-15 15h-70c-8.3 0-15-6.7-15-15z" stroke="#000" stroke-width="3" fill="#fff" fill-opacity=".48"/><use xlink:href="#d" transform="matrix(1,0,0,1,863.9990600093998,942.3333333333334) translate(17.994791666666664 47.994791666666664)"/><path d="M524 982.33h118.5" stroke="#000" stroke-width="3" fill="none"/><path d="M524 983.83v-3zM642.5 982.33l-14.27 4.64v-9.27z"/><path d="M644 981.24v2.18l-17.27 5.6v-13.4zm-14.27 3.66l7.9-2.57-7.9-2.57z"/><path d="M744 982.33h120" stroke="#000" stroke-width="3" fill="none"/><path d="M744 983.83v-3zM864 982.33l-14.27 4.64v-9.27z"/><path d="M864 980.76v3.15l-15.77 5.13v-13.4zm-12.77 4.14l7.9-2.57-7.9-2.57z"/><path d="M474.33 1082.33l-.33-58.5" stroke="#000" stroke-width="3" fill="none"/><path d="M475.83 1082.33h-1.65 1.65zM478.72 1038.07l-9.27.06 4.55-14.3z"/><path d="M480.8 1039.56l-13.4.08 5.5-17.3h2.18zm-9.3-2.95l5.14-.02-2.6-7.9z"/><path d="M694.33 1082.33l-.33-58.5" stroke="#000" stroke-width="3" fill="none"/><path d="M695.83 1082.33h-1.65 1.65zM698.72 1038.07l-9.27.06 4.55-14.3z"/><path d="M700.8 1039.56l-13.4.08 5.5-17.3h2.18zm-9.3-2.95l5.14-.02-2.6-7.9z"/><path d="M914.33 1082.33l-.33-58.5" stroke="#000" stroke-width="3" fill="none"/><path d="M915.83 1082.33h-1.65 1.65zM918.72 1038.07l-9.27.06 4.55-14.3z"/><path d="M920.8 1039.56l-13.4.08 5.5-17.3h2.18zm-9.3-2.95l5.14-.02-2.6-7.9z"/><path d="M221.33 1176.33v-273h43.14v273z" stroke="#000" stroke-opacity="0" stroke-width="2" fill="#fff" fill-opacity="0"/><use xlink:href="#e" transform="matrix(6.123233995736766e-17,-1,1,6.123233995736766e-17,226.33333333333326,1171.3333333333337) translate(1.87890625 22.396484375)"/><use xlink:href="#f" transform="matrix(6.123233995736766e-17,-1,1,6.123233995736766e-17,226.33333333333326,1171.3333333333337) translate(99.0947265625 22.396484375)"/><path d="M278.84 1102.33h15.08v16.5h-15.08z" fill="#fff" fill-opacity="0"/><path d="M291 1114.17l.4.4c-1.94 2.4-4.1 3.67-6.92 3.67-2.75 0-4.58-1.83-4.58-4.64 0-5.26 5.05-10.7 10.14-10.7 1.8 0 2.78.9 2.78 2.32 0 2.92-3.56 5.56-9.63 6.34-.35.68-.35 1.56-.35 2.07 0 1.87 1.25 3.1 3.15 3.1 1.5 0 2.55-.56 5-2.56m-7-4.85l-.58 1.5c2.92-.72 4.2-1.33 5.47-2.52 1.04-1 1.68-2.23 1.68-3.3 0-.8-.24-1.3-1.2-1.3-1.92 0-4.23 2.6-5.38 5.62"/><path d="M301.92 927.7c0-2.95-2.56-5.37-5.72-5.37h-17.15c-3.16 0-5.72 2.42-5.72 5.38v109.26c0 2.96 2.56 5.37 5.72 5.37h17.15c3.16 0 5.72-2.4 5.72-5.37z" stroke="#000" stroke-width="3" fill="#fff" fill-opacity=".6"/><path d="M297.15 940.84c0 4.94-4.26 8.95-9.52 8.95-5.27 0-9.53-4.02-9.53-8.96 0-4.95 4.26-8.95 9.53-8.95 5.26 0 9.52 4 9.52 8.94z" stroke="#000" stroke-width="3"/><path d="M297.15 967.7c0 4.95-4.26 8.96-9.52 8.96-5.27 0-9.53-4-9.53-8.95 0-4.94 4.26-8.95 9.53-8.95 5.26 0 9.52 4 9.52 8.96z" stroke="#000" stroke-width="3" fill="#ccc"/><path d="M297.15 994.57c0 4.95-4.26 8.96-9.52 8.96-5.27 0-9.53-4-9.53-8.96 0-4.94 4.26-8.95 9.53-8.95 5.26 0 9.52 4 9.52 8.95z" stroke="#000" stroke-width="3" fill="#666"/><path d="M297.15 1021.44c0 4.95-4.26 8.95-9.52 8.95-5.27 0-9.53-4-9.53-8.96 0-4.94 4.26-8.96 9.53-8.96 5.26 0 9.52 4.02 9.52 8.96z" stroke="#000" stroke-width="3" fill="#fff"/><path d="M301.92 982.33H422.5" stroke="#000" stroke-width="3" fill="none"/><path d="M301.92 983.83v-3zM422.5 982.33l-14.27 4.64v-9.27z"/><path d="M424 981.24v2.18l-17.27 5.6v-13.4zm-14.27 3.66l7.9-2.57-7.9-2.57z"/><path d="M474 942.33l.33-60" fill="none"/><path d="M474 942.33l.02-4.5m.04-6l.05-9m.04-6l.05-9m.02-6l.05-9m.04-6l.03-4.5" stroke="#000" stroke-width="3" fill="none"/><path d="M474.16 942.33h-1.66zM478.9 896.62l-9.28-.05 4.7-14.24z"/><path d="M480.95 898.14l-13.4-.08 5.2-15.73h3.16zm-9.26-3.06l5.13.03-2.52-7.9z"/><path d="M424.33 862.33c0-11.04 8.96-20 20-20h60c11.05 0 20 8.96 20 20 0 11.05-8.95 20-20 20h-60c-11.04 0-20-8.95-20-20z" stroke="#000" stroke-width="3" fill="#d1bcd2"/><use xlink:href="#g" transform="matrix(1,0,0,1,424.33333333333337,842.3333333333334) translate(12.19384765625 25.396484375)"/><path d="M488.92 667.7c0-2.95-2.56-5.37-5.72-5.37h-17.15c-3.16 0-5.72 2.42-5.72 5.38v109.26c0 2.96 2.56 5.37 5.72 5.37h17.15c3.16 0 5.72-2.4 5.72-5.37z" stroke="#000" stroke-width="3" fill="#666" fill-opacity=".6"/><path d="M484.15 680.84c0 4.94-4.26 8.95-9.52 8.95-5.27 0-9.53-4.02-9.53-8.96 0-4.95 4.26-8.95 9.53-8.95 5.26 0 9.52 4 9.52 8.94z" stroke="#000" stroke-width="3"/><path d="M484.15 707.7c0 4.95-4.26 8.96-9.52 8.96-5.27 0-9.53-4-9.53-8.95 0-4.94 4.26-8.95 9.53-8.95 5.26 0 9.52 4 9.52 8.96z" stroke="#000" stroke-width="3" fill="#ccc"/><path d="M484.15 734.57c0 4.95-4.26 8.96-9.52 8.96-5.27 0-9.53-4-9.53-8.96 0-4.94 4.26-8.95 9.53-8.95 5.26 0 9.52 4 9.52 8.95z" stroke="#000" stroke-width="3" fill="#666"/><path d="M484.15 761.44c0 4.95-4.26 8.95-9.52 8.95-5.27 0-9.53-4-9.53-8.96 0-4.94 4.26-8.96 9.53-8.96 5.26 0 9.52 4.02 9.52 8.96z" stroke="#000" stroke-width="3" fill="#fff"/><path d="M474.33 842.33v-58.5" stroke="#000" stroke-width="3" fill="none"/><path d="M475.83 842.33h-3 3zM478.97 798.1h-9.27l4.63-14.27z"/><path d="M481.03 799.6h-13.4l5.6-17.27h2.2zm-9.27-3h5.14l-2.57-7.9z"/><path d="M644.33 862.33c0-11.04 8.96-20 20-20h54c11.05 0 20 8.96 20 20 0 11.05-8.95 20-20 20h-54c-11.04 0-20-8.95-20-20z" stroke="#000" stroke-width="3" fill="#d1bcd2"/><use xlink:href="#g" transform="matrix(1,0,0,1,644.3333333333334,842.3333333333334) translate(9.19384765625 25.396484375)"/><path d="M864.33 862.33c0-11.04 8.96-20 20-20h54c11.05 0 20 8.96 20 20 0 11.05-8.95 20-20 20h-54c-11.04 0-20-8.95-20-20z" stroke="#000" stroke-width="3" fill="#d1bcd2"/><use xlink:href="#g" transform="matrix(1,0,0,1,864.3333333333334,842.3333333333334) translate(9.19384765625 25.396484375)"/><path d="M694 942.33v-58.5" fill="none"/><path d="M694 942.33v-4.38m0-5.85v-8.78m0-5.85v-8.77m0-5.85v-8.78m0-5.85v-4.4" stroke="#000" stroke-width="3" fill="none"/><path d="M695.5 942.33h-3 3zM698.63 898.1h-9.27l4.64-14.27z"/><path d="M700.7 899.6h-13.4l5.6-17.27h2.2zm-9.27-3h5.14l-2.57-7.9z"/><path d="M914 942.33v-58.5" fill="none"/><path d="M914 942.33v-4.38m0-5.85v-8.78m0-5.85v-8.77m0-5.85v-8.78m0-5.85v-4.4" stroke="#000" stroke-width="3" fill="none"/><path d="M915.5 942.33h-3 3zM918.63 898.1h-9.27l4.64-14.27z"/><path d="M920.7 899.6h-13.4l5.6-17.27h2.2zm-9.27-3h5.14l-2.57-7.9z"/><path d="M708.33 667.7c0-2.95-2.55-5.37-5.7-5.37h-17.16c-3.16 0-5.72 2.42-5.72 5.38v109.26c0 2.96 2.56 5.37 5.72 5.37h17.15c3.16 0 5.7-2.4 5.7-5.37z" stroke="#000" stroke-width="3" fill="#fff" fill-opacity=".6"/><path d="M703.57 680.84c0 4.94-4.26 8.95-9.53 8.95-5.26 0-9.53-4.02-9.53-8.96 0-4.95 4.28-8.95 9.54-8.95 5.27 0 9.53 4 9.53 8.94z" stroke="#000" stroke-width="3"/><path d="M703.57 707.7c0 4.95-4.26 8.96-9.53 8.96-5.26 0-9.53-4-9.53-8.95 0-4.94 4.28-8.95 9.54-8.95 5.27 0 9.53 4 9.53 8.96z" stroke="#000" stroke-width="3" fill="#ccc"/><path d="M703.57 734.57c0 4.95-4.26 8.96-9.53 8.96-5.26 0-9.53-4-9.53-8.96 0-4.94 4.28-8.95 9.54-8.95 5.27 0 9.53 4 9.53 8.95z" stroke="#000" stroke-width="3" fill="#666"/><path d="M703.57 761.44c0 4.95-4.26 8.95-9.53 8.95-5.26 0-9.53-4-9.53-8.96 0-4.94 4.28-8.96 9.54-8.96 5.27 0 9.53 4.02 9.53 8.96z" stroke="#000" stroke-width="3" fill="#fff"/><path d="M691.33 842.33v-58.5" stroke="#000" stroke-width="3" fill="none"/><path d="M692.83 842.33h-3 3zM695.97 798.1h-9.27l4.63-14.27z"/><path d="M698.03 799.6h-13.4l5.6-17.27h2.2zm-9.27-3h5.14l-2.57-7.9z"/><path d="M1084 957.33c0-8.28 6.7-15 15-15h70c8.28 0 15 6.72 15 15v50c0 8.3-6.72 15-15 15h-70c-8.3 0-15-6.7-15-15z" stroke="#000" stroke-width="3" fill="#fff" fill-opacity=".48"/><use xlink:href="#d" transform="matrix(1,0,0,1,1083.9990600093997,942.3333333333334) translate(17.994791666666664 47.994791666666664)"/><path d="M1148.63 1087.7c0-2.95-2.56-5.37-5.72-5.37h-17.14c-3.16 0-5.72 2.42-5.72 5.38v109.26c0 2.96 2.56 5.37 5.72 5.37h17.15c3.17 0 5.73-2.4 5.73-5.37z" stroke="#000" stroke-width="3" fill="#666" fill-opacity=".6"/><path d="M1143.86 1100.84c0 4.94-4.26 8.95-9.53 8.95-5.26 0-9.52-4.02-9.52-8.96 0-4.95 4.27-8.95 9.53-8.95 5.27 0 9.53 4 9.53 8.94z" stroke="#000" stroke-width="3"/><path d="M1143.86 1127.7c0 4.95-4.26 8.96-9.53 8.96-5.26 0-9.52-4-9.52-8.95 0-4.94 4.27-8.95 9.53-8.95 5.27 0 9.53 4 9.53 8.96z" stroke="#000" stroke-width="3" fill="#ccc"/><path d="M1143.86 1154.57c0 4.95-4.26 8.96-9.53 8.96-5.26 0-9.52-4-9.52-8.96 0-4.94 4.27-8.95 9.53-8.95 5.27 0 9.53 4 9.53 8.95z" stroke="#000" stroke-width="3" fill="#666"/><path d="M1143.86 1181.44c0 4.95-4.26 8.95-9.53 8.95-5.26 0-9.52-4-9.52-8.96 0-4.94 4.27-8.96 9.53-8.96 5.27 0 9.53 4.02 9.53 8.96z" stroke="#000" stroke-width="3" fill="#fff"/><path d="M1091.33 1262.33c0-5.52 4.48-10 10-10h60c5.53 0 10 4.48 10 10v20c0 5.53-4.47 10-10 10h-60c-5.52 0-10-4.47-10-10z" stroke="#000" stroke-width="2" fill="#fff" fill-opacity="0"/><use xlink:href="#h" transform="matrix(1,0,0,1,1096.3333333333335,1257.3333333333335) translate(20.330946180555554 22.32855902777778)"/><path d="M964 982.33h120" stroke="#000" stroke-width="3" fill="none"/><path d="M964 983.83v-3zM1084 982.33l-14.27 4.64v-9.27z"/><path d="M1084 980.76v3.15l-15.77 5.13v-13.4zm-12.77 4.14l7.9-2.57-7.9-2.57z"/><path d="M1134.33 1082.33v-58.5" stroke="#000" stroke-width="3" fill="none"/><path d="M1135.83 1082.33h-3 3zM1138.97 1038.1h-9.27l4.63-14.27z"/><path d="M1141.03 1039.6h-13.4l5.6-17.27h2.2zm-9.27-3h5.14l-2.57-7.9z"/><path d="M1084.33 862.33c0-11.04 8.96-20 20-20h54c11.05 0 20 8.96 20 20 0 11.05-8.95 20-20 20h-54c-11.04 0-20-8.95-20-20z" stroke="#000" stroke-width="3" fill="#d1bcd2"/><use xlink:href="#g" transform="matrix(1,0,0,1,1084.3333333333335,842.3333333333334) translate(9.19384765625 25.396484375)"/><path d="M1134 942.33v-58.5" fill="none"/><path d="M1134 942.33v-4.38m0-5.85v-8.78m0-5.85v-8.77m0-5.85v-8.78m0-5.85v-4.4" stroke="#000" stroke-width="3" fill="none"/><path d="M1135.5 942.33h-3 3zM1138.63 898.1h-9.27l4.64-14.27z"/><path d="M1140.7 899.6h-13.4l5.6-17.27h2.2zm-9.27-3h5.14l-2.57-7.9z"/><path d="M1148.33 667.7c0-2.95-2.55-5.37-5.7-5.37h-17.16c-3.16 0-5.72 2.42-5.72 5.38v109.26c0 2.96 2.56 5.37 5.72 5.37h17.15c3.16 0 5.7-2.4 5.7-5.37z" stroke="#000" stroke-width="3" fill="#fff" fill-opacity=".6"/><path d="M1143.57 680.84c0 4.94-4.26 8.95-9.53 8.95-5.26 0-9.53-4.02-9.53-8.96 0-4.95 4.28-8.95 9.54-8.95 5.27 0 9.53 4 9.53 8.94z" stroke="#000" stroke-width="3"/><path d="M1143.57 707.7c0 4.95-4.26 8.96-9.53 8.96-5.26 0-9.53-4-9.53-8.95 0-4.94 4.28-8.95 9.54-8.95 5.27 0 9.53 4 9.53 8.96z" stroke="#000" stroke-width="3" fill="#ccc"/><path d="M1143.57 734.57c0 4.95-4.26 8.96-9.53 8.96-5.26 0-9.53-4-9.53-8.96 0-4.94 4.28-8.95 9.54-8.95 5.27 0 9.53 4 9.53 8.95z" stroke="#000" stroke-width="3" fill="#666"/><path d="M1143.57 761.44c0 4.95-4.26 8.95-9.53 8.95-5.26 0-9.53-4-9.53-8.96 0-4.94 4.28-8.96 9.54-8.96 5.27 0 9.53 4.02 9.53 8.96z" stroke="#000" stroke-width="3" fill="#fff"/><path d="M1131.33 842.33v-58.5" stroke="#000" stroke-width="3" fill="none"/><path d="M1132.83 842.33h-3 3zM1135.97 798.1h-9.27l4.63-14.27z"/><path d="M1138.03 799.6h-13.4l5.6-17.27h2.2zm-9.27-3h5.14l-2.57-7.9z"/><path d="M928.3 667.7c0-2.95-2.5-5.37-5.6-5.37h-16.74c-3.1 0-5.6 2.42-5.6 5.38v109.26c0 2.96 2.5 5.37 5.6 5.37h16.75c3.1 0 5.6-2.4 5.6-5.37z" stroke="#000" stroke-width="3" fill="#ccc" fill-opacity=".6"/><path d="M923.64 680.84c0 4.94-4.16 8.95-9.3 8.95-5.15 0-9.3-4.02-9.3-8.96 0-4.95 4.15-8.95 9.3-8.95 5.14 0 9.3 4 9.3 8.94z" stroke="#000" stroke-width="3"/><path d="M923.64 707.7c0 4.95-4.16 8.96-9.3 8.96-5.15 0-9.3-4-9.3-8.95 0-4.94 4.15-8.95 9.3-8.95 5.14 0 9.3 4 9.3 8.96z" stroke="#000" stroke-width="3" fill="#ccc"/><path d="M923.64 734.57c0 4.95-4.16 8.96-9.3 8.96-5.15 0-9.3-4-9.3-8.96 0-4.94 4.15-8.95 9.3-8.95 5.14 0 9.3 4 9.3 8.95z" stroke="#000" stroke-width="3" fill="#666"/><path d="M923.64 761.44c0 4.95-4.16 8.95-9.3 8.95-5.15 0-9.3-4-9.3-8.96 0-4.94 4.15-8.96 9.3-8.96 5.14 0 9.3 4.02 9.3 8.96z" stroke="#000" stroke-width="3" fill="#fff"/><path d="M911.33 842.33v-58.5" stroke="#000" stroke-width="3" fill="none"/><path d="M912.83 842.33h-3 3zM915.97 798.1h-9.27l4.63-14.27z"/><path d="M918.03 799.6h-13.4l5.6-17.27h2.2zm-9.27-3h5.14l-2.57-7.9z"/><path d="M694.33 1251.33v-47.5" stroke="#000" stroke-width="3" fill="none"/><path d="M695.83 1251.33h-3 3zM698.97 1218.1h-9.27l4.63-14.27z"/><path d="M701.03 1219.6h-13.4l5.6-17.27h2.2zm-9.27-3h5.14l-2.57-7.9z"/><path d="M911.33 1251.33v-47.5" stroke="#000" stroke-width="3" fill="none"/><path d="M912.83 1251.33h-3 3zM915.97 1218.1h-9.27l4.63-14.27z"/><path d="M918.03 1219.6h-13.4l5.6-17.27h2.2zm-9.27-3h5.14l-2.57-7.9z"/><path d="M1131.33 1252.33v-48.5" stroke="#000" stroke-width="3" fill="none"/><path d="M1132.83 1252.33h-3 3zM1135.97 1218.1h-9.27l4.63-14.27z"/><path d="M1138.03 1219.6h-13.4l5.6-17.27h2.2zm-9.27-3h5.14l-2.57-7.9z"/><path d="M470.83 1252.22l.5-48.4" stroke="#000" stroke-width="3" fill="none"/><path d="M470.9 1252.22h-1.57zM475.82 1218.15l-9.27-.1 4.78-14.22z"/><path d="M477.87 1219.67l-13.4-.14 5.8-17.2h2.17zm-9.24-3.1l5.14.06-2.5-7.94z"/><path d="M432.2 620.42H623V644H432.2z" fill="#fff" fill-opacity="0"/><path d="M439.77 627l-.76 2.6c1.43-2.12 2.92-2.95 4.5-2.95 1.92 0 3 1.23 3 3.27 0 4.32-3.95 8.56-7.78 8.56-.6 0-1.15-.1-1.8-.45-.45 1.83-1.05 3.98-1.05 4.35 0 .57.4.76 1.62.76v.4h-5.32v-.4c1.13-.03 1.47-.42 1.78-1.65l3-11.32c.3-1.05.43-1.73.43-1.86 0-.63-.74-.7-1.16-.7h-.58l-.05-.4 4.1-.57c.07 0 .12.05.12.1l-.05.24m4.37 3c0-1.5-.44-2.23-1.62-2.23-1.4 0-2.93 1.42-3.53 3-.77 1.95-1.7 5.33-1.7 6.2 0 .6.5 1 1.24 1 1.4 0 2.64-.85 3.8-2.48 1.25-1.76 1.8-3.67 1.8-5.5M454.63 642.13h-5.1v-.28c1.36-.07 1.75-.46 1.75-1.48v-8.3c0-.64-.16-.9-.55-.9-.2 0-.5.08-.84.2l-.5.2v-.27l3.3-1.68.17.06v11.04c0 .8.37 1.13 1.76 1.13v.28M467.04 642.27h-5.52v-21.4h5.52v.65h-2.17c-.9 0-1.36.3-1.36 1.25v17.43c0 1.05.5 1.42 1.37 1.42h2.17v.65M478.35 634.1l.37.24c-.84 1.62-1.36 2.38-2.15 3-.9.74-1.88 1.1-3 1.1-2.9 0-4.98-2.42-4.98-5.8 0-2.17.77-3.98 2.2-5.16 1.03-.86 2.3-1.33 3.52-1.33 2.2 0 4.03 1.23 4.03 2.7 0 .6-.55 1.1-1.23 1.1-.58 0-1.05-.45-1.26-1.2l-.15-.6c-.25-.95-.6-1.24-1.54-1.24-2.12 0-3.56 1.84-3.56 4.56 0 3 1.65 5.1 4.06 5.1 1.5 0 2.43-.62 3.7-2.45M491.86 632.14c0 3.64-2.36 6.3-5.9 6.3-3.16 0-5.65-2.58-5.65-6.22 0-3.64 2.37-6.07 5.9-6.07 3.2 0 5.66 2.38 5.66 6m-2.36.7c0-1.78-.47-3.6-1.3-4.66-.64-.8-1.37-1.32-2.5-1.32-1.8 0-3.03 1.55-3.03 4.16 0 2.07.42 3.96 1.4 5.37.56.85 1.4 1.32 2.34 1.32 1.95 0 3.1-1.83 3.1-4.87M512.95 638.2h-5.7v-.4c1.46-.16 1.7-.45 1.7-1.97v-5.4c0-2.06-.53-2.92-2.02-2.92-1.23 0-2 .48-2.8 1.6v6.6c0 1.7.4 2.07 1.9 2.1v.4h-5.88v-.4c1.5-.1 1.78-.27 1.78-1.86v-5.52c0-1.8-.57-2.9-1.7-2.9-.97 0-2.25.5-2.77 1.12-.2.2-.34.4-.34.44v7.28c0 1.12.4 1.38 1.78 1.44v.4h-5.8v-.4c1.45-.03 1.82-.4 1.82-1.9v-6.5c0-1.3-.24-1.73-.92-1.73-.3 0-.5.02-.84.1v-.44c1.44-.4 2.3-.68 3.64-1.18l.2.08v1.93h.06c1.73-1.78 2.83-2 4-2 1.42 0 2.3.7 2.78 2.2 1.42-1.53 2.75-2.2 4.27-2.2 2.13 0 3.05 1.6 3.05 4.7v5.3c0 1.2.34 1.53 1.12 1.58l.68.06v.4M533.3 638.2h-5.7v-.4c1.47-.16 1.7-.45 1.7-1.97v-5.4c0-2.06-.5-2.92-2-2.92-1.24 0-2.02.48-2.8 1.6v6.6c0 1.7.4 2.07 1.88 2.1v.4h-5.86v-.4c1.5-.1 1.78-.27 1.78-1.86v-5.52c0-1.8-.58-2.9-1.7-2.9-.97 0-2.26.5-2.78 1.12-.18.2-.34.4-.34.44v7.28c0 1.12.4 1.38 1.78 1.44v.4h-5.8v-.4c1.45-.03 1.82-.4 1.82-1.9v-6.5c0-1.3-.23-1.73-.92-1.73-.28 0-.5.02-.83.1v-.44c1.44-.4 2.3-.68 3.64-1.18l.2.08v1.93h.06c1.72-1.78 2.82-2 4-2 1.42 0 2.3.7 2.78 2.2 1.42-1.53 2.75-2.2 4.27-2.2 2.12 0 3.04 1.6 3.04 4.7v5.3c0 1.2.35 1.53 1.13 1.58l.68.06v.4M544.1 633.9l.42.18c-1.02 2.85-2.86 4.37-5.47 4.37-3.1 0-4.98-2.33-4.98-5.94 0-3.68 2.12-6.35 5.42-6.35 1.6 0 2.8.63 3.63 1.8.52.74.78 1.58.9 3h-8.07c.13 1.98.26 3 1.2 4.26.73.97 1.7 1.44 2.9 1.44 1.76 0 2.76-.8 4.04-2.74m-8.1-3.8h5.35c-.3-2.12-.84-3-2.57-3-1.46 0-2.48 1.04-2.77 3M557.73 638.2h-5.44l.02-.4c1.3-.1 1.62-.63 1.62-2.36v-5.2c0-1.87-.63-2.65-1.9-2.65-.88 0-1.5.3-2.7 1.48v7.22c0 1.03.36 1.4 1.7 1.5v.4h-5.53v-.4c1.35-.1 1.63-.53 1.63-2.07v-6.36c0-1.28-.18-1.7-.9-1.7-.3 0-.6.02-.77.1v-.44c1.44-.42 2.3-.7 3.58-1.18l.2.08v2.04h.04c1.36-1.54 2.56-2.12 3.77-2.12 2 0 3.1 1.44 3.1 4.03v5.78c0 1.42.3 1.7 1.58 1.84v.4M565.1 636.17l.35.3c-.86 1.35-1.85 1.98-3.16 1.98-1.53 0-2.32-1.12-2.32-3.32v-7.88h-1.38c-.08-.05-.1-.1-.1-.18 0-.16.15-.32.44-.5.68-.4 1.54-1.36 2.54-2.8.15-.24.36-.47.52-.74.13 0 .18.08.18.34v3.04h2.65v.85h-2.65v7.48c0 1.68.4 2.36 1.36 2.36.58 0 1-.25 1.57-.93M571.87 642.27h-5.53v-.65h2.3c.92 0 1.24-.4 1.24-1.2v-17.5c0-.9-.34-1.4-1.34-1.4h-2.2v-.66h5.53v21.4M621.86 637.6l-1.2 1.24-6.05-6.02-6.04 6.02-1.2-1.2 6.02-6.05-6.02-6.05 1.23-1.2 6 6 6.05-6 1.2 1.17-6 6.07"/><path d="M669.4 620.42h141.35V644H669.4z" fill="#fff" fill-opacity="0"/><path d="M677 627l-.77 2.6c1.4-2.12 2.9-2.95 4.48-2.95 1.94 0 3.02 1.23 3.02 3.27 0 4.32-3.96 8.56-7.78 8.56-.6 0-1.15-.1-1.8-.45-.45 1.83-1.05 3.98-1.05 4.35 0 .57.38.76 1.6.76v.4h-5.3v-.4c1.13-.03 1.47-.42 1.78-1.65l3-11.32c.3-1.05.43-1.73.43-1.86 0-.63-.72-.7-1.14-.7h-.58l-.05-.4 4.08-.57c.1 0 .14.05.14.1l-.05.24m4.36 3c0-1.5-.44-2.23-1.62-2.23-1.4 0-2.93 1.42-3.53 3-.75 1.95-1.7 5.33-1.7 6.2 0 .6.53 1 1.26 1 1.4 0 2.64-.85 3.8-2.48 1.25-1.76 1.8-3.67 1.8-5.5M693.33 639.6l-1 2.53h-7.23v-.22l3.3-3.5c1.73-1.82 2.4-3.23 2.4-4.8 0-1.7-1-2.6-2.58-2.6-1.33 0-1.98.58-2.72 2.4l-.4-.1c.4-2.16 1.6-3.68 3.86-3.68 2.1 0 3.43 1.43 3.43 3.26 0 1.46-.73 2.85-2.38 4.6l-3.06 3.24h4.34c.77 0 1.16-.2 1.77-1.24M704.26 642.27h-5.52v-21.4h5.52v.65h-2.17c-.9 0-1.37.3-1.37 1.25v17.43c0 1.05.5 1.42 1.36 1.42h2.16v.65M717.64 626.4v.4c-.8.08-1 .3-1.7 2.05l-3.35 8.4c-.4.97-.6 1.3-.75 1.3-.15 0-.28-.2-.47-.68-.08-.13-.1-.3-.2-.54l-3.15-7.52c-1.12-2.68-1.4-2.94-2.38-3v-.4h5.13v.4c-.9.08-1.2.27-1.2.7 0 .27.07.6.23 1l2.68 6.7 2.6-6.77c.1-.27.15-.53.15-.8 0-.5-.4-.75-1.23-.83v-.4h3.64M729.8 636.46v.73c-.78 1-1.46 1.25-2.35 1.25-.97 0-1.54-.52-1.67-1.9h-.03c-1.4 1.56-2.67 1.9-3.8 1.9-1.62 0-2.74-1-2.74-2.72 0-1.36.82-2.38 1.84-3.06.8-.53 1.75-1.02 4.7-2.12v-1.42c0-1.62-.85-2.35-2.03-2.35-1.04 0-1.82.57-1.82 1.28 0 .47.15.55.15 1.1 0 .5-.52 1.07-1.2 1.07-.55 0-1.12-.5-1.12-1.2 0-.68.42-1.52 1.34-2.1.73-.47 1.83-.78 3-.78 1.48 0 2.47.42 3.1 1.18.63.76.73 1.3.73 2.9v5c0 1.2.34 1.73.8 1.73.43 0 .7-.13 1.14-.5m-4.05-1.6v-3.7c-1.62.6-2.7 1.14-3.35 1.74-.63.58-.9 1.2-.9 2.02 0 1.38.8 2 1.82 2 .52 0 1.07-.12 1.52-.4.75-.53.9-.9.9-1.66M733.97 630.3l2.72 1.66c1.67 1.02 2.3 1.73 2.3 3.22 0 1.75-1.68 3.27-3.67 3.27-.55 0-1.3-.03-1.9-.23-.64-.2-.93-.24-1.2-.24-.33 0-.5.05-.64.3h-.35v-4.1h.42c.55 2.54 1.5 3.7 3.32 3.7 1.33 0 2.16-.87 2.16-1.94 0-.8-.52-1.5-1.38-1.96l-1.42-.8c-2.17-1.2-3.14-2.45-3.14-3.8 0-2.05 1.47-3.2 3.6-3.2.64 0 1.22.02 1.77.28.27.13.54.2.72.2.1 0 .2 0 .42-.25h.3l.12 3.57h-.4c-.6-2.36-1.38-3.22-2.95-3.22-1.12 0-1.96.55-1.96 1.78 0 .58.4 1.34 1.13 1.78M746.5 642.27H741v-.65h2.3c.92 0 1.24-.4 1.24-1.2v-17.5c0-.9-.34-1.4-1.34-1.4h-2.2v-.66h5.53v21.4M809.6 637.6l-1.2 1.24-6.04-6.02-6.05 6.02-1.2-1.2 6.03-6.05-6.02-6.05 1.24-1.2 6.02 6 6.05-6 1.2 1.17-6 6.07"/><path d="M880 620.42h133.36V644H880z" fill="#fff" fill-opacity="0"/><path d="M887.58 627l-.76 2.6c1.4-2.12 2.9-2.95 4.47-2.95 1.93 0 3 1.23 3 3.27 0 4.32-3.95 8.56-7.77 8.56-.6 0-1.15-.1-1.8-.45-.45 1.83-1.05 3.98-1.05 4.35 0 .57.4.76 1.62.76v.4H880v-.4c1.1-.03 1.45-.42 1.77-1.65l3-11.32c.3-1.05.43-1.73.43-1.86 0-.63-.74-.7-1.16-.7h-.57l-.05-.4 4.08-.57c.08 0 .13.05.13.1l-.05.24m4.37 3c0-1.5-.45-2.23-1.62-2.23-1.4 0-2.94 1.42-3.54 3-.77 1.95-1.7 5.33-1.7 6.2 0 .6.5 1 1.25 1 1.38 0 2.64-.85 3.8-2.48 1.25-1.76 1.8-3.67 1.8-5.5M896.27 632.7l-.3-.08c.55-1.76 1.7-3 3.64-3 1.73 0 2.9 1.02 2.9 2.54 0 .88-.5 1.8-1.73 2.55.82.36 1.15.58 1.54 1 .53.56.82 1.42.82 2.38 0 .98-.3 1.9-.85 2.6-.9 1.17-2.65 1.7-4.3 1.7-1.34 0-2.07-.38-2.07-1.04 0-.4.34-.67.76-.67.32 0 .6.1 1.13.48.68.48 1.07.57 1.58.57 1.37 0 2.4-1.25 2.4-2.83 0-1.4-.64-2.32-1.92-2.7-.4-.12-.83-.18-1.88-.18v-.26c.7-.24 1.18-.44 1.55-.66.9-.52 1.5-1.35 1.5-2.48 0-1.26-.78-1.9-2-1.9-1.15 0-2 .6-2.76 1.97M914.85 642.27h-5.52v-21.4h5.52v.65h-2.17c-.9 0-1.36.3-1.36 1.25v17.43c0 1.05.5 1.42 1.36 1.42h2.17v.65M922.7 636.17l.34.3c-.86 1.35-1.86 1.98-3.17 1.98-1.5 0-2.3-1.12-2.3-3.32v-7.88h-1.4c-.06-.05-.1-.1-.1-.18 0-.16.17-.32.45-.5.7-.4 1.55-1.36 2.54-2.8.16-.24.37-.47.53-.74.12 0 .17.08.17.34v3.04h2.64v.85h-2.63v7.48c0 1.68.4 2.36 1.36 2.36.58 0 1-.25 1.57-.93M935.58 636.88v.37c-1.34.36-2.28.65-3.6 1.17l-.12-.07v-2.15h-.05c-1.27 1.75-2.76 2.25-3.73 2.25-2.02 0-3.2-1.33-3.2-3.35v-6.57c0-1.3-.36-1.67-1.62-1.75v-.37h3.82v8.46c0 1.2.84 2.07 1.86 2.07.76 0 1.54-.23 2.2-.8.42-.38.6-.6.6-1.53v-6.04c0-1.4-.37-1.6-1.94-1.7v-.45h4.13v9c0 1.2.3 1.48 1.5 1.48h.15M942.54 642.27h-5.52v-.65h2.3c.92 0 1.23-.4 1.23-1.2v-17.5c0-.9-.34-1.4-1.33-1.4h-2.2v-.66h5.52v21.4M1012.2 637.6l-1.2 1.24-6.04-6.02-6.04 6.02-1.2-1.2 6-6.05-6-6.05 1.22-1.2 6.02 6 6.05-6 1.2 1.17-6 6.07"/><path d="M1070.87 619.87h115.3v23.6h-115.3z" fill="#fff" fill-opacity="0"/><path d="M1078.45 626.45l-.76 2.6c1.4-2.1 2.9-2.95 4.46-2.95 1.94 0 3 1.24 3 3.28 0 4.32-3.94 8.56-7.76 8.56-.6 0-1.15-.1-1.8-.45-.45 1.82-1.05 3.97-1.05 4.33 0 .58.4.76 1.62.76v.4h-5.3v-.4c1.1-.03 1.45-.42 1.77-1.65l3-11.3c.3-1.06.43-1.74.43-1.87 0-.63-.74-.7-1.16-.7h-.56l-.05-.4 4.07-.58c.08 0 .13.06.13.1l-.05.25m4.37 3c0-1.5-.45-2.22-1.62-2.22-1.4 0-2.94 1.4-3.54 2.98-.76 1.98-1.7 5.35-1.7 6.24 0 .58.52 1 1.26 1 1.38 0 2.64-.87 3.8-2.5 1.25-1.74 1.8-3.65 1.8-5.48M1094.77 638.5h-1.9v3.1h-1.45v-3.1h-5.18v-1.2l5.8-8.22h.82v8.23h1.9v1.2m-3.34-1.2v-6.33l-4.44 6.34h4.44M1105.72 641.73h-5.52v-21.4h5.52v.64h-2.17c-.9 0-1.36.32-1.36 1.26v17.43c0 1.05.48 1.42 1.35 1.42h2.17v.65M1122.86 638.28l-14.78-7.15v-.26l14.78-7.2v1.7l-11.3 5.63 11.3 5.63v1.65M1135.22 633.35l.42.2c-1.03 2.84-2.86 4.36-5.47 4.36-3.1 0-4.98-2.32-4.98-5.93 0-3.7 2.1-6.36 5.4-6.36 1.63 0 2.8.64 3.65 1.8.52.75.78 1.58.9 3h-8.07c.13 2 .26 3 1.2 4.26.73.97 1.7 1.44 2.9 1.44 1.76 0 2.75-.8 4.04-2.75m-8.1-3.8h5.35c-.3-2.1-.84-3-2.57-3-1.46 0-2.48 1.05-2.77 3M1148.5 631.6c0 3.64-2.37 6.3-5.9 6.3-3.17 0-5.66-2.58-5.66-6.22 0-3.64 2.36-6.07 5.9-6.07 3.2 0 5.65 2.4 5.65 6m-2.37.7c0-1.77-.47-3.58-1.3-4.65-.64-.8-1.37-1.3-2.5-1.3-1.8 0-3.03 1.53-3.03 4.15 0 2.07.42 3.95 1.4 5.37.56.83 1.4 1.3 2.34 1.3 1.94 0 3.1-1.83 3.1-4.86M1153.35 629.77l2.73 1.65c1.67 1.02 2.3 1.73 2.3 3.22 0 1.75-1.68 3.27-3.66 3.27-.55 0-1.3-.02-1.92-.23-.62-.2-.9-.23-1.2-.23-.3 0-.47.05-.63.3h-.34v-4.1h.42c.55 2.54 1.52 3.7 3.33 3.7 1.33 0 2.17-.87 2.17-1.94 0-.82-.53-1.5-1.4-1.97l-1.4-.78c-2.18-1.2-3.14-2.46-3.14-3.8 0-2.06 1.47-3.22 3.62-3.22.63 0 1.2.03 1.75.3.3.12.55.2.73.2.1 0 .2-.03.42-.26h.3l.12 3.56h-.4c-.6-2.36-1.38-3.22-2.95-3.22-1.13 0-1.97.56-1.97 1.8 0 .57.4 1.32 1.12 1.77M1175.73 631.13l-14.8 7.15v-1.65l11.32-5.63-11.3-5.63v-1.7l14.78 7.2v.26M1183.85 641.73h-5.53v-.65h2.3c.92 0 1.24-.4 1.24-1.2v-17.5c0-.9-.34-1.4-1.34-1.4h-2.2v-.66h5.53v21.4"/><path d="M1093 551.9c0-5.53 4.48-10 10-10h73c5.52 0 10 4.47 10 10V571c0 5.52-4.48 10-10 10h-73c-5.52 0-10-4.48-10-10z" stroke="#000" stroke-width="2" fill="#fff" fill-opacity=".81"/><use xlink:href="#i" transform="matrix(1,0,0,1,1098,546.8888888888887) translate(4.827365451388886 22.32855902777778)"/><path d="M658 550c0-5.52 4.48-10 10-10h60c5.52 0 10 4.48 10 10v20c0 5.52-4.48 10-10 10h-60c-5.52 0-10-4.48-10-10z" stroke="#000" stroke-width="2" fill="#fff" fill-opacity=".81"/><use xlink:href="#b" transform="matrix(1,0,0,1,662.9999999999999,545) translate(12.996419270833329 22.32855902777778)"/><path d="M420 551c0-5.52 4.48-10 10-10h122c5.52 0 10 4.48 10 10v20c0 5.52-4.48 10-10 10H430c-5.52 0-10-4.48-10-10z" stroke="#000" stroke-width="2" fill="#fff" fill-opacity=".81"/><use xlink:href="#c" transform="matrix(1,0,0,1,425,546) translate(14.658311631944443 22.32855902777778)"/><path d="M878 551c0-5.52 4.48-10 10-10h60c5.52 0 10 4.48 10 10v20c0 5.52-4.48 10-10 10h-60c-5.52 0-10-4.48-10-10z" stroke="#000" stroke-width="2" fill="#fff" fill-opacity=".84"/><use xlink:href="#h" transform="matrix(1,0,0,1,883,546) translate(20.330946180555554 22.32855902777778)"/><path d="M160 539h273v42H160z" stroke="#000" stroke-opacity="0" stroke-width="2" fill="#fff" fill-opacity="0"/><use xlink:href="#j" transform="matrix(1,0,0,1,165,544.0000000000001) translate(39.68505859375 21.396484375)"/><use xlink:href="#k" transform="matrix(1,0,0,1,165,544.0000000000001) translate(126.09912109375 21.396484375)"/><path d="M159 611h273v42H159z" stroke="#000" stroke-opacity="0" stroke-width="2" fill="#fff" fill-opacity="0"/><use xlink:href="#l" transform="matrix(1,0,0,1,164,616) translate(61.28857421875 21.396484375)"/><path d="M490.42 704.67l8.86.18 7.88.5 7.1.74 6.5.94 6.05 1.16 5.7 1.33 5.44 1.52 5.3 1.72 5.26 1.96 5.38 2.26 5.72 2.7 6.57 3.42 9.36 5.44 26.97 16.32 6.57 3.43 5.72 2.7 5.37 2.27 5.26 1.96 5.3 1.72 5.44 1.52 5.7 1.33 6.03 1.16 6.5.95 7.1.76 7.88.5 8.87.17" stroke="#000" stroke-width="2" fill="none"/><path d="M490.46 703.67l-.08 2-1.46-.06v-2zM678.25 763.33l-14.43 4.1.35-9.27z"/><path d="M679.75 762.82v1.13l-16.98 4.82.45-12.02zm-14.88 3.27l10.15-2.9-9.9-3.62z"/><path d="M709.84 762l6.58-.14 6.04-.37 5.6-.6 5.2-.77 4.92-.94 4.68-1.1 4.48-1.26 4.35-1.4 4.24-1.6 4.2-1.75 4.2-2 4.3-2.24 4.45-2.57 4.75-3.03 5.33-3.72 6.6-5.03 35.75-29.4 5.33-3.72 4.76-3.02 4.45-2.58 4.3-2.24 4.2-1.98 4.2-1.77 4.25-1.57 4.34-1.4 4.5-1.26 4.67-1.1 4.9-.93 5.23-.77 5.6-.6 6.02-.37 6.6-.13" stroke="#000" stroke-width="2" fill="none"/><path d="M709.9 763l-1.57.08v-2l1.46-.08zM898.87 680.67l-14 5.35-.48-9.26z"/><path d="M900.37 680.04v1.12l-16.44 6.28-.6-12zm-14.58 4.55l9.84-3.77-10.18-2.75z"/><path d="M929.8 680.67l9.3.2 8.25.5 7.4.78 6.74 1 6.25 1.18 5.88 1.38 5.64 1.6 5.5 1.78 5.5 2.04 5.7 2.4 6.25 2.94 7.68 4.03 35.92 20.37 6.24 2.94 5.7 2.4 5.5 2.06 5.5 1.8 5.65 1.56 5.9 1.38 6.25 1.2 6.75 1 7.4.76 8.23.52 9.32.2" stroke="#000" stroke-width="2" fill="none"/><path d="M929.83 679.67l-.07 2-1.47-.06v-2zM1118.25 736.67l-14.43 4.1.34-9.25z"/><path d="M1119.75 736.15v1.13l-16.97 4.84.43-12.02zm-14.88 3.3l10.15-2.9-9.9-3.62z"/><defs><path d="M101-516v-322l1027-391v228L295-676l833 324v227" id="m"/><path d="M622-916c-112 2-200 14-200 111 0 90 89 101 168 121 234 58 514 77 514 368C1104-4 751 54 434 5 267-21 161-112 121-270l247-37c24 111 113 145 252 141 114-3 226-12 226-124 0-101-103-113-192-134-225-54-490-76-490-351 0-247 201-328 458-328 245 0 413 88 457 292l-249 26c-16-98-92-133-208-131" id="n"/><path d="M616-1102c361 0 521 202 521 560 0 354-171 562-527 562C259 20 92-192 92-542c0-351 169-560 524-560zm-9 930c200-2 236-165 236-370 0-199-27-367-223-367-195 0-233 146-233 367 0 129 18 223 55 282s92 88 165 88" id="o"/><path d="M101-125v-227l832-324-832-325v-228l1027 391v322" id="p"/><g id="a"><use transform="matrix(0.01193576388888889,0,0,0.01193576388888889,0,0)" xlink:href="#m"/><use transform="matrix(0.01193576388888889,0,0,0.01193576388888889,14.669053819444446,0)" xlink:href="#n"/><use transform="matrix(0.01193576388888889,0,0,0.01193576388888889,29.338107638888893,0)" xlink:href="#o"/><use transform="matrix(0.01193576388888889,0,0,0.01193576388888889,44.00716145833334,0)" xlink:href="#n"/><use transform="matrix(0.01193576388888889,0,0,0.01193576388888889,58.676215277777786,0)" xlink:href="#p"/></g><path d="M774 0H438L31-1082h297c94 290 200 568 280 872 83-304 194-581 291-872h294" id="q"/><path d="M775-193C708-75 621 20 439 20 226 20 106-93 106-306c0-251 170-341 417-346l223-4c4-143-12-264-148-264-103 0-141 58-150 153l-293-14c37-219 194-321 455-321 263 0 418 130 417 390v392c1 84 5 161 89 160 21 0 42-2 62-6v152c-57 15-108 27-180 26-145 0-202-73-217-205h-6zm-256 17c168 0 234-139 227-325-166 4-347-25-347 173 0 94 33 152 120 152" id="r"/><g id="b"><use transform="matrix(0.01193576388888889,0,0,0.01193576388888889,0,0)" xlink:href="#q"/><use transform="matrix(0.01193576388888889,0,0,0.01193576388888889,14.669053819444446,0)" xlink:href="#r"/><use transform="matrix(0.01193576388888889,0,0,0.01193576388888889,29.338107638888893,0)" xlink:href="#n"/></g><path d="M1109-360C1066-122 902 20 624 20c-347 0-514-209-514-555 0-353 168-567 518-567 270 0 425 136 473 361l-283 14c-16-106-75-183-196-182-75 0-130 31-165 93s-52 152-52 270c0 249 74 374 221 374 120 0 188-82 201-201" id="s"/><path d="M934-1102c199 0 220 177 220 381V0H926c-2-260 10-533-4-785-4-72-14-138-83-138-34 0-61 27-81 81s-29 134-29 241V0H501c-2-260 9-533-5-785-4-72-13-138-82-138-46 0-65 47-80 93-21 67-30 155-30 248V0H75c-3-360 6-732-6-1082h209c6 50 3 123 8 175 36-100 83-195 216-195 135 0 166 79 196 196 42-105 93-196 236-196" id="t"/><path d="M1113-274C1038-96 884 20 626 20c-352 0-526-209-526-566 0-358 185-556 530-556 358 0 496 251 499 615H395c5 180 68 319 245 319 102 0 186-45 208-129zM857-663c-6-177-128-307-315-247-94 30-141 121-145 247h460" id="u"/><path d="M768-1103c247 0 336 167 336 416V0H824v-619c-3-164-24-273-171-273-164 0-229 142-229 312V0H143c-4-359 9-736-8-1082h268c7 63 12 146 13 215h4c67-145 160-236 348-236" id="v"/><path d="M711 13c-250 0-386-99-385-349l2-556H161v-190h181l88-282h176v282h385v190H606v530c-10 130 45 186 174 184 91-2 176-11 255-27v186C933-1 833 13 711 13" id="w"/><g id="c"><use transform="matrix(0.01193576388888889,0,0,0.01193576388888889,0,0)" xlink:href="#s"/><use transform="matrix(0.01193576388888889,0,0,0.01193576388888889,14.669053819444446,0)" xlink:href="#o"/><use transform="matrix(0.01193576388888889,0,0,0.01193576388888889,29.338107638888893,0)" xlink:href="#t"/><use transform="matrix(0.01193576388888889,0,0,0.01193576388888889,44.00716145833334,0)" xlink:href="#t"/><use transform="matrix(0.01193576388888889,0,0,0.01193576388888889,58.676215277777786,0)" xlink:href="#u"/><use transform="matrix(0.01193576388888889,0,0,0.01193576388888889,73.34526909722223,0)" xlink:href="#v"/><use transform="matrix(0.01193576388888889,0,0,0.01193576388888889,88.01432291666667,0)" xlink:href="#w"/></g><path d="M237 0v-1349h191v1193h672V0H237" id="x"/><path d="M614-1226c-167 1-283 53-283 213 0 183 186 193 334 234 230 63 463 120 463 409 0 286-219 387-518 390C309 23 131-98 79-338l185-37c34 165 149 248 351 246 184-2 324-58 324-238 0-203-207-221-372-266-210-57-422-111-422-377 0-267 201-356 470-360 279-5 430 101 480 324l-188 33c-28-141-121-215-293-213" id="y"/><path d="M709-1193V0H519v-1193H76v-156h1076v156H709" id="z"/><path d="M285-1169c8 382 2 780 4 1169H129v-1349h237c86 239 188 461 253 720 69-258 169-481 255-720h225V0H937c2-390-5-788 6-1169-75 255-170 488-259 729H547c-90-240-185-475-262-729" id="A"/><g id="d"><use transform="matrix(0.013020833333333334,0,0,0.013020833333333334,0,0)" xlink:href="#x"/><use transform="matrix(0.013020833333333334,0,0,0.013020833333333334,16.002604166666668,0)" xlink:href="#y"/><use transform="matrix(0.013020833333333334,0,0,0.013020833333333334,32.005208333333336,0)" xlink:href="#z"/><use transform="matrix(0.013020833333333334,0,0,0.013020833333333334,48.0078125,0)" xlink:href="#A"/></g><path d="M621-530c0 421 127 700 301 955H641C466 173 344-110 344-531s122-702 297-953h281c-174 254-301 534-301 954" id="B"/><path d="M802-909c-3-189-2-383-2-575h281v1248c-1 83 4 168 8 236H817c-9-50-14-117-15-176h-4C735-49 651 20 482 20 191 20 97-238 97-539c0-243 66-432 221-519 50-28 108-42 175-42 162 2 253 78 309 191zm-70 658c91-113 93-462 2-584-46-61-145-100-224-53-96 56-119 190-120 349 0 123 17 214 52 275 46 82 130 115 222 74 25-12 46-33 68-61" id="C"/><path d="M875-1102c70 0 148 7 206 17v237c-110-17-267-37-359 15-123 69-192 207-192 395V0H250c-10-367 32-789-52-1082h271c19 69 36 149 46 228h4c52-151 151-250 356-248" id="D"/><g id="e"><use transform="matrix(0.0087890625,0,0,0.0087890625,0,0)" xlink:href="#B"/><use transform="matrix(0.0087890625,0,0,0.0087890625,10.8017578125,0)" xlink:href="#u"/><use transform="matrix(0.0087890625,0,0,0.0087890625,21.603515625,0)" xlink:href="#v"/><use transform="matrix(0.0087890625,0,0,0.0087890625,32.4052734375,0)" xlink:href="#s"/><use transform="matrix(0.0087890625,0,0,0.0087890625,43.20703125,0)" xlink:href="#o"/><use transform="matrix(0.0087890625,0,0,0.0087890625,54.0087890625,0)" xlink:href="#C"/><use transform="matrix(0.0087890625,0,0,0.0087890625,64.810546875,0)" xlink:href="#u"/><use transform="matrix(0.0087890625,0,0,0.0087890625,75.6123046875,0)" xlink:href="#D"/></g><path d="M427-171c3 195 2 397 2 596H148V-846c1-83-4-168-8-236h272c10 49 14 118 15 176h4c59-114 151-197 316-197 291 0 385 259 385 560 0 243-65 433-220 521-50 28-109 42-176 42-162-2-253-78-309-191zm69-661c-91 113-92 463-1 586 46 62 145 101 225 54 96-57 118-191 119-351 0-123-18-215-53-276-46-82-128-115-220-74-25 12-48 33-70 61" id="E"/><path d="M794-190h353V0H118v-190h395v-702H223v-190h571v892zM513-1277v-207h281v207H513" id="F"/><path d="M885-531c0 421-122 704-297 956H307c174-255 301-534 301-955 0-420-127-700-301-954h281c175 251 297 532 297 953" id="G"/><g id="f"><use transform="matrix(0.0087890625,0,0,0.0087890625,0,0)" xlink:href="#D"/><use transform="matrix(0.0087890625,0,0,0.0087890625,10.8017578125,0)" xlink:href="#u"/><use transform="matrix(0.0087890625,0,0,0.0087890625,21.603515625,0)" xlink:href="#E"/><use transform="matrix(0.0087890625,0,0,0.0087890625,32.4052734375,0)" xlink:href="#D"/><use transform="matrix(0.0087890625,0,0,0.0087890625,43.20703125,0)" xlink:href="#u"/><use transform="matrix(0.0087890625,0,0,0.0087890625,54.0087890625,0)" xlink:href="#n"/><use transform="matrix(0.0087890625,0,0,0.0087890625,64.810546875,0)" xlink:href="#u"/><use transform="matrix(0.0087890625,0,0,0.0087890625,75.6123046875,0)" xlink:href="#v"/><use transform="matrix(0.0087890625,0,0,0.0087890625,86.4140625,0)" xlink:href="#w"/><use transform="matrix(0.0087890625,0,0,0.0087890625,97.2158203125,0)" xlink:href="#r"/><use transform="matrix(0.0087890625,0,0,0.0087890625,108.017578125,0)" xlink:href="#w"/><use transform="matrix(0.0087890625,0,0,0.0087890625,118.8193359375,0)" xlink:href="#F"/><use transform="matrix(0.0087890625,0,0,0.0087890625,129.62109375,0)" xlink:href="#o"/><use transform="matrix(0.0087890625,0,0,0.0087890625,140.4228515625,0)" xlink:href="#v"/><use transform="matrix(0.0087890625,0,0,0.0087890625,151.224609375,0)" xlink:href="#G"/></g><path d="M873-819c-18-114-119-146-250-146-163 0-245 50-245 151 0 151 170 148 294 185 182 54 388 94 388 320 0 240-189 325-439 329-245 4-410-69-454-268l159-31c24 133 136 168 295 165 144-2 270-31 270-171 0-164-195-160-331-202-167-52-350-87-350-299 0-218 173-315 413-313 220 2 373 77 412 260" id="H"/><path d="M615-1102c343 0 484 203 482 560-1 347-147 562-488 562-336 0-475-219-479-562-4-349 156-560 485-560zm-8 989c240 0 301-180 301-429 0-245-55-427-290-427-236 0-299 181-299 427 0 243 61 429 288 429" id="I"/><path d="M839-1335c-182-6-269 67-259 253h491v142H580V0H400v-940H138v-142h262c-15-293 132-408 418-402 94 2 200 7 281 21v145c-75-10-177-14-260-17" id="J"/><path d="M682 16c-209 0-323-80-324-285v-671H190v-142h170l58-282h120v282h432v142H538v652c2 114 60 155 182 155 106 0 209-16 297-34v137C921-4 806 16 682 16" id="K"/><path d="M904-1102c199 0 220 177 220 381V0H956v-686c-3-114 0-215-60-264-70-33-125-4-158 71-26 56-39 140-39 252V0H531v-686c-3-114-1-215-61-264-78-41-136 24-157 84-24 69-39 159-39 259V0H105c-3-360 6-732-6-1082h149c6 50 3 123 8 175 36-100 83-195 216-195 135 0 166 79 196 196 42-105 93-196 236-196" id="L"/><path d="M1000-272c3 95 12 159 101 161 21 0 41-3 59-7V-6c-44 10-86 16-139 16-141 2-191-84-197-217h-6C748-76 648 20 446 20c-207 0-318-120-318-322 0-266 194-348 454-354l236-4c12-191-40-305-222-305-140 0-220 47-232 172l-188-17c33-204 181-292 423-292 255 0 401 118 401 364v466zm-683-27c0 109 63 184 175 182 166-3 259-96 306-217 24-65 20-120 20-200-232 7-501-28-501 235" id="M"/><path d="M932 0L611-444 288 0H94l415-556-397-526h199l300 421 298-421h201L713-558 1133 0H932" id="N"/><g id="g"><use transform="matrix(0.0087890625,0,0,0.0087890625,0,0)" xlink:href="#H"/><use transform="matrix(0.0087890625,0,0,0.0087890625,10.8017578125,0)" xlink:href="#I"/><use transform="matrix(0.0087890625,0,0,0.0087890625,21.603515625,0)" xlink:href="#J"/><use transform="matrix(0.0087890625,0,0,0.0087890625,32.4052734375,0)" xlink:href="#K"/><use transform="matrix(0.0087890625,0,0,0.0087890625,43.20703125,0)" xlink:href="#L"/><use transform="matrix(0.0087890625,0,0,0.0087890625,54.0087890625,0)" xlink:href="#M"/><use transform="matrix(0.0087890625,0,0,0.0087890625,64.810546875,0)" xlink:href="#N"/></g><path d="M471 20c-247 0-336-169-336-415v-687h281v607c4 148 31 285 172 285 152 0 207-150 207-312v-580h281c4 359-9 736 8 1082H816c-7-63-11-146-12-215h-5C736-76 644 20 471 20" id="O"/><g id="h"><use transform="matrix(0.01193576388888889,0,0,0.01193576388888889,0,0)" xlink:href="#w"/><use transform="matrix(0.01193576388888889,0,0,0.01193576388888889,14.669053819444446,0)" xlink:href="#O"/></g><g id="i"><use transform="matrix(0.01193576388888889,0,0,0.01193576388888889,0,0)" xlink:href="#m"/><use transform="matrix(0.01193576388888889,0,0,0.01193576388888889,14.669053819444446,0)" xlink:href="#u"/><use transform="matrix(0.01193576388888889,0,0,0.01193576388888889,29.338107638888893,0)" xlink:href="#o"/><use transform="matrix(0.01193576388888889,0,0,0.01193576388888889,44.00716145833334,0)" xlink:href="#n"/><use transform="matrix(0.01193576388888889,0,0,0.01193576388888889,58.676215277777786,0)" xlink:href="#p"/></g><path d="M1108-33c-3 314-178 467-492 467-243 0-400-94-447-291l281-33c17 79 82 141 174 141 176 0 212-155 205-347-2-40 5-80 0-115C773-85 665-12 501-12c-288 0-377-242-377-538 0-242 65-426 223-510 50-26 108-39 175-39 160 0 253 78 307 191h5c1-58 5-125 14-174h266c-12 335-3 703-6 1049zM811-384c25-82 27-259 1-342-30-99-77-180-190-180-172 0-205 171-205 356 0 116 18 202 54 258 48 76 129 107 221 70 62-25 96-86 119-162" id="P"/><g id="j"><use transform="matrix(0.0087890625,0,0,0.0087890625,0,0)" xlink:href="#B"/><use transform="matrix(0.0087890625,0,0,0.0087890625,10.8017578125,0)" xlink:href="#w"/><use transform="matrix(0.0087890625,0,0,0.0087890625,21.603515625,0)" xlink:href="#r"/><use transform="matrix(0.0087890625,0,0,0.0087890625,32.4052734375,0)" xlink:href="#D"/><use transform="matrix(0.0087890625,0,0,0.0087890625,43.20703125,0)" xlink:href="#P"/><use transform="matrix(0.0087890625,0,0,0.0087890625,54.0087890625,0)" xlink:href="#u"/><use transform="matrix(0.0087890625,0,0,0.0087890625,64.810546875,0)" xlink:href="#w"/></g><path d="M800 425c-1-198 1-404 0-596C746-55 645 20 483 20 183 20 97-237 97-543c0-242 74-429 227-518 49-28 105-42 168-42 163 0 248 85 306 197h4c1-59 6-126 15-176h272c-4 67-9 153-8 236V425H800zm-66-671c93-114 91-467-2-586-35-45-76-79-141-79-64 0-113 31-149 92-69 115-66 440 4 561 39 68 130 111 220 70 25-11 46-31 68-58" id="Q"/><g id="k"><use transform="matrix(0.0087890625,0,0,0.0087890625,0,0)" xlink:href="#n"/><use transform="matrix(0.0087890625,0,0,0.0087890625,10.8017578125,0)" xlink:href="#u"/><use transform="matrix(0.0087890625,0,0,0.0087890625,21.603515625,0)" xlink:href="#Q"/><use transform="matrix(0.0087890625,0,0,0.0087890625,32.4052734375,0)" xlink:href="#O"/><use transform="matrix(0.0087890625,0,0,0.0087890625,43.20703125,0)" xlink:href="#u"/><use transform="matrix(0.0087890625,0,0,0.0087890625,54.0087890625,0)" xlink:href="#v"/><use transform="matrix(0.0087890625,0,0,0.0087890625,64.810546875,0)" xlink:href="#s"/><use transform="matrix(0.0087890625,0,0,0.0087890625,75.6123046875,0)" xlink:href="#u"/><use transform="matrix(0.0087890625,0,0,0.0087890625,86.4140625,0)" xlink:href="#G"/></g><path d="M429-1484c1 190-1 388 0 572 54-116 155-191 317-191 300 0 386 257 386 563 0 241-73 429-226 518-49 28-106 42-169 42-162 0-251-81-306-196h-4c-1 59-5 127-15 176H140c4-67 9-153 8-236v-1248h281zm66 648c-93 114-92 466 1 585 35 45 77 79 142 79 64 0 112-31 148-92 69-115 68-440-2-561-39-68-131-111-221-70-25 11-46 32-68 59" id="R"/><path d="M794-190h353V0H118v-190h395v-1104H223v-190h571v1294" id="S"/><path d="M143 212c82 12 185 12 233-31 50-45 83-117 110-192L38-1082h297c100 284 211 557 291 861 72-305 176-578 270-861h294L742 57c-80 192-156 368-417 368-60 0-131-4-182-13V212" id="T"/><g id="l"><use transform="matrix(0.0087890625,0,0,0.0087890625,0,0)" xlink:href="#B"/><use transform="matrix(0.0087890625,0,0,0.0087890625,10.8017578125,0)" xlink:href="#E"/><use transform="matrix(0.0087890625,0,0,0.0087890625,21.603515625,0)" xlink:href="#D"/><use transform="matrix(0.0087890625,0,0,0.0087890625,32.4052734375,0)" xlink:href="#o"/><use transform="matrix(0.0087890625,0,0,0.0087890625,43.20703125,0)" xlink:href="#R"/><use transform="matrix(0.0087890625,0,0,0.0087890625,54.0087890625,0)" xlink:href="#r"/><use transform="matrix(0.0087890625,0,0,0.0087890625,64.810546875,0)" xlink:href="#R"/><use transform="matrix(0.0087890625,0,0,0.0087890625,75.6123046875,0)" xlink:href="#F"/><use transform="matrix(0.0087890625,0,0,0.0087890625,86.4140625,0)" xlink:href="#S"/><use transform="matrix(0.0087890625,0,0,0.0087890625,97.2158203125,0)" xlink:href="#F"/><use transform="matrix(0.0087890625,0,0,0.0087890625,108.017578125,0)" xlink:href="#w"/><use transform="matrix(0.0087890625,0,0,0.0087890625,118.8193359375,0)" xlink:href="#T"/><use transform="matrix(0.0087890625,0,0,0.0087890625,129.62109375,0)" xlink:href="#G"/></g></defs></g></svg>