<svg xmlns="http://www.w3.org/2000/svg" xmlns:xlink="http://www.w3.org/1999/xlink" xmlns:lucid="lucid" width="1230" height="608.03"><g transform="translate(-410 -592.9709925912863)" lucid:page-tab-id="0_0"><path d="M1240 712.5c0-8.28 6.72-15 15-15h310c8.28 0 15 6.72 15 15V845c0 8.28-6.72 15-15 15h-310c-8.28 0-15-6.72-15-15z" stroke="#000" stroke-width="3" fill="#d1bcd2" fill-opacity=".41"/><path d="M430 800c0-8.28 6.72-15 15-15h310c8.28 0 15 6.72 15 15v185c0 8.28-6.72 15-15 15H445c-8.28 0-15-6.72-15-15z" stroke="#000" stroke-width="3" fill="#d1bcd2" fill-opacity=".17"/><path d="M442 822h320v160H442z" stroke="#666" stroke-width="3" fill="#fff" fill-opacity=".74"/><path d="M472.3 852.7h258.4v97.6H472.3z" fill="#fff" fill-opacity="0"/><path d="M524.14 914.08l-3.2 18.1H475.8l23.74-30.88-22.23-31h45.23v15.2h-1.8c-1.28-8.18-3.58-11.2-11.64-11.2h-19.37l17.56 23.67-20.34 26.28h25.07c6.78 0 8.96-4.12 10.3-10.17h1.8M544.97 903.06h38.57v-3.64h-38.57zM570.4 890.52h-11.82v-.64c3.17-.18 4.07-1.07 4.07-3.43v-19.22c0-1.46-.38-2.1-1.28-2.1-.43 0-1.16.2-1.93.5l-1.16.44v-.6l7.67-3.9.38.13v25.56c0 1.85.86 2.62 4.07 2.62v.64M559.9 923.2c0 1.2-.98 2.17-2.1 2.17-1.23 0-2.05-.9-2.05-2.27 0-1.33.86-2.27 2-2.27 1.17 0 2.15 1.12 2.15 2.36m-1.8 20.75l.56.47c-2.35 3.6-3.72 4.88-5.86 4.88-1.42 0-2.1-.77-2.1-2.35 0-.86.3-2.36.94-4.75l2.06-7.58c.2-.77.38-1.54.38-1.9 0-.84-.43-.97-2.74-1v-.7c1.67-.13 2.53-.25 6.85-1.07l.16.13-4.02 14.7c-.22.7-.43 1.27-.43 1.87 0 .43.27.64.6.64.74 0 1.77-.9 3.6-3.35M574.85 928.34l-1.64 4.14H561.4v-.36l5.4-5.72c2.83-3 3.92-5.3 3.92-7.87 0-2.76-1.63-4.27-4.2-4.27-2.2 0-3.25.97-4.46 3.94l-.63-.16c.64-3.54 2.58-6.02 6.3-6.02 3.43 0 5.6 2.33 5.6 5.33 0 2.4-1.17 4.66-3.87 7.5l-5 5.33h7.1c1.26 0 1.9-.33 2.9-2.02M646.27 897H610.6v-4h35.67v4m0 12.1H610.6v-3.98h35.67v4M673.27 903.06h50.08v-3.64h-50.08zM699.86 871.4l-.9 3.18h-4.37c-.6 2.14-2.88 9.5-2.88 10.36 0 1 .43 1.8 1.33 1.8.85 0 2-.3 3.04-2.6h.67c-.64 2.64-2.65 6.07-5.86 6.07-1.83 0-2.52-1.53-2.52-3.2 0-1 .43-2.62.73-3.43l3.26-9h-4.45c-1.92 5.23-3.03 12.68-6.5 15.42-.47.34-1.07.5-1.54.5-1.1 0-2.14-.85-2.14-1.88 0-.64.2-1.8 1.28-2.1 1.8-.47 2.66-1.88 3.1-3l3.5-8.94h-.26c-2.23 0-3.38.04-5.27 2.35h-.68c2.3-3.9 4.53-5.52 8.85-5.52h11.6M714.63 870.06L713 874.2h-11.84v-.36l5.4-5.72c2.83-3 3.92-5.3 3.92-7.87 0-2.76-1.63-4.27-4.2-4.27-2.2 0-3.25.97-4.46 3.94l-.63-.16c.62-3.54 2.56-6.02 6.28-6.02 3.43 0 5.6 2.33 5.6 5.33 0 2.4-1.18 4.66-3.87 7.5l-5 5.33h7.1c1.27 0 1.9-.33 2.9-2.02M706.67 912l.1.7c-6.74 1.1-11.53 5.73-12.7 12.2 2.1-1.63 3.57-1.93 5.45-1.93 5 0 8.1 3.43 8.1 8.95 0 2.74-.78 5.14-2.2 6.85-1.58 1.97-3.97 3.13-6.8 3.13-3.38 0-6.08-1.6-7.58-4.33-1.2-2.18-2-5.22-2-8.22 0-4.62 1.62-8.7 4.66-11.82 3.68-3.85 7.06-4.88 12.97-5.52m-2.9 21.25c0-5.48-1.8-8.3-5.8-8.3-2.43 0-4.96 1.02-4.96 4.96 0 6.52 2.07 10.8 6.1 10.8 3.07 0 4.66-3.08 4.66-7.45"/><path d="M440.5 860.33h323" stroke="#ccc" fill="none"/><path fill="#ccc"/><path fill="#ccc"/><path d="M682 821v162" stroke="#ccc" fill="none"/><path fill="#ccc"/><path fill="#ccc"/><path d="M642 820.5v163" stroke="#ccc" fill="none"/><path fill="#ccc"/><path fill="#ccc"/><path d="M723 820.5v163" stroke="#ccc" fill="none"/><path fill="#ccc"/><path fill="#ccc"/><path d="M430 787.46h148V822H430z" stroke="#000" stroke-opacity="0" fill="#fff" fill-opacity="0"/><use xlink:href="#a" transform="matrix(1,0,0,1,435,792.4615384615385) translate(8.323459201388879 17.16362847222222)"/><use xlink:href="#b" transform="matrix(1,0,0,1,435,792.4615384615385) translate(73.66742621527777 17.16362847222222)"/><path d="M655 980.5c0-8.28 6.72-15 15-15h310c8.28 0 15 6.72 15 15v185c0 8.28-6.72 15-15 15H670c-8.28 0-15-6.72-15-15z" stroke="#000" stroke-width="3" fill="#d1bcd2" fill-opacity=".41"/><path d="M759.18 1060.12L520.9 914.15" fill="none"/><path d="M759.18 1060.12l-1.28-.78m-1.7-1.04l-2.56-1.56m-1.7-1.05l-2.55-1.57m-1.7-1.04l-2.56-1.58m-1.7-1.04l-2.56-1.56m-1.7-1.05l-2.55-1.56m-1.7-1.03l-2.56-1.57m-1.7-1.04l-2.55-1.56m-1.7-1.05l-2.56-1.56m-1.7-1.05l-2.55-1.57m-1.7-1.04l-2.55-1.56m-1.7-1.05l-2.55-1.56m-1.7-1.04l-2.56-1.57m-1.7-1.04l-2.55-1.56m-1.72-1.05l-2.55-1.55m-1.7-1.04l-2.55-1.56m-1.7-1.04l-2.56-1.56m-1.7-1.05l-2.55-1.57m-1.7-1.04l-2.56-1.58m-1.7-1.04l-2.54-1.56m-1.7-1.05l-2.56-1.56m-1.7-1.03l-2.55-1.57m-1.7-1.04l-2.56-1.56m-1.7-1.05l-2.56-1.56m-1.7-1.05l-2.56-1.57m-1.7-1.04l-2.55-1.56m-1.7-1.05l-2.56-1.56m-1.7-1.04l-2.55-1.57m-1.7-1.04l-2.56-1.56m-1.7-1.05l-2.55-1.55m-1.7-1.04l-2.55-1.56m-1.7-1.04l-2.55-1.56m-1.7-1.05l-2.56-1.57m-1.7-1.04l-2.55-1.58m-1.7-1.04l-2.57-1.56m-1.7-1.05l-2.55-1.56m-1.7-1.03l-2.56-1.57m-1.7-1.04l-2.55-1.56m-1.7-1.05l-2.56-1.56m-1.7-1.05l-2.54-1.57m-1.7-1.04l-2.56-1.56m-1.7-1.04l-2.55-1.57m-1.7-1.04l-2.56-1.57m-1.7-1.04l-2.56-1.56m-1.7-1.04l-2.56-1.57m-1.7-1.04l-2.55-1.56m-1.7-1.04l-2.56-1.56m-1.7-1.04l-2.55-1.57m-1.7-1.04l-2.56-1.58m-1.7-1.04l-2.55-1.56m-1.7-1.04l-2.55-1.57m-1.7-1.03l-2.55-1.57m-1.7-1.04l-2.56-1.56m-1.7-1.04l-2.55-1.57m-1.7-1.05l-2.57-1.56m-1.7-1.06l-2.55-1.56m-1.7-1.04l-1.28-.8" stroke="#000" fill="none"/><path/><path d="M521.16 913.73l-.52.85-2.56-1.57h1.9z"/><path d="M672.04 980.23h253.33v135.4H672.04z" stroke="#000" stroke-width="3" fill="#fff" fill-opacity=".85"/><path d="M685.37 992.54H938.7v135.38H685.38z" stroke="#000" stroke-width="3" fill="#fff" fill-opacity=".62"/><path d="M698.7 1004.85h253.34v135.38H698.7z" stroke="#000" stroke-width="3" fill="#fff" fill-opacity=".5"/><path d="M739.04 1039.23h20v21h-20z" stroke="#000" stroke-width="3" fill="#834187" fill-opacity=".2"/><path d="M602 822v161.1" stroke="#ccc" fill="none"/><path fill="#ccc"/><path fill="#ccc"/><path d="M442 902h321.2" stroke="#ccc" fill="none"/><path fill="#ccc"/><path fill="#ccc"/><path d="M522 820.9v162.2" stroke="#ccc" fill="none"/><path fill="#ccc"/><path fill="#ccc"/><path d="M440.5 943h323" stroke="#ccc" fill="none"/><path fill="#ccc"/><path fill="#ccc"/><path d="M482 821v162" stroke="#ccc" fill="none"/><path fill="#ccc"/><path fill="#ccc"/><path d="M561 820.5v163" stroke="#ccc" fill="none"/><path fill="#ccc"/><path fill="#ccc"/><path d="M460 853h60v60h-60z" stroke="#000" stroke-width="2" fill="#834187" fill-opacity=".34"/><path d="M461.2 853.87l277.84 188.05" fill="none"/><path d="M461.2 853.87l1.24.84m1.66 1.13l2.5 1.68m1.65 1.14l2.5 1.68m1.65 1.12l2.48 1.7m1.66 1.1l2.5 1.7m1.65 1.12l2.48 1.68m1.66 1.12l2.5 1.7m1.64 1.1l2.5 1.7m1.65 1.12l2.5 1.68m1.65 1.12l2.5 1.7m1.64 1.1l2.5 1.7m1.65 1.12l2.5 1.68m1.65 1.12l2.5 1.7m1.65 1.1l2.48 1.7m1.66 1.12l2.5 1.68m1.66 1.13l2.5 1.68m1.65 1.13l2.5 1.7m1.65 1.1l2.5 1.7m1.65 1.12l2.5 1.68m1.65 1.12l2.48 1.7m1.66 1.1l2.48 1.7m1.66 1.12l2.5 1.68m1.65 1.12l2.48 1.7m1.65 1.1l2.5 1.7m1.65 1.12l2.5 1.67m1.65 1.12l2.5 1.68m1.64 1.12l2.5 1.68m1.65 1.13l2.5 1.7m1.65 1.1l2.5 1.7m1.65 1.12l2.48 1.68m1.66 1.13l2.5 1.68m1.65 1.13l2.5 1.7m1.66 1.1l2.48 1.7m1.66 1.12l2.5 1.68m1.65 1.12l2.5 1.7m1.65 1.1l2.48 1.7m1.66 1.12l2.5 1.68m1.65 1.12l2.48 1.7m1.66 1.1l2.48 1.7m1.66 1.12l2.5 1.67m1.65 1.12l2.5 1.68m1.65 1.12l2.5 1.7m1.64 1.1l2.5 1.7m1.65 1.12l2.5 1.68m1.65 1.12l2.5 1.7m1.64 1.1l2.5 1.7m1.65 1.12l2.5 1.68m1.66 1.12l2.5 1.7m1.65 1.1l2.5 1.7m1.65 1.12l2.5 1.68m1.65 1.12l2.5 1.7m1.65 1.1l2.48 1.7m1.66 1.12l2.48 1.68m1.66 1.12l2.5 1.7m1.65 1.1l2.47 1.7m1.66 1.12l2.5 1.68m1.65 1.12l2.5 1.7m1.65 1.1l2.5 1.7m1.64 1.12l2.5 1.68m1.65 1.12l2.5 1.7m1.65 1.1l2.5 1.7m1.64 1.12l2.5 1.68m1.66 1.12l2.5 1.7m1.65 1.1l2.5 1.7m1.66 1.12l2.48 1.68m1.66 1.12l2.5 1.7m1.65 1.1l2.5 1.7m1.65 1.12l1.24.84M461.2 853.87l-2.48-1.7" stroke="#000" fill="none"/><path d="M739.04 1042.52l-.28-.2.28-.4z"/><path d="M758.56 1038.83L520.9 852.8" fill="none"/><path d="M758.56 1038.83l-1.2-.93m-1.57-1.24l-2.4-1.86m-1.57-1.24l-2.38-1.86m-1.58-1.24l-2.38-1.86m-1.6-1.24l-2.37-1.86m-1.6-1.24l-2.36-1.86m-1.6-1.24l-2.36-1.87m-1.58-1.25l-2.38-1.86m-1.58-1.25l-2.38-1.86m-1.58-1.25l-2.38-1.86m-1.58-1.25l-2.38-1.86m-1.58-1.25l-2.38-1.86m-1.58-1.25l-2.38-1.86m-1.58-1.25l-2.38-1.86m-1.6-1.25l-2.36-1.86m-1.6-1.25l-2.36-1.86m-1.6-1.25L694 988.3m-1.6-1.25l-2.37-1.86m-1.58-1.25l-2.38-1.86m-1.58-1.25l-2.4-1.86m-1.57-1.25l-2.38-1.86m-1.58-1.25l-2.38-1.86m-1.6-1.25l-2.37-1.86m-1.58-1.25l-2.38-1.86m-1.6-1.25l-2.36-1.86m-1.58-1.25l-2.37-1.86m-1.6-1.25l-2.36-1.86m-1.6-1.25l-2.38-1.86m-1.58-1.25l-2.38-1.86m-1.58-1.25L642.5 948m-1.58-1.25l-2.38-1.86m-1.58-1.25l-2.38-1.86m-1.58-1.25l-2.38-1.86m-1.58-1.25l-2.38-1.86m-1.6-1.25l-2.36-1.86m-1.6-1.25l-2.36-1.86m-1.6-1.25l-2.36-1.86m-1.6-1.25l-2.37-1.87m-1.57-1.24l-2.38-1.86m-1.58-1.24l-2.38-1.86m-1.6-1.24l-2.37-1.86m-1.58-1.24l-2.38-1.86m-1.58-1.24l-2.4-1.86m-1.57-1.24l-2.38-1.86m-1.6-1.24l-2.36-1.86m-1.6-1.24l-2.37-1.86m-1.6-1.24l-2.36-1.86m-1.6-1.24l-2.37-1.86m-1.58-1.24l-2.38-1.86m-1.58-1.24l-2.38-1.86m-1.58-1.24l-2.38-1.86m-1.58-1.24l-2.38-1.86m-1.58-1.24l-2.38-1.86m-1.58-1.24l-2.38-1.86m-1.6-1.24l-2.36-1.86m-1.6-1.24l-2.36-1.86m-1.6-1.24l-2.36-1.86m-1.6-1.24l-2.37-1.86m-1.6-1.24l-2.37-1.86m-1.58-1.24l-2.38-1.86m-1.58-1.24l-1.2-.93" stroke="#000" fill="none"/><path d="M761.23 1040.28l-.62.8-1.56-1.24v-.6h-.78v-.02l.6-.8zM521.2 852.4l-.6.8-2.37-1.85.62-.8z"/><path d="M738.74 1059.9l-277.3-145.75" fill="none"/><path d="M738.74 1059.9l-1.32-.7m-1.76-.9l-2.64-1.4m-1.76-.93l-2.64-1.38m-1.76-.94l-2.65-1.4m-1.75-.9l-2.64-1.4m-1.75-.93l-2.64-1.38m-1.75-.93l-2.64-1.4m-1.75-.9l-2.64-1.4m-1.75-.93l-2.64-1.4m-1.75-.92l-2.64-1.4m-1.76-.9l-2.64-1.4m-1.76-.93l-2.64-1.4m-1.76-.9l-2.64-1.4m-1.76-.92l-2.64-1.4m-1.76-.92l-2.64-1.38m-1.76-.92l-2.64-1.4m-1.76-.92l-2.65-1.38m-1.77-.93l-2.64-1.4m-1.77-.9l-2.64-1.4m-1.77-.93l-2.64-1.38m-1.77-.93l-2.64-1.4m-1.77-.9l-2.64-1.4m-1.77-.93l-2.65-1.38m-1.76-.93l-2.64-1.4m-1.76-.92l-2.64-1.4m-1.76-.92l-2.64-1.4m-1.76-.9l-2.64-1.4m-1.76-.92l-2.64-1.4m-1.76-.92l-2.64-1.4m-1.77-.9l-2.63-1.4m-1.76-.92l-2.63-1.4m-1.76-.92l-2.63-1.4m-1.76-.9l-2.63-1.4m-1.76-.93l-2.63-1.38m-1.76-.93l-2.63-1.4m-1.77-.9l-2.64-1.4m-1.76-.93l-2.64-1.37m-1.76-.93l-2.64-1.4m-1.76-.9l-2.64-1.4m-1.76-.93l-2.64-1.38m-1.76-.94l-2.64-1.4m-1.76-.9l-2.65-1.4m-1.76-.93l-2.65-1.4m-1.76-.9l-2.65-1.4m-1.76-.92l-2.65-1.38m-1.76-.93l-2.65-1.4m-1.76-.92l-2.65-1.4m-1.76-.92l-2.66-1.38m-1.76-.93l-2.64-1.4m-1.76-.9l-2.64-1.4m-1.76-.93l-2.64-1.38m-1.76-.93l-2.64-1.38m-1.76-.92l-2.64-1.4m-1.76-.92l-2.64-1.38m-1.77-.93l-2.64-1.4m-1.76-.9l-2.64-1.4m-1.76-.93l-2.64-1.4m-1.76-.9l-2.64-1.4m-1.76-.92l-2.64-1.4m-1.76-.92l-2.64-1.4m-1.76-.9l-2.65-1.4m-1.76-.92l-2.64-1.4m-1.76-.92l-2.64-1.4m-1.76-.9l-1.32-.7" stroke="#000" fill="none"/><path d="M739.04 1059.5v.73h1.4l1.2.63-.48.9-2.65-1.4.47-.9zM460 912.83v.17h.32l1.35.7-.46.9-2.65-1.4.47-.88z"/><path d="M847 1138.46h148V1181H847z" stroke="#000" stroke-opacity="0" fill="#fff" fill-opacity="0"/><use xlink:href="#c" transform="matrix(1,0,0,1,852,1143.4615384615386) translate(3.6560329861111 21.16362847222222)"/><use xlink:href="#d" transform="matrix(1,0,0,1,852,1143.4615384615386) translate(87.66970486111111 21.16362847222222)"/><path d="M1060 1073c0-11.05 8.95-20 20-20h180c11.05 0 20 8.95 20 20s-8.95 20-20 20h-180c-11.05 0-20-8.95-20-20z" stroke="#000" stroke-width="3" fill="#d1bcd2"/><use xlink:href="#e" transform="matrix(1,0,0,1,1060,1053) translate(12.7841796875 25.396484375)"/><use xlink:href="#f" transform="matrix(1,0,0,1,1060,1053) translate(66.79296875 25.396484375)"/><use xlink:href="#g" transform="matrix(1,0,0,1,1060,1053) translate(88.396484375 25.396484375)"/><path d="M995 1073h63.5" stroke="#000" stroke-width="3" fill="none"/><path/><path d="M1058.5 1073l-14.27 4.64v-9.28z"/><path d="M1060.13 1071.95l-.13 1.05.04 1.08-17.3 5.62v-13.4zm-14.4 3.62l7.9-2.57-7.9-2.57z"/><path d="M1280 1073l2.62-5.9 2.2-5.62 1.86-5.36 1.53-5.13 1.27-4.94 1-4.76.77-4.6.55-4.5.35-4.35.17-4.27v-4.18l-.2-4.12-.35-4.07-.5-4-.7-4-.85-3.98-1.03-3.97-1.22-3.97-1.4-3.98-1.6-4-1.8-4.06-2.06-4.1-2.3-4.14-2.56-4.2-2.87-4.3-3.2-4.4-3.58-4.48-4-4.6-4.44-4.7-4.98-4.85-5.56-4.98-6.23-5.14-6.97-5.27-7.83-5.42-8.78-5.54-9.84-5.64-11.02-5.72-12.3-5.75-13.64-5.7-15.06-5.55-16.44-5.3-17.73-4.9-18.8-4.35-19.6-3.7-19.96-2.9-19.9-2.03-19.4-1.18-18.54-.34-17.4.4-16.07 1.04-14.7 1.58-13.32 2-12 2.3-10.76 2.56-9.66 2.72-8.65 2.83-7.76 2.9-6.96 2.96-6.26 2.96-5.65 2.97-5.1 2.95-4.63 2.95-4.2 2.93-3.82 2.9-3.48 2.9-3.18 2.88-2.92 2.87-2.67 2.86-2.44 2.85-2.25 2.85-2.05 2.85-1.9 2.86-1.73 2.88-1.6 2.9-1.44 2.95-1.3 2.97-1.2 3.02-1.06 3.08-.94 3.14-.82 3.22-.7 3.3-.56 3.4-.44 3.53-.3 3.64-.14 3.8-.02 1.73" fill="none"/><path d="M1280 1073l1.82-4.12m2.27-5.54l.72-1.86 1.86-5.36.38-1.27m1.64-5.76l.77-3.04 1-4.76.16-.98m.9-5.93l.26-2.2.35-4.35.1-2.4m.06-6v-.05l-.17-4.12-.36-4.07-.1-.72m-.87-5.93l-.23-1.35-.85-3.98-.9-3.43m-1.77-5.73l-.97-2.77-1.6-4-.7-1.6m-2.6-5.4l-.56-1.15-2.3-4.15-1.54-2.54m-3.26-5.02l-.63-.95-3.2-4.4-1.52-1.9m-3.82-4.6l-2.23-2.57-3.84-4.07m-4.28-4.2l-1.32-1.3-5.32-4.76m-4.62-3.82l-1.85-1.52-5.25-3.97m-4.88-3.5l-4.67-3.22-2.8-1.77m-5.07-3.18l-.9-.58-6.87-3.93m-5.25-2.88l-7.97-4.15m-5.4-2.57l-7.66-3.57-.5-.2m-5.54-2.32l-7.6-3.16-.7-.26m-5.63-2.07l-8.43-3.1m-5.7-1.85l-8.56-2.76m-5.73-1.7l-8.67-2.4m-5.77-1.6h-.04l-8.73-2.03m-5.84-1.36l-4.24-.97-4.56-.86m-5.9-1.1l-8.83-1.67m-5.92-.87l-8.9-1.3m-5.93-.84l-8.94-.93m-5.95-.6l-4.5-.47-4.46-.27m-6-.36l-8.96-.55m-6-.1l-8.98-.18m-6 0l-8.98.2m-6 .14l-8.96.58m-5.98.4l-1.1.06-7.84.84m-5.96.64l-.9.1-8 1.2m-5.92.9l-8.83 1.7m-5.86 1.28l-7.5 1.78-1.24.35m-5.76 1.63l-2.66.75-5.92 1.93m-5.65 2l-4.83 1.8-3.52 1.5m-5.48 2.42l-4.23 2-3.82 2m-5.23 2.94l-1.7 1-4.63 2.94-1.26.88m-4.85 3.5l-1.9 1.46-3.48 2.9-1.54 1.38m-4.33 4.14l-.22.2-2.67 2.87-2.44 2.85-.63.8m-3.6 4.78l-.08.12-1.9 2.86-1.73 2.88-.98 1.8M831.9 932l-.73 1.64-1.2 3.02-1.05 3.08-.2.66m-1.58 5.78l-.67 3.22-.57 3.4-.28 2.24m-.5 5.97l-.1 2.77-.02 1.73" stroke="#000" stroke-width="3" fill="none"/><path d="M1281.4 1073.56l-1.14 2.78-.64-.27.38-3.07zM830.83 951.68L825 965.5l-3.4-14.6z"/><path d="M833 950.36l-6.37 15.14h-3.17l-3.8-16.28zm-7.6 10.3l3.24-7.66-5.12-.44z"/><path d="M880 882h260v40H880z" stroke="#000" stroke-opacity="0" fill="#fff" fill-opacity="0"/><use xlink:href="#h" transform="matrix(1,0,0,1,885,887) translate(96.99544270833333 12.441406250000002)"/><use xlink:href="#i" transform="matrix(1,0,0,1,885,887) translate(17.649197048611086 27.996961805555557)"/><use xlink:href="#j" transform="matrix(1,0,0,1,885,887) translate(148.33713107638889 27.996961805555557)"/><path d="M1360 978.5c0-10.22 8.28-18.5 18.5-18.5h63c10.22 0 18.5 8.28 18.5 18.5s-8.28 18.5-18.5 18.5h-63c-10.22 0-18.5-8.28-18.5-18.5z" stroke="#000" stroke-width="3" fill="#d1bcd2"/><use xlink:href="#k" transform="matrix(1,0,0,1,1360,960) translate(12.19384765625 23.896484375)"/><path d="M1280 1073l13.9-.3 12.55-.77 11.16-1.17 9.86-1.45 8.65-1.64 7.62-1.78 6.7-1.87 5.95-1.92 5.28-1.96 4.7-1.98 4.23-1.98 3.8-1.98 3.43-1.98 3.12-1.98 2.83-1.96 2.58-1.96 2.37-1.96 2.17-1.96 2-1.96 1.85-1.96 1.7-1.97 1.58-2 1.45-2 1.35-2.04 1.25-2.05 1.15-2.1 1.06-2.12.97-2.18.9-2.24.8-2.3.7-2.38.63-2.45.55-2.56.46-2.66.35-2.78.25-2.92.13-3.1.02-1.6" stroke="#000" stroke-width="3" fill="none"/><path d="M1280.04 1074.5h-.23l.2-1.5-.05-1.44v-.06h.02zM1413.1 1011.67l-9.2-.97 6.1-13.7z"/><path d="M1415 1013.38l-13.32-1.4 6.68-14.98h3.17zm-8.9-3.96l5.1.55-1.7-8.14z"/><path d="M1280 724c0-2.2-1.8-4-4-4h-12c-2.2 0-4 1.8-4 4v81c0 2.2 1.8 4 4 4h12c2.2 0 4-1.8 4-4z" stroke="#000" stroke-width="3" fill="#fff" fill-opacity=".6"/><path d="M1276.67 733.72c0 3.67-3 6.64-6.67 6.64-3.68 0-6.67-2.97-6.67-6.64 0-3.66 3-6.64 6.67-6.64 3.68 0 6.67 2.98 6.67 6.64z" stroke="#000" stroke-width="3"/><path d="M1276.67 753.65c0 3.67-3 6.64-6.67 6.64-3.68 0-6.67-2.98-6.67-6.65 0-3.67 3-6.64 6.67-6.64 3.68 0 6.67 2.98 6.67 6.65z" stroke="#000" stroke-width="3" fill="#ccc"/><path d="M1276.67 773.58c0 3.66-3 6.64-6.67 6.64-3.68 0-6.67-2.98-6.67-6.64 0-3.67 3-6.64 6.67-6.64 3.68 0 6.67 2.97 6.67 6.64z" stroke="#000" stroke-width="3" fill="#666"/><path d="M1276.67 793.5c0 3.67-3 6.64-6.67 6.64-3.68 0-6.67-2.97-6.67-6.63 0-3.66 3-6.64 6.67-6.64 3.68 0 6.67 2.98 6.67 6.65z" stroke="#000" stroke-width="3" fill="#fff"/><path d="M1320 724.94c0-2.17-1.8-3.94-4-3.94h-12c-2.2 0-4 1.77-4 3.94v80.12c0 2.17 1.8 3.94 4 3.94h12c2.2 0 4-1.77 4-3.94z" stroke="#000" stroke-width="3" fill="#fff" fill-opacity=".6"/><path d="M1316.67 734.57c0 3.63-3 6.56-6.67 6.56-3.68 0-6.67-2.93-6.67-6.56 0-3.63 3-6.57 6.67-6.57 3.68 0 6.67 2.94 6.67 6.57z" stroke="#000" stroke-width="3"/><path d="M1316.67 754.27c0 3.63-3 6.57-6.67 6.57-3.68 0-6.67-2.94-6.67-6.57 0-3.62 3-6.56 6.67-6.56 3.68 0 6.67 2.95 6.67 6.57z" stroke="#000" stroke-width="3" fill="#ccc"/><path d="M1316.67 773.98c0 3.62-3 6.56-6.67 6.56-3.68 0-6.67-2.94-6.67-6.56 0-3.63 3-6.57 6.67-6.57 3.68 0 6.67 2.95 6.67 6.58z" stroke="#000" stroke-width="3" fill="#666"/><path d="M1316.67 793.68c0 3.62-3 6.56-6.67 6.56-3.68 0-6.67-2.94-6.67-6.56 0-3.63 3-6.57 6.67-6.57 3.68 0 6.67 2.95 6.67 6.58z" stroke="#000" stroke-width="3" fill="#fff"/><path d="M1360 724c0-2.2-1.8-4-4-4h-12c-2.2 0-4 1.8-4 4v81c0 2.2 1.8 4 4 4h12c2.2 0 4-1.8 4-4z" stroke="#000" stroke-width="3" fill="#fff" fill-opacity=".6"/><path d="M1356.67 733.72c0 3.67-3 6.64-6.67 6.64-3.68 0-6.67-2.97-6.67-6.64 0-3.66 3-6.64 6.67-6.64 3.68 0 6.67 2.98 6.67 6.64z" stroke="#000" stroke-width="3"/><path d="M1356.67 753.65c0 3.67-3 6.64-6.67 6.64-3.68 0-6.67-2.98-6.67-6.65 0-3.67 3-6.64 6.67-6.64 3.68 0 6.67 2.98 6.67 6.65z" stroke="#000" stroke-width="3" fill="#ccc"/><path d="M1356.67 773.58c0 3.66-3 6.64-6.67 6.64-3.68 0-6.67-2.98-6.67-6.64 0-3.67 3-6.64 6.67-6.64 3.68 0 6.67 2.97 6.67 6.64z" stroke="#000" stroke-width="3" fill="#666"/><path d="M1356.67 793.5c0 3.67-3 6.64-6.67 6.64-3.68 0-6.67-2.97-6.67-6.63 0-3.66 3-6.64 6.67-6.64 3.68 0 6.67 2.98 6.67 6.65z" stroke="#000" stroke-width="3" fill="#fff"/><path d="M1400 724.94c0-2.17-1.8-3.94-4-3.94h-12c-2.2 0-4 1.77-4 3.94v80.12c0 2.17 1.8 3.94 4 3.94h12c2.2 0 4-1.77 4-3.94z" stroke="#000" stroke-width="3" fill="#fff" fill-opacity=".6"/><path d="M1396.67 734.57c0 3.63-3 6.56-6.67 6.56-3.68 0-6.67-2.93-6.67-6.56 0-3.63 3-6.57 6.67-6.57 3.68 0 6.67 2.94 6.67 6.57z" stroke="#000" stroke-width="3"/><path d="M1396.67 754.27c0 3.63-3 6.57-6.67 6.57-3.68 0-6.67-2.94-6.67-6.57 0-3.62 3-6.56 6.67-6.56 3.68 0 6.67 2.95 6.67 6.57z" stroke="#000" stroke-width="3" fill="#ccc"/><path d="M1396.67 773.98c0 3.62-3 6.56-6.67 6.56-3.68 0-6.67-2.94-6.67-6.56 0-3.63 3-6.57 6.67-6.57 3.68 0 6.67 2.95 6.67 6.58z" stroke="#000" stroke-width="3" fill="#666"/><path d="M1396.67 793.68c0 3.62-3 6.56-6.67 6.56-3.68 0-6.67-2.94-6.67-6.56 0-3.63 3-6.57 6.67-6.57 3.68 0 6.67 2.95 6.67 6.58z" stroke="#000" stroke-width="3" fill="#fff"/><path d="M1440 724c0-2.2-1.8-4-4-4h-12c-2.2 0-4 1.8-4 4v81c0 2.2 1.8 4 4 4h12c2.2 0 4-1.8 4-4z" stroke="#000" stroke-width="3" fill="#fff" fill-opacity=".6"/><path d="M1436.67 733.72c0 3.67-3 6.64-6.67 6.64-3.68 0-6.67-2.97-6.67-6.64 0-3.66 3-6.64 6.67-6.64 3.68 0 6.67 2.98 6.67 6.64z" stroke="#000" stroke-width="3"/><path d="M1436.67 753.65c0 3.67-3 6.64-6.67 6.64-3.68 0-6.67-2.98-6.67-6.65 0-3.67 3-6.64 6.67-6.64 3.68 0 6.67 2.98 6.67 6.65z" stroke="#000" stroke-width="3" fill="#ccc"/><path d="M1436.67 773.58c0 3.66-3 6.64-6.67 6.64-3.68 0-6.67-2.98-6.67-6.64 0-3.67 3-6.64 6.67-6.64 3.68 0 6.67 2.97 6.67 6.64z" stroke="#000" stroke-width="3" fill="#666"/><path d="M1436.67 793.5c0 3.67-3 6.64-6.67 6.64-3.68 0-6.67-2.97-6.67-6.63 0-3.66 3-6.64 6.67-6.64 3.68 0 6.67 2.98 6.67 6.65z" stroke="#000" stroke-width="3" fill="#fff"/><path d="M1480 724.94c0-2.17-1.8-3.94-4-3.94h-12c-2.2 0-4 1.77-4 3.94v80.12c0 2.17 1.8 3.94 4 3.94h12c2.2 0 4-1.77 4-3.94z" stroke="#000" stroke-width="3" fill="#fff" fill-opacity=".6"/><path d="M1476.67 734.57c0 3.63-3 6.56-6.67 6.56-3.68 0-6.67-2.93-6.67-6.56 0-3.63 3-6.57 6.67-6.57 3.68 0 6.67 2.94 6.67 6.57z" stroke="#000" stroke-width="3"/><path d="M1476.67 754.27c0 3.63-3 6.57-6.67 6.57-3.68 0-6.67-2.94-6.67-6.57 0-3.62 3-6.56 6.67-6.56 3.68 0 6.67 2.95 6.67 6.57z" stroke="#000" stroke-width="3" fill="#ccc"/><path d="M1476.67 773.98c0 3.62-3 6.56-6.67 6.56-3.68 0-6.67-2.94-6.67-6.56 0-3.63 3-6.57 6.67-6.57 3.68 0 6.67 2.95 6.67 6.58z" stroke="#000" stroke-width="3" fill="#666"/><path d="M1476.67 793.68c0 3.62-3 6.56-6.67 6.56-3.68 0-6.67-2.94-6.67-6.56 0-3.63 3-6.57 6.67-6.57 3.68 0 6.67 2.95 6.67 6.58z" stroke="#000" stroke-width="3" fill="#fff"/><path d="M1520 724c0-2.2-1.8-4-4-4h-12c-2.2 0-4 1.8-4 4v81c0 2.2 1.8 4 4 4h12c2.2 0 4-1.8 4-4z" stroke="#000" stroke-width="3" fill="#fff" fill-opacity=".6"/><path d="M1516.67 733.72c0 3.67-3 6.64-6.67 6.64-3.68 0-6.67-2.97-6.67-6.64 0-3.66 3-6.64 6.67-6.64 3.68 0 6.67 2.98 6.67 6.64z" stroke="#000" stroke-width="3"/><path d="M1516.67 753.65c0 3.67-3 6.64-6.67 6.64-3.68 0-6.67-2.98-6.67-6.65 0-3.67 3-6.64 6.67-6.64 3.68 0 6.67 2.98 6.67 6.65z" stroke="#000" stroke-width="3" fill="#ccc"/><path d="M1516.67 773.58c0 3.66-3 6.64-6.67 6.64-3.68 0-6.67-2.98-6.67-6.64 0-3.67 3-6.64 6.67-6.64 3.68 0 6.67 2.97 6.67 6.64z" stroke="#000" stroke-width="3" fill="#666"/><path d="M1516.67 793.5c0 3.67-3 6.64-6.67 6.64-3.68 0-6.67-2.97-6.67-6.63 0-3.66 3-6.64 6.67-6.64 3.68 0 6.67 2.98 6.67 6.65z" stroke="#000" stroke-width="3" fill="#fff"/><path d="M1560 724.94c0-2.17-1.8-3.94-4-3.94h-12c-2.2 0-4 1.77-4 3.94v80.12c0 2.17 1.8 3.94 4 3.94h12c2.2 0 4-1.77 4-3.94z" stroke="#000" stroke-width="3" fill="#fff" fill-opacity=".6"/><path d="M1556.67 734.57c0 3.63-3 6.56-6.67 6.56-3.68 0-6.67-2.93-6.67-6.56 0-3.63 3-6.57 6.67-6.57 3.68 0 6.67 2.94 6.67 6.57z" stroke="#000" stroke-width="3"/><path d="M1556.67 754.27c0 3.63-3 6.57-6.67 6.57-3.68 0-6.67-2.94-6.67-6.57 0-3.62 3-6.56 6.67-6.56 3.68 0 6.67 2.95 6.67 6.57z" stroke="#000" stroke-width="3" fill="#ccc"/><path d="M1556.67 773.98c0 3.62-3 6.56-6.67 6.56-3.68 0-6.67-2.94-6.67-6.56 0-3.63 3-6.57 6.67-6.57 3.68 0 6.67 2.95 6.67 6.58z" stroke="#000" stroke-width="3" fill="#666"/><path d="M1556.67 793.68c0 3.62-3 6.56-6.67 6.56-3.68 0-6.67-2.94-6.67-6.56 0-3.63 3-6.57 6.67-6.57 3.68 0 6.67 2.95 6.67 6.58z" stroke="#000" stroke-width="3" fill="#fff"/><path d="M699 822h60v60h-60z" stroke="#000" stroke-width="2" fill="#834187" fill-opacity=".1"/><path d="M639 822h60v60h-60z" stroke="#000" stroke-width="2" fill="#834187" fill-opacity=".12"/><path d="M669 822l85.53-58.6 60.14-37.57 47.44-26.92 39.75-20.37 34.57-15.94 30.88-12.7 28.17-10.23 26.1-8.25 24.5-6.64 23.3-5.26 22.37-4.08 21.67-3.02 21.17-2.05 20.85-1.14 20.68-.26 20.67.6 20.8 1.5 21.1 2.38 21.55 3.37 22.16 4.42 22.98 5.6 24.02 6.92 25.3 8.47 26.95 10.28L1410.6 665l31.48 15.15 34.7 18.53 33.9 19.84" fill="none"/><path d="M669 822l3.72-2.55m4.96-3.4l7.43-5.1m4.96-3.38l7.43-5.1m4.95-3.4l7.43-5.08m4.95-3.4l7.43-5.1m4.95-3.4l7.44-5.08m4.96-3.4l7.43-5.08m4.95-3.4l2.55-1.74 5.02-3.14m5.1-3.18l7.63-4.77m5.1-3.17l7.63-4.77m5.1-3.18l7.65-4.78m5.1-3.18l7.63-4.77m5.1-3.14l7.85-4.44m5.22-2.96l7.83-4.44m5.23-2.97l7.84-4.45m5.22-2.97l7.35-4.17.5-.24m5.35-2.74l8-4.1m5.36-2.75l8.02-4.12m5.34-2.74l7.2-3.67.83-.4m5.45-2.5l8.18-3.78m5.45-2.5l8.18-3.78m5.45-2.52l1.02-.46 7.3-3.02m5.56-2.28l8.33-3.43m5.56-2.28l4.14-1.7 4.26-1.56m5.65-2.04l8.47-3.08m5.65-2.05l4.15-1.5 4.38-1.4m5.72-1.8l8.6-2.7m5.7-1.82l1.7-.53 7-1.9m5.78-1.56l8.7-2.35m5.82-1.45l8.8-1.98m5.85-1.33l5.86-1.32 2.95-.54m5.9-1.08l8.87-1.6m5.9-1.04l8.93-1.24m5.95-.83l5.53-.78 3.42-.33m5.97-.6l8.96-.85m6-.45l8.98-.5m6-.32l2.68-.15 6.32-.08m6-.07l8.36-.1h.65m6 .2l9 .25m6 .22l9 .64m5.98.4l4.85.36 4.12.47m5.96.67l8.95 1.02m5.96.84l8.9 1.4m5.93.92l2.82.44 6.02 1.2m5.9 1.18l8.82 1.76m5.85 1.36l8.76 2.13m5.84 1.42l3.96.97 4.74 1.36m5.77 1.67l8.65 2.5m5.76 1.7l8.54 2.85m5.7 1.9l8.54 2.86m5.63 2.07l8.4 3.22m5.62 2.14l8.4 3.22m5.54 2.35l8.27 3.56m5.5 2.38l8.3 3.57m5.43 2.53l8.12 3.9m5.4 2.6l8.13 3.9m5.42 2.6l.86.43 7.1 3.8m5.3 2.82l7.94 4.24m5.3 2.82l7.95 4.24m5.2 3l7.77 4.54m5.2 3.04l7.76 4.55m5.18 3.02l3.9 2.28" stroke="#000" stroke-width="3" fill="none"/><path d="M669 822h-2.65l1.8-1.24zM1510.67 718.5l-14.66-3.2 4.7-8z"/><path d="M1514 720h-3.5l-16.82-3.7 6.77-11.55zm-15.65-5.73l8.13 1.78-5.53-6.22z"/><path d="M729 822l78.9-52 54.8-32.87 42.86-23.3 35.7-17.52 31-13.6 27.68-10.8 25.27-8.66 23.5-6.96 22.14-5.57 21.16-4.37 20.44-3.35 19.97-2.4 19.7-1.56 19.6-.7 19.68.1 19.95.94 20.4 1.83 21.08 2.77 22 3.84 23.16 5.07 24.7 6.5 26.72 8.23 29.3 10.4 32.7 13.17 37.34 16.88L1472 719.5" fill="none"/><path d="M729 822l3.8-2.5m5.04-3.32l7.56-5m5.05-3.32l7.57-4.98m5.04-3.33l7.57-5m5.04-3.3l7.57-5m5.04-3.32l7.57-5m5.05-3.3l7-4.64.58-.35m5.18-3.1l7.77-4.67m5.18-3.1l7.78-4.67m5.2-3.1l7.76-4.65m5.18-3.1l7.77-4.67m5.24-3l7.96-4.32m5.3-2.9l7.97-4.32m5.3-2.88l7.97-4.33m5.3-2.9l.22-.1 7.92-3.9m5.43-2.65l8.14-4m5.43-2.65l8.13-4m5.52-2.45l8.3-3.65m5.53-2.43l8.3-3.64m5.56-2.37l8.45-3.3m5.63-2.2l8.44-3.3m5.66-2.1l8.57-2.94m5.72-1.96l8.57-2.94m5.8-1.73l8.68-2.57m5.8-1.72l3.57-1.06 5.16-1.3m5.86-1.47l8.8-2.2m5.88-1.32l8.88-1.84m5.9-1.23l2.82-.57 6.12-1m5.96-.98l8.36-1.37.6-.07m5.98-.7l9-1.1m6-.66l9.04-.7m6.02-.48l3.02-.24 6.03-.22m6.04-.22l7.52-.27h1.53m6.04.05l9.06.05m6.04.16l9.05.42m6.04.3l1.87.08 7.16.64m6 .54l7.23.65 1.8.22m6 .8l8.97 1.18m5.98.86l8.93 1.56m5.96 1.04l5.43.95 3.46.77m5.9 1.3l8.85 1.92m5.9 1.32l8.77 2.3m5.85 1.54l8.76 2.3m5.78 1.77l8.66 2.67m5.77 1.78l6.88 2.12 1.75.62m5.7 2.02l8.54 3.03m5.7 2.02l7.6 2.7.92.36m5.6 2.25l8.4 3.4m5.6 2.26l8.4 3.38m5.58 2.33l8.26 3.74m5.5 2.5l8.26 3.74m5.5 2.5l8.02 3.6.24.13m5.42 2.67l8.13 4m5.43 2.66l4.07 2" stroke="#000" stroke-width="3" fill="none"/><path d="M729 822h-2.73l1.9-1.26zM1472 719.5l-14.85-2.14 4.1-8.3z"/><path d="M1475.7 721h-3.8l-17-2.44 5.9-12.03zm-16.3-4.83l8.24 1.2-5.96-5.8z"/><path d="M1220 816.55h400v45.3h-400z" stroke="#000" stroke-opacity="0" fill="#fff" fill-opacity="0"/><use xlink:href="#l" transform="matrix(1,0,0,1,1225,821.5512820512826) translate(64.3120659722222 22.66362847222222)"/><use xlink:href="#m" transform="matrix(1,0,0,1,1225,821.5512820512826) translate(110.98632812499999 22.66362847222222)"/><use xlink:href="#n" transform="matrix(1,0,0,1,1225,821.5512820512826) translate(176.33029513888889 22.66362847222222)"/><use xlink:href="#o" transform="matrix(1,0,0,1,1225,821.5512820512826) translate(213.66970486111111 22.66362847222222)"/><use xlink:href="#p" transform="matrix(1,0,0,1,1225,821.5512820512826) translate(260.3439670138889 22.66362847222222)"/><path d="M1410 960V860" stroke="#000" stroke-width="3" fill="none"/><path d="M1411.5 960h-3 3zM1414.64 874.27h-9.28L1410 860z"/><path d="M1416.7 875.77h-13.4l5.12-15.77h3.16zm-9.27-3h5.14l-2.57-7.92z"/><path d="M1020 640h260v40h-260z" stroke="#000" stroke-opacity="0" fill="#fff" fill-opacity="0"/><g><use xlink:href="#q" transform="matrix(1,0,0,1,1025,645) translate(59.6560329861111 20.16362847222222)"/></g><defs><path d="M621-530c0 421 127 700 301 955H641C466 173 344-110 344-531s122-702 297-953h281c-174 254-301 534-301 954" id="r"/><path d="M794-190h353V0H118v-190h395v-702H223v-190h571v892zM513-1277v-207h281v207H513" id="s"/><path d="M768-1103c247 0 336 167 336 416V0H824v-619c-3-164-24-273-171-273-164 0-229 142-229 312V0H143c-4-359 9-736-8-1082h268c7 63 12 146 13 215h4c67-145 160-236 348-236" id="t"/><path d="M427-171c3 195 2 397 2 596H148V-846c1-83-4-168-8-236h272c10 49 14 118 15 176h4c59-114 151-197 316-197 291 0 385 259 385 560 0 243-65 433-220 521-50 28-109 42-176 42-162-2-253-78-309-191zm69-661c-91 113-92 463-1 586 46 62 145 101 225 54 96-57 118-191 119-351 0-123-18-215-53-276-46-82-128-115-220-74-25 12-48 33-70 61" id="u"/><path d="M471 20c-247 0-336-169-336-415v-687h281v607c4 148 31 285 172 285 152 0 207-150 207-312v-580h281c4 359-9 736 8 1082H816c-7-63-11-146-12-215h-5C736-76 644 20 471 20" id="v"/><path d="M711 13c-250 0-386-99-385-349l2-556H161v-190h181l88-282h176v282h385v190H606v530c-10 130 45 186 174 184 91-2 176-11 255-27v186C933-1 833 13 711 13" id="w"/><g id="a"><use transform="matrix(0.007595486111111112,0,0,0.007595486111111112,0,0)" xlink:href="#r"/><use transform="matrix(0.007595486111111112,0,0,0.007595486111111112,9.334852430555557,0)" xlink:href="#s"/><use transform="matrix(0.007595486111111112,0,0,0.007595486111111112,18.669704861111114,0)" xlink:href="#t"/><use transform="matrix(0.007595486111111112,0,0,0.007595486111111112,28.00455729166667,0)" xlink:href="#u"/><use transform="matrix(0.007595486111111112,0,0,0.007595486111111112,37.33940972222223,0)" xlink:href="#v"/><use transform="matrix(0.007595486111111112,0,0,0.007595486111111112,46.674262152777786,0)" xlink:href="#w"/></g><path d="M934-1102c199 0 220 177 220 381V0H926c-2-260 10-533-4-785-4-72-14-138-83-138-34 0-61 27-81 81s-29 134-29 241V0H501c-2-260 9-533-5-785-4-72-13-138-82-138-46 0-65 47-80 93-21 67-30 155-30 248V0H75c-3-360 6-732-6-1082h209c6 50 3 123 8 175 36-100 83-195 216-195 135 0 166 79 196 196 42-105 93-196 236-196" id="x"/><path d="M775-193C708-75 621 20 439 20 226 20 106-93 106-306c0-251 170-341 417-346l223-4c4-143-12-264-148-264-103 0-141 58-150 153l-293-14c37-219 194-321 455-321 263 0 418 130 417 390v392c1 84 5 161 89 160 21 0 42-2 62-6v152c-57 15-108 27-180 26-145 0-202-73-217-205h-6zm-256 17c168 0 234-139 227-325-166 4-347-25-347 173 0 94 33 152 120 152" id="y"/><path d="M1108-33c-3 314-178 467-492 467-243 0-400-94-447-291l281-33c17 79 82 141 174 141 176 0 212-155 205-347-2-40 5-80 0-115C773-85 665-12 501-12c-288 0-377-242-377-538 0-242 65-426 223-510 50-26 108-39 175-39 160 0 253 78 307 191h5c1-58 5-125 14-174h266c-12 335-3 703-6 1049zM811-384c25-82 27-259 1-342-30-99-77-180-190-180-172 0-205 171-205 356 0 116 18 202 54 258 48 76 129 107 221 70 62-25 96-86 119-162" id="z"/><path d="M1113-274C1038-96 884 20 626 20c-352 0-526-209-526-566 0-358 185-556 530-556 358 0 496 251 499 615H395c5 180 68 319 245 319 102 0 186-45 208-129zM857-663c-6-177-128-307-315-247-94 30-141 121-145 247h460" id="A"/><path d="M885-531c0 421-122 704-297 956H307c174-255 301-534 301-955 0-420-127-700-301-954h281c175 251 297 532 297 953" id="B"/><g id="b"><use transform="matrix(0.007595486111111112,0,0,0.007595486111111112,0,0)" xlink:href="#s"/><use transform="matrix(0.007595486111111112,0,0,0.007595486111111112,9.334852430555557,0)" xlink:href="#x"/><use transform="matrix(0.007595486111111112,0,0,0.007595486111111112,18.669704861111114,0)" xlink:href="#y"/><use transform="matrix(0.007595486111111112,0,0,0.007595486111111112,28.00455729166667,0)" xlink:href="#z"/><use transform="matrix(0.007595486111111112,0,0,0.007595486111111112,37.33940972222223,0)" xlink:href="#A"/><use transform="matrix(0.007595486111111112,0,0,0.007595486111111112,46.674262152777786,0)" xlink:href="#B"/></g><path d="M844-1321c-130 0-195 53-191 182v57h443v190H653V0H373v-892H117v-190h256v-83c5-247 162-348 422-349 120-1 232 13 327 28v184c-84-10-183-19-278-19" id="C"/><path d="M875-1102c70 0 148 7 206 17v237c-110-17-267-37-359 15-123 69-192 207-192 395V0H250c-10-367 32-789-52-1082h271c19 69 36 149 46 228h4c52-151 151-250 356-248" id="D"/><g id="c"><use transform="matrix(0.007595486111111112,0,0,0.007595486111111112,0,0)" xlink:href="#r"/><use transform="matrix(0.007595486111111112,0,0,0.007595486111111112,9.334852430555557,0)" xlink:href="#C"/><use transform="matrix(0.007595486111111112,0,0,0.007595486111111112,18.669704861111114,0)" xlink:href="#A"/><use transform="matrix(0.007595486111111112,0,0,0.007595486111111112,28.00455729166667,0)" xlink:href="#y"/><use transform="matrix(0.007595486111111112,0,0,0.007595486111111112,37.33940972222223,0)" xlink:href="#w"/><use transform="matrix(0.007595486111111112,0,0,0.007595486111111112,46.674262152777786,0)" xlink:href="#v"/><use transform="matrix(0.007595486111111112,0,0,0.007595486111111112,56.00911458333334,0)" xlink:href="#D"/><use transform="matrix(0.007595486111111112,0,0,0.007595486111111112,65.3439670138889,0)" xlink:href="#A"/></g><path d="M622-916c-112 2-200 14-200 111 0 90 89 101 168 121 234 58 514 77 514 368C1104-4 751 54 434 5 267-21 161-112 121-270l247-37c24 111 113 145 252 141 114-3 226-12 226-124 0-101-103-113-192-134-225-54-490-76-490-351 0-247 201-328 458-328 245 0 413 88 457 292l-249 26c-16-98-92-133-208-131" id="E"/><g id="d"><use transform="matrix(0.007595486111111112,0,0,0.007595486111111112,0,0)" xlink:href="#x"/><use transform="matrix(0.007595486111111112,0,0,0.007595486111111112,9.334852430555557,0)" xlink:href="#y"/><use transform="matrix(0.007595486111111112,0,0,0.007595486111111112,18.669704861111114,0)" xlink:href="#u"/><use transform="matrix(0.007595486111111112,0,0,0.007595486111111112,28.00455729166667,0)" xlink:href="#E"/><use transform="matrix(0.007595486111111112,0,0,0.007595486111111112,37.33940972222223,0)" xlink:href="#B"/></g><path d="M839-1102c70 0 148 7 206 17v167c-112-18-268-36-363 15-129 69-208 203-208 395V0H294c-10-367 32-789-52-1082h171c21 75 41 161 48 250h5c67-152 152-270 373-270" id="F"/><path d="M617-1102c355 0 481 238 477 599H322c5 222 84 388 301 388 144 0 244-59 284-166l158 45C1002-72 854 20 623 20c-342 0-490-220-490-568 0-346 151-554 484-554zm291 461c-18-192-90-328-289-328-194 0-287 128-295 328h584" id="G"/><path d="M736-142h380V0H134v-142h422v-1200H267v-142h469v1342" id="H"/><path d="M528 20c-247 0-343-132-343-381v-721h180v686c-4 177 45 284 224 277 194-8 279-136 279-336v-627h181c3 360-6 732 6 1082H885c-4-54-7-126-8-185h-3C809-64 714 20 528 20" id="I"/><g id="e"><use transform="matrix(0.0087890625,0,0,0.0087890625,0,0)" xlink:href="#F"/><use transform="matrix(0.0087890625,0,0,0.0087890625,10.8017578125,0)" xlink:href="#G"/><use transform="matrix(0.0087890625,0,0,0.0087890625,21.603515625,0)" xlink:href="#H"/><use transform="matrix(0.0087890625,0,0,0.0087890625,32.4052734375,0)" xlink:href="#I"/></g><path d="M114 20l821-1504h178L296 20H114" id="J"/><use transform="matrix(0.0087890625,0,0,0.0087890625,0,0)" xlink:href="#J" id="f"/><path d="M904-1102c199 0 220 177 220 381V0H956v-686c-3-114 0-215-60-264-70-33-125-4-158 71-26 56-39 140-39 252V0H531v-686c-3-114-1-215-61-264-78-41-136 24-157 84-24 69-39 159-39 259V0H105c-3-360 6-732-6-1082h149c6 50 3 123 8 175 36-100 83-195 216-195 135 0 166 79 196 196 42-105 93-196 236-196" id="K"/><path d="M1000-272c3 95 12 159 101 161 21 0 41-3 59-7V-6c-44 10-86 16-139 16-141 2-191-84-197-217h-6C748-76 648 20 446 20c-207 0-318-120-318-322 0-266 194-348 454-354l236-4c12-191-40-305-222-305-140 0-220 47-232 172l-188-17c33-204 181-292 423-292 255 0 401 118 401 364v466zm-683-27c0 109 63 184 175 182 166-3 259-96 306-217 24-65 20-120 20-200-232 7-501-28-501 235" id="L"/><path d="M932 0L611-444 288 0H94l415-556-397-526h199l300 421 298-421h201L713-558 1133 0H932" id="M"/><path d="M334-464v-160h560v160H334" id="N"/><path d="M698-1104c312 3 392 244 392 558 0 315-82 566-392 566-169 0-277-65-331-184h-5c8 188 2 394 4 589H185V-858c0-76-1-156-6-224h175c6 52 9 120 10 178h4c58-122 150-202 330-200zm-49 991c225 0 255-203 255-433 0-225-32-419-253-419-236 0-285 192-285 441 0 237 53 411 283 411" id="O"/><path d="M615-1102c343 0 484 203 482 560-1 347-147 562-488 562-336 0-475-219-479-562-4-349 156-560 485-560zm-8 989c240 0 301-180 301-429 0-245-55-427-290-427-236 0-299 181-299 427 0 243 61 429 288 429" id="P"/><path d="M745-142h380V0H143v-142h422v-798H246v-142h499v940zM545-1292v-192h200v192H545" id="Q"/><path d="M706-1102c241 0 344 136 343 381V0H868v-695c1-168-57-273-220-268-190 6-283 138-283 336V0H185c-3-360 6-732-6-1082h170c4 54 7 126 8 185h3c63-121 164-204 346-205" id="R"/><path d="M1048-32c-2 300-135 456-433 456-222-1-358-88-400-267l184-25c22 99 100 157 222 156 184-2 248-125 248-315 0-64 3-133-2-194C807-100 706-13 524-12c-306 0-381-228-381-537 0-318 85-550 400-550 164 0 271 83 325 202h3c1-60 3-134 12-185h171c-13 339-4 702-6 1050zM585-145c210-8 284-178 284-406 0-192-52-331-177-392-33-16-69-22-104-22-223 2-259 184-259 414 0 229 31 415 256 406" id="S"/><g id="g"><use transform="matrix(0.0087890625,0,0,0.0087890625,0,0)" xlink:href="#K"/><use transform="matrix(0.0087890625,0,0,0.0087890625,10.8017578125,0)" xlink:href="#L"/><use transform="matrix(0.0087890625,0,0,0.0087890625,21.603515625,0)" xlink:href="#M"/><use transform="matrix(0.0087890625,0,0,0.0087890625,32.4052734375,0)" xlink:href="#N"/><use transform="matrix(0.0087890625,0,0,0.0087890625,43.20703125,0)" xlink:href="#O"/><use transform="matrix(0.0087890625,0,0,0.0087890625,54.0087890625,0)" xlink:href="#P"/><use transform="matrix(0.0087890625,0,0,0.0087890625,64.810546875,0)" xlink:href="#P"/><use transform="matrix(0.0087890625,0,0,0.0087890625,75.6123046875,0)" xlink:href="#H"/><use transform="matrix(0.0087890625,0,0,0.0087890625,86.4140625,0)" xlink:href="#Q"/><use transform="matrix(0.0087890625,0,0,0.0087890625,97.2158203125,0)" xlink:href="#R"/><use transform="matrix(0.0087890625,0,0,0.0087890625,108.017578125,0)" xlink:href="#S"/></g><g id="h"><use transform="matrix(0.007595486111111112,0,0,0.007595486111111112,0,0)" xlink:href="#D"/><use transform="matrix(0.007595486111111112,0,0,0.007595486111111112,9.334852430555557,0)" xlink:href="#A"/><use transform="matrix(0.007595486111111112,0,0,0.007595486111111112,18.669704861111114,0)" xlink:href="#u"/><use transform="matrix(0.007595486111111112,0,0,0.007595486111111112,28.00455729166667,0)" xlink:href="#A"/><use transform="matrix(0.007595486111111112,0,0,0.007595486111111112,37.33940972222223,0)" xlink:href="#y"/><use transform="matrix(0.007595486111111112,0,0,0.007595486111111112,46.674262152777786,0)" xlink:href="#w"/></g><path d="M1109-360C1066-122 902 20 624 20c-347 0-514-209-514-555 0-353 168-567 518-567 270 0 425 136 473 361l-283 14c-16-106-75-183-196-182-75 0-130 31-165 93s-52 152-52 270c0 249 74 374 221 374 120 0 188-82 201-201" id="T"/><path d="M424-1484c-2 206 5 424-8 618h4c67-145 160-234 348-236 251-3 335 167 336 416V0H824v-621c0-150-23-276-173-270-163 7-227 142-227 312V0H143v-1484h281" id="U"/><g id="i"><use transform="matrix(0.007595486111111112,0,0,0.007595486111111112,0,0)" xlink:href="#r"/><use transform="matrix(0.007595486111111112,0,0,0.007595486111111112,9.334852430555557,0)" xlink:href="#y"/><use transform="matrix(0.007595486111111112,0,0,0.007595486111111112,18.669704861111114,0)" xlink:href="#D"/><use transform="matrix(0.007595486111111112,0,0,0.007595486111111112,28.00455729166667,0)" xlink:href="#T"/><use transform="matrix(0.007595486111111112,0,0,0.007595486111111112,37.33940972222223,0)" xlink:href="#U"/><use transform="matrix(0.007595486111111112,0,0,0.007595486111111112,46.674262152777786,0)" xlink:href="#s"/><use transform="matrix(0.007595486111111112,0,0,0.007595486111111112,56.00911458333334,0)" xlink:href="#w"/><use transform="matrix(0.007595486111111112,0,0,0.007595486111111112,65.3439670138889,0)" xlink:href="#A"/><use transform="matrix(0.007595486111111112,0,0,0.007595486111111112,74.67881944444446,0)" xlink:href="#T"/><use transform="matrix(0.007595486111111112,0,0,0.007595486111111112,84.01367187500001,0)" xlink:href="#w"/><use transform="matrix(0.007595486111111112,0,0,0.007595486111111112,93.34852430555557,0)" xlink:href="#v"/><use transform="matrix(0.007595486111111112,0,0,0.007595486111111112,102.68337673611113,0)" xlink:href="#D"/><use transform="matrix(0.007595486111111112,0,0,0.007595486111111112,112.01822916666669,0)" xlink:href="#A"/></g><g id="j"><use transform="matrix(0.007595486111111112,0,0,0.007595486111111112,0,0)" xlink:href="#E"/><use transform="matrix(0.007595486111111112,0,0,0.007595486111111112,9.334852430555557,0)" xlink:href="#u"/><use transform="matrix(0.007595486111111112,0,0,0.007595486111111112,18.669704861111114,0)" xlink:href="#A"/><use transform="matrix(0.007595486111111112,0,0,0.007595486111111112,28.00455729166667,0)" xlink:href="#T"/><use transform="matrix(0.007595486111111112,0,0,0.007595486111111112,37.33940972222223,0)" xlink:href="#s"/><use transform="matrix(0.007595486111111112,0,0,0.007595486111111112,46.674262152777786,0)" xlink:href="#C"/><use transform="matrix(0.007595486111111112,0,0,0.007595486111111112,56.00911458333334,0)" xlink:href="#s"/><use transform="matrix(0.007595486111111112,0,0,0.007595486111111112,65.3439670138889,0)" xlink:href="#T"/><use transform="matrix(0.007595486111111112,0,0,0.007595486111111112,74.67881944444446,0)" xlink:href="#B"/></g><path d="M839-1335c-182-6-269 67-259 253h491v142H580V0H400v-940H138v-142h262c-15-293 132-408 418-402 94 2 200 7 281 21v145c-75-10-177-14-260-17" id="V"/><path d="M682 16c-209 0-323-80-324-285v-671H190v-142h170l58-282h120v282h432v142H538v652c2 114 60 155 182 155 106 0 209-16 297-34v137C921-4 806 16 682 16" id="W"/><g id="k"><use transform="matrix(0.0087890625,0,0,0.0087890625,0,0)" xlink:href="#V"/><use transform="matrix(0.0087890625,0,0,0.0087890625,10.8017578125,0)" xlink:href="#H"/><use transform="matrix(0.0087890625,0,0,0.0087890625,21.603515625,0)" xlink:href="#L"/><use transform="matrix(0.0087890625,0,0,0.0087890625,32.4052734375,0)" xlink:href="#W"/><use transform="matrix(0.0087890625,0,0,0.0087890625,43.20703125,0)" xlink:href="#W"/><use transform="matrix(0.0087890625,0,0,0.0087890625,54.0087890625,0)" xlink:href="#G"/><use transform="matrix(0.0087890625,0,0,0.0087890625,64.810546875,0)" xlink:href="#R"/></g><path d="M616-1102c361 0 521 202 521 560 0 354-171 562-527 562C259 20 92-192 92-542c0-351 169-560 524-560zm-9 930c200-2 236-165 236-370 0-199-27-367-223-367-195 0-233 146-233 367 0 129 18 223 55 282s92 88 165 88" id="X"/><g id="l"><use transform="matrix(0.007595486111111112,0,0,0.007595486111111112,0,0)" xlink:href="#r"/><use transform="matrix(0.007595486111111112,0,0,0.007595486111111112,9.334852430555557,0)" xlink:href="#X"/><use transform="matrix(0.007595486111111112,0,0,0.007595486111111112,18.669704861111114,0)" xlink:href="#t"/><use transform="matrix(0.007595486111111112,0,0,0.007595486111111112,28.00455729166667,0)" xlink:href="#A"/></g><path d="M774 0H438L31-1082h297c94 290 200 568 280 872 83-304 194-581 291-872h294" id="Y"/><g id="m"><use transform="matrix(0.007595486111111112,0,0,0.007595486111111112,0,0)" xlink:href="#Y"/><use transform="matrix(0.007595486111111112,0,0,0.007595486111111112,9.334852430555557,0)" xlink:href="#A"/><use transform="matrix(0.007595486111111112,0,0,0.007595486111111112,18.669704861111114,0)" xlink:href="#T"/><use transform="matrix(0.007595486111111112,0,0,0.007595486111111112,28.00455729166667,0)" xlink:href="#w"/><use transform="matrix(0.007595486111111112,0,0,0.007595486111111112,37.33940972222223,0)" xlink:href="#X"/><use transform="matrix(0.007595486111111112,0,0,0.007595486111111112,46.674262152777786,0)" xlink:href="#D"/></g><g id="n"><use transform="matrix(0.007595486111111112,0,0,0.007595486111111112,0,0)" xlink:href="#C"/><use transform="matrix(0.007595486111111112,0,0,0.007595486111111112,9.334852430555557,0)" xlink:href="#X"/><use transform="matrix(0.007595486111111112,0,0,0.007595486111111112,18.669704861111114,0)" xlink:href="#D"/></g><g id="o"><use transform="matrix(0.007595486111111112,0,0,0.007595486111111112,0,0)" xlink:href="#A"/><use transform="matrix(0.007595486111111112,0,0,0.007595486111111112,9.334852430555557,0)" xlink:href="#y"/><use transform="matrix(0.007595486111111112,0,0,0.007595486111111112,18.669704861111114,0)" xlink:href="#T"/><use transform="matrix(0.007595486111111112,0,0,0.007595486111111112,28.00455729166667,0)" xlink:href="#U"/></g><g id="p"><use transform="matrix(0.007595486111111112,0,0,0.007595486111111112,0,0)" xlink:href="#D"/><use transform="matrix(0.007595486111111112,0,0,0.007595486111111112,9.334852430555557,0)" xlink:href="#A"/><use transform="matrix(0.007595486111111112,0,0,0.007595486111111112,18.669704861111114,0)" xlink:href="#z"/><use transform="matrix(0.007595486111111112,0,0,0.007595486111111112,28.00455729166667,0)" xlink:href="#s"/><use transform="matrix(0.007595486111111112,0,0,0.007595486111111112,37.33940972222223,0)" xlink:href="#X"/><use transform="matrix(0.007595486111111112,0,0,0.007595486111111112,46.674262152777786,0)" xlink:href="#t"/><use transform="matrix(0.007595486111111112,0,0,0.007595486111111112,56.00911458333334,0)" xlink:href="#B"/></g><path d="M802-909c-3-189-2-383-2-575h281v1248c-1 83 4 168 8 236H817c-9-50-14-117-15-176h-4C735-49 651 20 482 20 191 20 97-238 97-539c0-243 66-432 221-519 50-28 108-42 175-42 162 2 253 78 309 191zm-70 658c91-113 93-462 2-584-46-61-145-100-224-53-96 56-119 190-120 349 0 123 17 214 52 275 46 82 130 115 222 74 25-12 46-33 68-61" id="Z"/><g id="q"><use transform="matrix(0.007595486111111112,0,0,0.007595486111111112,0,0)" xlink:href="#T"/><use transform="matrix(0.007595486111111112,0,0,0.007595486111111112,9.334852430555557,0)" xlink:href="#X"/><use transform="matrix(0.007595486111111112,0,0,0.007595486111111112,18.669704861111114,0)" xlink:href="#D"/><use transform="matrix(0.007595486111111112,0,0,0.007595486111111112,28.00455729166667,0)" xlink:href="#D"/><use transform="matrix(0.007595486111111112,0,0,0.007595486111111112,37.33940972222223,0)" xlink:href="#A"/><use transform="matrix(0.007595486111111112,0,0,0.007595486111111112,46.674262152777786,0)" xlink:href="#E"/><use transform="matrix(0.007595486111111112,0,0,0.007595486111111112,56.00911458333334,0)" xlink:href="#u"/><use transform="matrix(0.007595486111111112,0,0,0.007595486111111112,65.3439670138889,0)" xlink:href="#X"/><use transform="matrix(0.007595486111111112,0,0,0.007595486111111112,74.67881944444446,0)" xlink:href="#t"/><use transform="matrix(0.007595486111111112,0,0,0.007595486111111112,84.01367187500001,0)" xlink:href="#Z"/><use transform="matrix(0.007595486111111112,0,0,0.007595486111111112,93.34852430555557,0)" xlink:href="#y"/><use transform="matrix(0.007595486111111112,0,0,0.007595486111111112,102.68337673611113,0)" xlink:href="#t"/><use transform="matrix(0.007595486111111112,0,0,0.007595486111111112,112.01822916666669,0)" xlink:href="#T"/><use transform="matrix(0.007595486111111112,0,0,0.007595486111111112,121.35308159722224,0)" xlink:href="#A"/></g></defs></g></svg>