<svg xmlns="http://www.w3.org/2000/svg" xmlns:xlink="http://www.w3.org/1999/xlink" xmlns:lucid="lucid" width="1260" height="258.05"><g transform="translate(-40 -749.4529914529912)" lucid:page-tab-id="0_0"><path d="M680 865c0-8.28 6.72-15 15-15h560c8.28 0 15 6.72 15 15v50c0 8.28-6.72 15-15 15H695c-8.28 0-15-6.72-15-15z" stroke="#000" stroke-width="3" fill="#d1bcd2" fill-opacity=".17"/><path d="M685 871c0-7.18 5.82-13 13-13h554c7.18 0 13 5.82 13 13v14c0 7.18-5.82 13-13 13H698c-7.18 0-13-5.82-13-13z" stroke="#000" stroke-width="2" fill="#fff" fill-opacity=".86"/><use xlink:href="#a" transform="matrix(1,0,0,1,690,863) translate(8.121527777777828 20.32986111111111)"/><use xlink:href="#b" transform="matrix(1,0,0,1,690,863) translate(61.46354166666672 20.32986111111111)"/><use xlink:href="#c" transform="matrix(1,0,0,1,690,863) translate(125.4739583333334 20.32986111111111)"/><use xlink:href="#d" transform="matrix(1,0,0,1,690,863) translate(146.81076388888897 20.32986111111111)"/><use xlink:href="#e" transform="matrix(1,0,0,1,690,863) translate(168.1475694444445 20.32986111111111)"/><use xlink:href="#c" transform="matrix(1,0,0,1,690,863) translate(189.48437500000006 20.32986111111111)"/><use xlink:href="#f" transform="matrix(1,0,0,1,690,863) translate(210.8211805555556 20.32986111111111)"/><use xlink:href="#g" transform="matrix(1,0,0,1,690,863) translate(232.15798611111114 20.32986111111111)"/><use xlink:href="#h" transform="matrix(1,0,0,1,690,863) translate(253.49479166666669 20.32986111111111)"/><use xlink:href="#e" transform="matrix(1,0,0,1,690,863) translate(274.83159722222223 20.32986111111111)"/><use xlink:href="#i" transform="matrix(1,0,0,1,690,863) translate(296.16840277777777 20.32986111111111)"/><use xlink:href="#j" transform="matrix(1,0,0,1,690,863) translate(317.5052083333333 20.32986111111111)"/><use xlink:href="#c" transform="matrix(1,0,0,1,690,863) translate(381.515625 20.32986111111111)"/><use xlink:href="#k" transform="matrix(1,0,0,1,690,863) translate(402.85243055555554 20.32986111111111)"/><use xlink:href="#g" transform="matrix(1,0,0,1,690,863) translate(445.52604166666663 20.32986111111111)"/><use xlink:href="#h" transform="matrix(1,0,0,1,690,863) translate(466.8628472222222 20.32986111111111)"/><use xlink:href="#e" transform="matrix(1,0,0,1,690,863) translate(488.1996527777777 20.32986111111111)"/><use xlink:href="#c" transform="matrix(1,0,0,1,690,863) translate(509.53645833333326 20.32986111111111)"/><use xlink:href="#l" transform="matrix(1,0,0,1,690,863) translate(530.8732638888888 20.32986111111111)"/><use xlink:href="#m" transform="matrix(1,0,0,1,690,863) translate(552.2100694444443 20.32986111111111)"/><path d="M598 850c17.67 0 32 13.43 32 30s-14.33 30-32 30h-96c-17.67 0-32-13.43-32-30s14.33-30 32-30z" stroke="#000" stroke-width="4" fill="#b2d6ef" fill-opacity=".55"/><use xlink:href="#n" transform="matrix(1,0,0,1,470,850) translate(19.990234374999986 36.662326388888886)"/><path d="M1160 896.4h120V930h-120z" stroke="#000" stroke-opacity="0" stroke-width="2" fill="#fff" fill-opacity="0"/><use xlink:href="#o" transform="matrix(1,0,0,1,1165,901.4000000000001) translate(22.5947265625 17.396484375)"/><path d="M630 880h48.5" stroke="#000" stroke-width="3" fill="none"/><path d="M630 881.5h-.12l.12-1.5v-.24l-.1-1.26h.1zM678.5 880l-14.27 4.64v-9.28z"/><path d="M680 878.9v2.2l-17.27 5.6v-13.4zm-14.27 3.67l7.92-2.57-7.92-2.57z"/><path d="M80 787.5c0-8.28 6.72-15 15-15h310c8.28 0 15 6.72 15 15v185c0 8.28-6.72 15-15 15H95c-8.28 0-15-6.72-15-15z" stroke="#000" stroke-width="3" fill="#d1bcd2" fill-opacity=".17"/><path d="M92 809.5h320v160H92z" stroke="#666" stroke-width="3" fill="#fff" fill-opacity=".74"/><path d="M122.3 840.2h258.4v97.6H122.3z" fill="#fff" fill-opacity="0"/><path d="M174.14 901.58l-3.2 18.1H125.8l23.74-30.88-22.23-31h45.23V873h-1.8c-1.28-8.18-3.58-11.2-11.64-11.2h-19.37l17.56 23.67-20.34 26.28h25.07c6.78 0 8.96-4.12 10.3-10.17h1.8M194.97 890.56h38.57v-3.64h-38.57zM220.4 878.02h-11.82v-.64c3.17-.18 4.07-1.07 4.07-3.43v-19.22c0-1.46-.38-2.1-1.28-2.1-.43 0-1.16.2-1.93.5l-1.16.44v-.6l7.67-3.9.38.13v25.56c0 1.85.86 2.62 4.07 2.62v.64M209.9 910.7c0 1.2-.98 2.17-2.1 2.17-1.23 0-2.05-.9-2.05-2.27 0-1.33.86-2.27 2-2.27 1.17 0 2.15 1.12 2.15 2.36m-1.8 20.75l.56.47c-2.35 3.6-3.72 4.88-5.86 4.88-1.42 0-2.1-.77-2.1-2.35 0-.86.3-2.36.94-4.75l2.06-7.58c.2-.77.38-1.54.38-1.9 0-.84-.43-.97-2.74-1v-.7c1.67-.13 2.53-.25 6.85-1.07l.16.13-4.02 14.7c-.22.7-.43 1.27-.43 1.87 0 .43.27.64.6.64.74 0 1.77-.9 3.6-3.35M224.85 915.84l-1.64 4.14H211.4v-.36l5.4-5.72c2.83-3 3.92-5.3 3.92-7.87 0-2.76-1.63-4.27-4.2-4.27-2.2 0-3.25.97-4.46 3.94l-.63-.16c.64-3.54 2.58-6.02 6.3-6.02 3.43 0 5.6 2.33 5.6 5.33 0 2.4-1.17 4.66-3.87 7.5l-5 5.33h7.1c1.26 0 1.9-.33 2.9-2.02M296.27 884.5H260.6v-4h35.67v4m0 12.1H260.6v-3.98h35.67v4M323.27 890.56h50.08v-3.64h-50.08zM349.86 858.9l-.9 3.18h-4.37c-.6 2.14-2.88 9.5-2.88 10.36 0 1 .43 1.8 1.33 1.8.85 0 2-.3 3.04-2.6h.67c-.64 2.64-2.65 6.07-5.86 6.07-1.83 0-2.52-1.53-2.52-3.2 0-1 .43-2.62.73-3.43l3.26-9h-4.45c-1.92 5.23-3.03 12.68-6.5 15.42-.47.34-1.07.5-1.54.5-1.1 0-2.14-.85-2.14-1.88 0-.64.2-1.8 1.28-2.1 1.8-.47 2.66-1.88 3.1-3l3.5-8.94h-.26c-2.23 0-3.38.04-5.27 2.35h-.68c2.3-3.9 4.53-5.52 8.85-5.52h11.6M364.63 857.56L363 861.7h-11.84v-.36l5.4-5.72c2.83-3 3.92-5.3 3.92-7.87 0-2.76-1.63-4.27-4.2-4.27-2.2 0-3.25.97-4.46 3.94l-.63-.16c.62-3.54 2.56-6.02 6.28-6.02 3.43 0 5.6 2.33 5.6 5.33 0 2.4-1.18 4.66-3.87 7.5l-5 5.33h7.1c1.27 0 1.9-.33 2.9-2.02M356.67 899.5l.1.7c-6.74 1.1-11.53 5.73-12.7 12.2 2.1-1.63 3.57-1.93 5.45-1.93 5 0 8.1 3.43 8.1 8.95 0 2.74-.78 5.14-2.2 6.85-1.58 1.97-3.97 3.13-6.8 3.13-3.38 0-6.08-1.6-7.58-4.33-1.2-2.18-2-5.22-2-8.22 0-4.62 1.62-8.7 4.66-11.82 3.68-3.85 7.06-4.88 12.97-5.52m-2.9 21.25c0-5.48-1.8-8.3-5.8-8.3-2.43 0-4.96 1.02-4.96 4.96 0 6.52 2.07 10.8 6.1 10.8 3.07 0 4.66-3.08 4.66-7.45"/><path d="M90.5 847.83h323" stroke="#ccc" fill="none"/><path fill="#ccc"/><path fill="#ccc"/><path d="M332 808.5v162" stroke="#ccc" fill="none"/><path fill="#ccc"/><path fill="#ccc"/><path d="M292 808v163" stroke="#ccc" fill="none"/><path fill="#ccc"/><path fill="#ccc"/><path d="M373 808v163" stroke="#ccc" fill="none"/><path fill="#ccc"/><path fill="#ccc"/><path d="M60 769.45h220V810H60z" stroke="#000" stroke-opacity="0" fill="#fff" fill-opacity="0"/><use xlink:href="#p" transform="matrix(1,0,0,1,65,774.4529914529912) translate(36.15538194444443 20.82986111111111)"/><use xlink:href="#q" transform="matrix(1,0,0,1,65,774.4529914529912) translate(110.83420138888889 20.82986111111111)"/><path d="M252 809.5v161.1" stroke="#ccc" fill="none"/><path fill="#ccc"/><path fill="#ccc"/><path d="M92 889.5h321.2" stroke="#ccc" fill="none"/><path fill="#ccc"/><path fill="#ccc"/><path d="M172 808.4v162.2" stroke="#ccc" fill="none"/><path fill="#ccc"/><path fill="#ccc"/><path d="M90.5 930.5h323" stroke="#ccc" fill="none"/><path fill="#ccc"/><path fill="#ccc"/><path d="M132 808.5v162" stroke="#ccc" fill="none"/><path fill="#ccc"/><path fill="#ccc"/><path d="M211 808v163" stroke="#ccc" fill="none"/><path fill="#ccc"/><path fill="#ccc"/><path d="M421.5 879.33h46.27" stroke="#000" stroke-width="3" fill="none"/><path d="M421.5 880.83H420v-3h1.5zM467.77 879.33l-14.27 4.64v-9.27z"/><path d="M470.12 878.52L470 880v.2l-18 5.83v-13.4zM455 881.9l7.92-2.57-7.92-2.57z"/><defs><path d="M908 20L91-1484h228L1140 20H908" id="r"/><path d="M622-916c-112 2-200 14-200 111 0 90 89 101 168 121 234 58 514 77 514 368C1104-4 751 54 434 5 267-21 161-112 121-270l247-37c24 111 113 145 252 141 114-3 226-12 226-124 0-101-103-113-192-134-225-54-490-76-490-351 0-247 201-328 458-328 245 0 413 88 457 292l-249 26c-16-98-92-133-208-131" id="s"/><path d="M471 20c-247 0-336-169-336-415v-687h281v607c4 148 31 285 172 285 152 0 207-150 207-312v-580h281c4 359-9 736 8 1082H816c-7-63-11-146-12-215h-5C736-76 644 20 471 20" id="t"/><path d="M934-1102c199 0 220 177 220 381V0H926c-2-260 10-533-4-785-4-72-14-138-83-138-34 0-61 27-81 81s-29 134-29 241V0H501c-2-260 9-533-5-785-4-72-13-138-82-138-46 0-65 47-80 93-21 67-30 155-30 248V0H75c-3-360 6-732-6-1082h209c6 50 3 123 8 175 36-100 83-195 216-195 135 0 166 79 196 196 42-105 93-196 236-196" id="u"/><g id="a"><use transform="matrix(0.008680555555555556,0,0,0.008680555555555556,0,0)" xlink:href="#r"/><use transform="matrix(0.008680555555555556,0,0,0.008680555555555556,10.668402777777779,0)" xlink:href="#s"/><use transform="matrix(0.008680555555555556,0,0,0.008680555555555556,21.336805555555557,0)" xlink:href="#t"/><use transform="matrix(0.008680555555555556,0,0,0.008680555555555556,32.005208333333336,0)" xlink:href="#u"/></g><path d="M844-1321c-130 0-195 53-191 182v57h443v190H653V0H373v-892H117v-190h256v-83c5-247 162-348 422-349 120-1 232 13 327 28v184c-84-10-183-19-278-19" id="v"/><path d="M875-1102c70 0 148 7 206 17v237c-110-17-267-37-359 15-123 69-192 207-192 395V0H250c-10-367 32-789-52-1082h271c19 69 36 149 46 228h4c52-151 151-250 356-248" id="w"/><path d="M775-193C708-75 621 20 439 20 226 20 106-93 106-306c0-251 170-341 417-346l223-4c4-143-12-264-148-264-103 0-141 58-150 153l-293-14c37-219 194-321 455-321 263 0 418 130 417 390v392c1 84 5 161 89 160 21 0 42-2 62-6v152c-57 15-108 27-180 26-145 0-202-73-217-205h-6zm-256 17c168 0 234-139 227-325-166 4-347-25-347 173 0 94 33 152 120 152" id="x"/><path d="M1109-360C1066-122 902 20 624 20c-347 0-514-209-514-555 0-353 168-567 518-567 270 0 425 136 473 361l-283 14c-16-106-75-183-196-182-75 0-130 31-165 93s-52 152-52 270c0 249 74 374 221 374 120 0 188-82 201-201" id="y"/><g id="b"><use transform="matrix(0.008680555555555556,0,0,0.008680555555555556,0,0)" xlink:href="#r"/><use transform="matrix(0.008680555555555556,0,0,0.008680555555555556,10.668402777777779,0)" xlink:href="#v"/><use transform="matrix(0.008680555555555556,0,0,0.008680555555555556,21.336805555555557,0)" xlink:href="#w"/><use transform="matrix(0.008680555555555556,0,0,0.008680555555555556,32.005208333333336,0)" xlink:href="#x"/><use transform="matrix(0.008680555555555556,0,0,0.008680555555555556,42.673611111111114,0)" xlink:href="#y"/></g><path d="M685 25c1 134 43 209 172 209h188v191H718c-189-5-295-108-295-299v-328c1-155-78-228-229-229v-195c150-4 229-75 229-231v-328c-2-190 109-299 295-299h327v190H857c-129 1-171 76-172 209v301c-5 144-88 222-207 252v4c118 31 207 107 207 252V25" id="z"/><use transform="matrix(0.008680555555555556,0,0,0.008680555555555556,0,0)" xlink:href="#z" id="c"/><path d="M138-1120c207-4 339-93 415-229h266v1140h323V0H149v-209h389v-891c-70 121-216 187-400 194v-214" id="A"/><use transform="matrix(0.008680555555555556,0,0,0.008680555555555556,0,0)" xlink:href="#A" id="d"/><path d="M806 126c-4 191-105 299-295 299H184V234h188c129-1 171-75 172-209v-301c5-145 89-221 207-252v-4c-119-30-207-108-207-252v-301c-1-133-43-209-172-209H184v-190h327c186 0 295 109 295 299v328c-1 156 79 227 229 231v195c-151 1-229 74-229 229v328" id="B"/><use transform="matrix(0.008680555555555556,0,0,0.008680555555555556,0,0)" xlink:href="#B" id="e"/><path d="M794-190h353V0H118v-190h395v-702H223v-190h571v892zM513-1277v-207h281v207H513" id="C"/><use transform="matrix(0.008680555555555556,0,0,0.008680555555555556,0,0)" xlink:href="#C" id="f"/><path d="M922-514l-326-752-324 752H45l391-895h322l393 895H922" id="D"/><use transform="matrix(0.008680555555555556,0,0,0.008680555555555556,0,0)" xlink:href="#D" id="g"/><path d="M135-968c34-256 187-402 480-402 217 0 371 75 441 220 45 93 40 219-8 308-114 212-348 323-508 488-38 39-66 80-85 123h654V0H123v-195c112-245 321-399 515-560 57-48 107-96 142-157 14-26 22-53 22-80-1-104-73-156-185-154-131 2-181 74-199 194" id="E"/><use transform="matrix(0.008680555555555556,0,0,0.008680555555555556,0,0)" xlink:href="#E" id="h"/><path d="M101-842v-223h1027v223H101zm0 551v-221h1027v221H101" id="F"/><use transform="matrix(0.008680555555555556,0,0,0.008680555555555556,0,0)" xlink:href="#F" id="i"/><g id="j"><use transform="matrix(0.008680555555555556,0,0,0.008680555555555556,0,0)" xlink:href="#r"/><use transform="matrix(0.008680555555555556,0,0,0.008680555555555556,10.668402777777779,0)" xlink:href="#v"/><use transform="matrix(0.008680555555555556,0,0,0.008680555555555556,21.336805555555557,0)" xlink:href="#w"/><use transform="matrix(0.008680555555555556,0,0,0.008680555555555556,32.005208333333336,0)" xlink:href="#x"/><use transform="matrix(0.008680555555555556,0,0,0.008680555555555556,42.673611111111114,0)" xlink:href="#y"/></g><path d="M427-171c3 195 2 397 2 596H148V-846c1-83-4-168-8-236h272c10 49 14 118 15 176h4c59-114 151-197 316-197 291 0 385 259 385 560 0 243-65 433-220 521-50 28-109 42-176 42-162-2-253-78-309-191zm69-661c-91 113-92 463-1 586 46 62 145 101 225 54 96-57 118-191 119-351 0-123-18-215-53-276-46-82-128-115-220-74-25 12-48 33-70 61" id="G"/><g id="k"><use transform="matrix(0.008680555555555556,0,0,0.008680555555555556,0,0)" xlink:href="#r"/><use transform="matrix(0.008680555555555556,0,0,0.008680555555555556,10.668402777777779,0)" xlink:href="#G"/><use transform="matrix(0.008680555555555556,0,0,0.008680555555555556,21.336805555555557,0)" xlink:href="#C"/></g><path d="M706-877c265 0 409 163 409 431 0 299-171 466-474 466-381 0-516-302-516-692 0-236 47-410 135-526 112-147 319-207 541-154 154 36 236 149 276 306l-265 37c-22-86-75-139-170-139-76 0-135 36-178 108s-64 179-64 318c54-94 164-155 306-155zm-74 678c138 0 201-98 201-239s-67-232-208-232c-125 0-205 73-205 202 0 149 67 269 212 269" id="H"/><use transform="matrix(0.008680555555555556,0,0,0.008680555555555556,0,0)" xlink:href="#H" id="l"/><use transform="matrix(0.008680555555555556,0,0,0.008680555555555556,0,0)" xlink:href="#B" id="m"/><path d="M157-1349h916v228H762v893h311V0H157v-228h311v-893H157v-228" id="I"/><path d="M1108-33c-3 314-178 467-492 467-243 0-400-94-447-291l281-33c17 79 82 141 174 141 176 0 212-155 205-347-2-40 5-80 0-115C773-85 665-12 501-12c-288 0-377-242-377-538 0-242 65-426 223-510 50-26 108-39 175-39 160 0 253 78 307 191h5c1-58 5-125 14-174h266c-12 335-3 703-6 1049zM811-384c25-82 27-259 1-342-30-99-77-180-190-180-172 0-205 171-205 356 0 116 18 202 54 258 48 76 129 107 221 70 62-25 96-86 119-162" id="J"/><path d="M211 0v-1349h295v1121h616V0H211" id="K"/><path d="M762-1121V0H467v-1121H61v-228h1107v228H762" id="L"/><path d="M1113-274C1038-96 884 20 626 20c-352 0-526-209-526-566 0-358 185-556 530-556 358 0 496 251 499 615H395c5 180 68 319 245 319 102 0 186-45 208-129zM857-663c-6-177-128-307-315-247-94 30-141 121-145 247h460" id="M"/><path d="M919 0L616-493 312 0H0l459-711-418-638h312l263 430 262-430h310L760-711 1229 0H919" id="N"/><g id="n"><use transform="matrix(0.010850694444444444,0,0,0.010850694444444444,0,0)" xlink:href="#I"/><use transform="matrix(0.010850694444444444,0,0,0.010850694444444444,13.335503472222221,0)" xlink:href="#u"/><use transform="matrix(0.010850694444444444,0,0,0.010850694444444444,26.671006944444443,0)" xlink:href="#J"/><use transform="matrix(0.010850694444444444,0,0,0.010850694444444444,40.006510416666664,0)" xlink:href="#E"/><use transform="matrix(0.010850694444444444,0,0,0.010850694444444444,53.342013888888886,0)" xlink:href="#K"/><use transform="matrix(0.010850694444444444,0,0,0.010850694444444444,66.67751736111111,0)" xlink:href="#x"/><use transform="matrix(0.010850694444444444,0,0,0.010850694444444444,80.01302083333334,0)" xlink:href="#L"/><use transform="matrix(0.010850694444444444,0,0,0.010850694444444444,93.34852430555557,0)" xlink:href="#M"/><use transform="matrix(0.010850694444444444,0,0,0.010850694444444444,106.6840277777778,0)" xlink:href="#N"/></g><path d="M621-530c0 421 127 700 301 955H641C466 173 344-110 344-531s122-702 297-953h281c-174 254-301 534-301 954" id="O"/><path d="M711 13c-250 0-386-99-385-349l2-556H161v-190h181l88-282h176v282h385v190H606v530c-10 130 45 186 174 184 91-2 176-11 255-27v186C933-1 833 13 711 13" id="P"/><path d="M874 0L612-392 348 0H49l406-559-387-523h303l241 354 240-354h305L770-562 1179 0H874" id="Q"/><path d="M885-531c0 421-122 704-297 956H307c174-255 301-534 301-955 0-420-127-700-301-954h281c175 251 297 532 297 953" id="R"/><g id="o"><use transform="matrix(0.0087890625,0,0,0.0087890625,0,0)" xlink:href="#O"/><use transform="matrix(0.0087890625,0,0,0.0087890625,10.8017578125,0)" xlink:href="#P"/><use transform="matrix(0.0087890625,0,0,0.0087890625,21.603515625,0)" xlink:href="#M"/><use transform="matrix(0.0087890625,0,0,0.0087890625,32.4052734375,0)" xlink:href="#Q"/><use transform="matrix(0.0087890625,0,0,0.0087890625,43.20703125,0)" xlink:href="#P"/><use transform="matrix(0.0087890625,0,0,0.0087890625,54.0087890625,0)" xlink:href="#R"/></g><path d="M768-1103c247 0 336 167 336 416V0H824v-619c-3-164-24-273-171-273-164 0-229 142-229 312V0H143c-4-359 9-736-8-1082h268c7 63 12 146 13 215h4c67-145 160-236 348-236" id="S"/><g id="p"><use transform="matrix(0.008680555555555556,0,0,0.008680555555555556,0,0)" xlink:href="#O"/><use transform="matrix(0.008680555555555556,0,0,0.008680555555555556,10.668402777777779,0)" xlink:href="#C"/><use transform="matrix(0.008680555555555556,0,0,0.008680555555555556,21.336805555555557,0)" xlink:href="#S"/><use transform="matrix(0.008680555555555556,0,0,0.008680555555555556,32.005208333333336,0)" xlink:href="#G"/><use transform="matrix(0.008680555555555556,0,0,0.008680555555555556,42.673611111111114,0)" xlink:href="#t"/><use transform="matrix(0.008680555555555556,0,0,0.008680555555555556,53.34201388888889,0)" xlink:href="#P"/></g><g id="q"><use transform="matrix(0.008680555555555556,0,0,0.008680555555555556,0,0)" xlink:href="#C"/><use transform="matrix(0.008680555555555556,0,0,0.008680555555555556,10.668402777777779,0)" xlink:href="#u"/><use transform="matrix(0.008680555555555556,0,0,0.008680555555555556,21.336805555555557,0)" xlink:href="#x"/><use transform="matrix(0.008680555555555556,0,0,0.008680555555555556,32.005208333333336,0)" xlink:href="#J"/><use transform="matrix(0.008680555555555556,0,0,0.008680555555555556,42.673611111111114,0)" xlink:href="#M"/><use transform="matrix(0.008680555555555556,0,0,0.008680555555555556,53.34201388888889,0)" xlink:href="#R"/></g></defs></g></svg>