<svg xmlns="http://www.w3.org/2000/svg" xmlns:xlink="http://www.w3.org/1999/xlink" xmlns:lucid="lucid" width="840.47" height="729"><g transform="translate(-320 -680)" lucid:page-tab-id="0_0"><path d="M1020 920c0-11.05 8.95-20 20-20h80c11.05 0 20 8.95 20 20v234c0 11.05-8.95 20-20 20h-80c-11.05 0-20-8.95-20-20zM340 960c0-11.05 8.95-20 20-20h540c11.05 0 20 8.95 20 20v80c0 11.05-8.95 20-20 20H360c-11.05 0-20-8.95-20-20z" stroke="#000" stroke-opacity="0" stroke-width=".5" fill="#d1bcd2" fill-opacity=".3"/><path d="M370 1359c0-5.52 4.48-10 10-10h60c5.52 0 10 4.48 10 10v20c0 5.52-4.48 10-10 10h-60c-5.52 0-10-4.48-10-10z" stroke="#000" stroke-width="2" fill="#fff" fill-opacity="0"/><use xlink:href="#a" transform="matrix(1,0,0,1,375,1354) translate(12.996419270833329 22.32855902777778)"/><path d="M810 1359c0-5.52 4.48-10 10-10h60c5.52 0 10 4.48 10 10v20c0 5.52-4.48 10-10 10h-60c-5.52 0-10-4.48-10-10z" stroke="#000" stroke-width="2" fill="#fff" fill-opacity="0"/><use xlink:href="#b" transform="matrix(1,0,0,1,815,1354) translate(12.996419270833329 22.32855902777778)"/><path d="M590 1359c0-5.52 4.48-10 10-10h60c5.52 0 10 4.48 10 10v20c0 5.52-4.48 10-10 10h-60c-5.52 0-10-4.48-10-10z" stroke="#000" stroke-width="2" fill="#fff" fill-opacity="0"/><use xlink:href="#c" transform="matrix(1,0,0,1,595,1354) translate(12.996419270833329 22.32855902777778)"/><path d="M430 1148.06c0-4.44-3.58-8.06-8-8.06h-24c-4.42 0-8 3.62-8 8.06v163.88c0 4.44 3.58 8.06 8 8.06h24c4.42 0 8-3.62 8-8.06z" stroke="#000" stroke-width="3" fill="#fff" fill-opacity=".6"/><path d="M423.33 1167.76c0 7.4-5.96 13.42-13.33 13.42s-13.33-6-13.33-13.42 5.96-13.43 13.33-13.43 13.33 6 13.33 13.43z" stroke="#000" stroke-width="3"/><path d="M423.33 1208.06c0 7.4-5.96 13.43-13.33 13.43s-13.33-6.03-13.33-13.44c0-7.42 5.96-13.43 13.33-13.43s13.33 6 13.33 13.43z" stroke="#000" stroke-width="3" fill="#ccc"/><path d="M423.33 1248.36c0 7.42-5.96 13.43-13.33 13.43s-13.33-6.02-13.33-13.44 5.96-13.43 13.33-13.43 13.33 6 13.33 13.43z" stroke="#000" stroke-width="3" fill="#666"/><path d="M423.33 1288.66c0 7.42-5.96 13.43-13.33 13.43s-13.33-6.02-13.33-13.44c0-7.4 5.96-13.44 13.33-13.44s13.33 6.03 13.33 13.44z" stroke="#000" stroke-width="3" fill="#fff"/><path d="M650 1148.06c0-4.44-3.58-8.06-8-8.06h-24c-4.42 0-8 3.62-8 8.06v163.88c0 4.44 3.58 8.06 8 8.06h24c4.42 0 8-3.62 8-8.06z" stroke="#000" stroke-width="3" fill="#666" fill-opacity=".6"/><path d="M643.33 1167.76c0 7.4-5.96 13.42-13.33 13.42s-13.33-6-13.33-13.42 5.96-13.43 13.33-13.43 13.33 6 13.33 13.43z" stroke="#000" stroke-width="3"/><path d="M643.33 1208.06c0 7.4-5.96 13.43-13.33 13.43s-13.33-6.03-13.33-13.44c0-7.42 5.96-13.43 13.33-13.43s13.33 6 13.33 13.43z" stroke="#000" stroke-width="3" fill="#ccc"/><path d="M643.33 1248.36c0 7.42-5.96 13.43-13.33 13.43s-13.33-6.02-13.33-13.44 5.96-13.43 13.33-13.43 13.33 6 13.33 13.43z" stroke="#000" stroke-width="3" fill="#666"/><path d="M643.33 1288.66c0 7.42-5.96 13.43-13.33 13.43s-13.33-6.02-13.33-13.44c0-7.4 5.96-13.44 13.33-13.44s13.33 6.03 13.33 13.44z" stroke="#000" stroke-width="3" fill="#fff"/><path d="M870 1148.06c0-4.44-3.58-8.06-8-8.06h-24c-4.42 0-8 3.62-8 8.06v163.88c0 4.44 3.58 8.06 8 8.06h24c4.42 0 8-3.62 8-8.06z" stroke="#000" stroke-width="3" fill="#ccc" fill-opacity=".6"/><path d="M863.33 1167.76c0 7.4-5.96 13.42-13.33 13.42s-13.33-6-13.33-13.42 5.96-13.43 13.33-13.43 13.33 6 13.33 13.43z" stroke="#000" stroke-width="3"/><path d="M863.33 1208.06c0 7.4-5.96 13.43-13.33 13.43s-13.33-6.03-13.33-13.44c0-7.42 5.96-13.43 13.33-13.43s13.33 6 13.33 13.43z" stroke="#000" stroke-width="3" fill="#ccc"/><path d="M863.33 1248.36c0 7.42-5.96 13.43-13.33 13.43s-13.33-6.02-13.33-13.44 5.96-13.43 13.33-13.43 13.33 6 13.33 13.43z" stroke="#000" stroke-width="3" fill="#666"/><path d="M863.33 1288.66c0 7.42-5.96 13.43-13.33 13.43s-13.33-6.02-13.33-13.44c0-7.4 5.96-13.44 13.33-13.44s13.33 6.03 13.33 13.44z" stroke="#000" stroke-width="3" fill="#fff"/><path d="M360 975c0-8.28 6.72-15 15-15h70c8.28 0 15 6.72 15 15v50c0 8.28-6.72 15-15 15h-70c-8.28 0-15-6.72-15-15z" stroke="#000" stroke-width="3" fill="#fff" fill-opacity=".48"/><use xlink:href="#d" transform="matrix(1,0,0,1,360,960) translate(17.994791666666664 47.994791666666664)"/><path d="M580 975c0-8.28 6.72-15 15-15h70c8.28 0 15 6.72 15 15v50c0 8.28-6.72 15-15 15h-70c-8.28 0-15-6.72-15-15z" stroke="#000" stroke-width="3" fill="#fff" fill-opacity=".48"/><use xlink:href="#d" transform="matrix(1,0,0,1,580,960) translate(17.994791666666664 47.994791666666664)"/><path d="M800 975c0-8.28 6.72-15 15-15h70c8.28 0 15 6.72 15 15v50c0 8.28-6.72 15-15 15h-70c-8.28 0-15-6.72-15-15z" stroke="#000" stroke-width="3" fill="#fff" fill-opacity=".48"/><use xlink:href="#d" transform="matrix(1,0,0,1,800,960) translate(17.994791666666664 47.994791666666664)"/><path d="M460 1000h118.5" stroke="#000" stroke-width="3" fill="none"/><path d="M460 1001.5v-3zM578.5 1000l-14.27 4.64v-9.28z"/><path d="M580 998.9v2.2l-17.27 5.6v-13.4zm-14.27 3.67l7.92-2.57-7.92-2.57z"/><path d="M680 1000h120" stroke="#000" stroke-width="3" fill="none"/><path d="M680 1001.5v-3zM800 1000l-14.27 4.64v-9.28z"/><path d="M800 998.42v3.16l-15.77 5.12v-13.4zm-12.77 4.15l7.92-2.57-7.92-2.57z"/><path d="M410 1140v-98.5" stroke="#000" stroke-width="3" fill="none"/><path d="M411.5 1140h-3 3zM414.64 1055.77h-9.28l4.64-14.27z"/><path d="M416.7 1057.27h-13.4l5.6-17.27h2.2zm-9.27-3h5.14l-2.57-7.92z"/><path d="M630 1140v-98.5" stroke="#000" stroke-width="3" fill="none"/><path d="M631.5 1140h-3 3zM634.64 1055.77h-9.28l4.64-14.27z"/><path d="M636.7 1057.27h-13.4l5.6-17.27h2.2zm-9.27-3h5.14l-2.57-7.92z"/><path d="M850 1140v-98.5" stroke="#000" stroke-width="3" fill="none"/><path d="M851.5 1140h-3 3zM854.64 1055.77h-9.28l4.64-14.27z"/><path d="M856.7 1057.27h-13.4l5.6-17.27h2.2zm-9.27-3h5.14l-2.57-7.92z"/><path d="M1080 918.06c0-4.44-3.58-8.06-8-8.06h-24c-4.42 0-8 3.62-8 8.06v163.88c0 4.44 3.58 8.06 8 8.06h24c4.42 0 8-3.62 8-8.06z" stroke="#000" stroke-width="3" fill="#fff" fill-opacity=".6"/><path d="M1073.33 937.76c0 7.4-5.96 13.42-13.33 13.42s-13.33-6-13.33-13.42 5.96-13.43 13.33-13.43 13.33 6 13.33 13.43z" stroke="#000" stroke-width="3"/><path d="M1073.33 978.06c0 7.4-5.96 13.43-13.33 13.43s-13.33-6.03-13.33-13.44c0-7.42 5.96-13.43 13.33-13.43s13.33 6 13.33 13.43z" stroke="#000" stroke-width="3" fill="#ccc"/><path d="M1073.33 1018.36c0 7.42-5.96 13.43-13.33 13.43s-13.33-6.02-13.33-13.44 5.96-13.43 13.33-13.43 13.33 6 13.33 13.43z" stroke="#000" stroke-width="3" fill="#666"/><path d="M1073.33 1058.66c0 7.42-5.96 13.43-13.33 13.43s-13.33-6.02-13.33-13.44c0-7.4 5.96-13.44 13.33-13.44s13.33 6.03 13.33 13.44z" stroke="#000" stroke-width="3" fill="#fff"/><path d="M900 1000h139" stroke="#000" stroke-width="3" fill="none"/><path d="M900 1001.5v-3zM1039 1000l-14.27 4.64v-9.28z"/><path d="M1040 998.75v2.5l-16.77 5.45v-13.4zm-13.77 3.82l7.92-2.57-7.92-2.57z"/><path d="M1140.47 901v273H1100V901z" stroke="#000" stroke-opacity="0" stroke-width="2" fill="#fff" fill-opacity="0"/><use xlink:href="#e" transform="matrix(6.123233995736766e-17,1,-1,6.123233995736766e-17,1135.4666666666667,906) translate(1.87890625 20.896484375)"/><use xlink:href="#f" transform="matrix(6.123233995736766e-17,1,-1,6.123233995736766e-17,1135.4666666666667,906) translate(99.0947265625 20.896484375)"/><path d="M430 708.06c0-4.44-3.58-8.06-8-8.06h-24c-4.42 0-8 3.62-8 8.06v163.88c0 4.44 3.58 8.06 8 8.06h24c4.42 0 8-3.62 8-8.06z" stroke="#000" stroke-width="3" fill="#666" fill-opacity=".6"/><path d="M423.33 727.76c0 7.4-5.96 13.42-13.33 13.42s-13.33-6-13.33-13.42 5.96-13.43 13.33-13.43 13.33 6 13.33 13.43z" stroke="#000" stroke-width="3"/><path d="M423.33 768.06c0 7.4-5.96 13.43-13.33 13.43s-13.33-6.03-13.33-13.44c0-7.42 5.96-13.43 13.33-13.43s13.33 6 13.33 13.43z" stroke="#000" stroke-width="3" fill="#ccc"/><path d="M423.33 808.36c0 7.42-5.96 13.43-13.33 13.43s-13.33-6.02-13.33-13.44 5.96-13.43 13.33-13.43 13.33 6 13.33 13.43z" stroke="#000" stroke-width="3" fill="#666"/><path d="M423.33 848.66c0 7.42-5.96 13.43-13.33 13.43s-13.33-6.02-13.33-13.44c0-7.4 5.96-13.44 13.33-13.44s13.33 6.03 13.33 13.44z" stroke="#000" stroke-width="3" fill="#fff"/><path d="M410 960v-80" stroke="#000" stroke-width="2" fill="none"/><path d="M411 960h-2 2zM414.64 894.27h-9.28L410 880z"/><path d="M416 895.27h-12l4.95-15.27h2.1zm-9.26-2h6.52L410 883.24z"/><path d="M430 1148.06c0-4.44-3.58-8.06-8-8.06h-24c-4.42 0-8 3.62-8 8.06v163.88c0 4.44 3.58 8.06 8 8.06h24c4.42 0 8-3.62 8-8.06z" stroke="#000" stroke-width="3" fill="#fff" fill-opacity=".6"/><path d="M423.33 1167.76c0 7.4-5.96 13.42-13.33 13.42s-13.33-6-13.33-13.42 5.96-13.43 13.33-13.43 13.33 6 13.33 13.43z" stroke="#000" stroke-width="3"/><path d="M423.33 1208.06c0 7.4-5.96 13.43-13.33 13.43s-13.33-6.03-13.33-13.44c0-7.42 5.96-13.43 13.33-13.43s13.33 6 13.33 13.43z" stroke="#000" stroke-width="3" fill="#ccc"/><path d="M423.33 1248.36c0 7.42-5.96 13.43-13.33 13.43s-13.33-6.02-13.33-13.44 5.96-13.43 13.33-13.43 13.33 6 13.33 13.43z" stroke="#000" stroke-width="3" fill="#666"/><path d="M423.33 1288.66c0 7.42-5.96 13.43-13.33 13.43s-13.33-6.02-13.33-13.44c0-7.4 5.96-13.44 13.33-13.44s13.33 6.03 13.33 13.44z" stroke="#000" stroke-width="3" fill="#fff"/><path d="M650 708.06c0-4.44-3.58-8.06-8-8.06h-24c-4.42 0-8 3.62-8 8.06v163.88c0 4.44 3.58 8.06 8 8.06h24c4.42 0 8-3.62 8-8.06z" stroke="#000" stroke-width="3" fill="#fff" fill-opacity=".6"/><path d="M643.33 727.76c0 7.4-5.96 13.42-13.33 13.42s-13.33-6-13.33-13.42 5.96-13.43 13.33-13.43 13.33 6 13.33 13.43z" stroke="#000" stroke-width="3"/><path d="M643.33 768.06c0 7.4-5.96 13.43-13.33 13.43s-13.33-6.03-13.33-13.44c0-7.42 5.96-13.43 13.33-13.43s13.33 6 13.33 13.43z" stroke="#000" stroke-width="3" fill="#ccc"/><path d="M643.33 808.36c0 7.42-5.96 13.43-13.33 13.43s-13.33-6.02-13.33-13.44 5.96-13.43 13.33-13.43 13.33 6 13.33 13.43z" stroke="#000" stroke-width="3" fill="#666"/><path d="M643.33 848.66c0 7.42-5.96 13.43-13.33 13.43s-13.33-6.02-13.33-13.44c0-7.4 5.96-13.44 13.33-13.44s13.33 6.03 13.33 13.44z" stroke="#000" stroke-width="3" fill="#fff"/><path d="M630 960v-80" stroke="#000" stroke-width="2" fill="none"/><path d="M631 960h-2 2zM634.64 894.27h-9.28L630 880z"/><path d="M636 895.27h-12l4.95-15.27h2.1zm-9.26-2h6.52L630 883.24z"/><path d="M870 708.06c0-4.44-3.58-8.06-8-8.06h-24c-4.42 0-8 3.62-8 8.06v163.88c0 4.44 3.58 8.06 8 8.06h24c4.42 0 8-3.62 8-8.06z" stroke="#000" stroke-width="3" fill="#ccc" fill-opacity=".6"/><path d="M863.33 727.76c0 7.4-5.96 13.42-13.33 13.42s-13.33-6-13.33-13.42 5.96-13.43 13.33-13.43 13.33 6 13.33 13.43z" stroke="#000" stroke-width="3"/><path d="M863.33 768.06c0 7.4-5.96 13.43-13.33 13.43s-13.33-6.03-13.33-13.44c0-7.42 5.96-13.43 13.33-13.43s13.33 6 13.33 13.43z" stroke="#000" stroke-width="3" fill="#ccc"/><path d="M863.33 808.36c0 7.42-5.96 13.43-13.33 13.43s-13.33-6.02-13.33-13.44 5.96-13.43 13.33-13.43 13.33 6 13.33 13.43z" stroke="#000" stroke-width="3" fill="#666"/><path d="M863.33 848.66c0 7.42-5.96 13.43-13.33 13.43s-13.33-6.02-13.33-13.44c0-7.4 5.96-13.44 13.33-13.44s13.33 6.03 13.33 13.44z" stroke="#000" stroke-width="3" fill="#fff"/><path d="M850 960v-78.5" stroke="#000" stroke-width="2" fill="none"/><path d="M851 960h-2 2zM854.64 895.77h-9.28L850 881.5z"/><path d="M856 896.77h-12l5.44-16.77h1.12zm-9.26-2h6.52L850 884.74z"/><path d="M450 1221.36h40V1244h-40z" fill="#fff" fill-opacity="0"/><path d="M464.37 1222.5l1.15 12.56c4.67-5.85 5.88-7.74 5.88-9.27 0-.44-.2-.73-.78-1.26-.57-.54-.75-.97-.75-1.46 0-.58.6-1.1 1.4-1.1 1.06 0 1.84.85 1.84 2 0 2.27-2.63 6.44-7.55 12.44l-.32.4c-.96 1.16-1.28 1.52-1.6 1.52-.25 0-.33-.32-.4-1.25l-1.03-11.06-3.18 5.42c-.64 1.07-1.28 2.24-1.96 3.53-1.28 2.45-1.9 3.34-2.28 3.34-.32 0-.4-.28-.46-1.67l-.15-3.25c-.14-3.1-.53-6.92-.96-8.63-.3-1.33-.63-1.5-1.67-1.5h-1v-.47c1.1-.18 2.32-.33 3.4-.6.46-.12.78-.26 1.03-.26.4 0 .43.07.68 1.2.5 2.44 1 6.9 1.14 10.04l6.85-10.84c.17-.28.28-.35.46-.35.2 0 .27.1.27.5M485.8 1234.75c0 4.34-1.6 8.68-5.7 8.68-4.32 0-5.7-4.7-5.7-8.83 0-4.47 1.73-8.58 5.8-8.58 3.3 0 5.6 3.56 5.6 8.73m-2.43.12c0-5.24-1.1-8.2-3.33-8.2-2.1 0-3.23 2.98-3.23 8.1 0 5.12 1.12 8 3.3 8 2.13 0 3.27-2.9 3.27-7.9"/><path d="M669.73 1221H711v23h-41.27z" fill="#fff" fill-opacity="0"/><path d="M684.56 1222.18l1.18 12.95c4.82-6.03 6.07-7.98 6.07-9.57 0-.44-.2-.73-.8-1.28-.6-.56-.77-1-.77-1.5 0-.6.63-1.15 1.44-1.15 1.1 0 1.9.88 1.9 2.06 0 2.34-2.7 6.65-7.8 12.83l-.32.4c-1 1.22-1.33 1.6-1.66 1.6-.27 0-.34-.34-.4-1.3l-1.08-11.4-3.28 5.6c-.66 1.1-1.32 2.3-2.02 3.63-1.33 2.54-1.95 3.46-2.36 3.46-.33 0-.4-.3-.47-1.73l-.16-3.36c-.15-3.2-.55-7.14-1-8.9-.33-1.37-.66-1.55-1.73-1.55h-1.02v-.5c1.15-.17 2.4-.32 3.5-.62.48-.1.8-.25 1.07-.25.4 0 .44.07.7 1.25.5 2.5 1.03 7.1 1.17 10.34l7.07-11.2c.17-.28.28-.36.47-.36.22 0 .3.1.3.52M704.52 1243.4h-7.18v-.4c1.93-.1 2.47-.64 2.47-2.07v-11.7c0-.87-.22-1.26-.77-1.26-.26 0-.7.13-1.17.3l-.7.27v-.36l4.66-2.37.23.1v15.52c0 1.12.52 1.6 2.47 1.6v.38"/><path d="M900.26 1221h39.48v22h-39.48z" fill="#fff" fill-opacity="0"/><path d="M914.45 1222.13l1.12 12.4c4.62-5.78 5.8-7.65 5.8-9.16 0-.43-.2-.7-.76-1.24-.55-.52-.73-.95-.73-1.44 0-.57.6-1.1 1.37-1.1 1.06 0 1.83.84 1.83 1.97 0 2.26-2.6 6.38-7.46 12.3l-.3.38c-.96 1.16-1.28 1.5-1.6 1.5-.24 0-.3-.3-.38-1.22l-1.02-10.92-3.14 5.37c-.63 1.05-1.26 2.2-1.93 3.48-1.27 2.43-1.87 3.3-2.26 3.3-.3 0-.38-.27-.45-1.64l-.14-3.2c-.15-3.06-.53-6.83-.96-8.52-.3-1.3-.63-1.48-1.65-1.48h-1v-.46c1.1-.17 2.3-.3 3.36-.6.46-.1.77-.24 1.02-.24.4 0 .42.07.67 1.2.5 2.4 1 6.8 1.13 9.9l6.76-10.7c.18-.3.3-.37.46-.37.22 0 .3.1.3.5M935.54 1239.02l-1.35 3.4h-9.74v-.3l4.43-4.7c2.33-2.46 3.23-4.35 3.23-6.47 0-2.26-1.35-3.5-3.46-3.5-1.8 0-2.67.8-3.66 3.23l-.52-.12c.53-2.92 2.12-4.96 5.18-4.96 2.82 0 4.6 1.92 4.6 4.38 0 1.97-.96 3.84-3.18 6.18l-4.1 4.38h5.82c1.05 0 1.57-.27 2.4-1.67"/><path d="M450 780h32.05v22.64H450z" fill="#fff" fill-opacity="0"/><path d="M462.77 792.45l.43.43c-2.04 2.5-4.32 3.85-7.28 3.85-2.9 0-4.8-1.93-4.8-4.9 0-5.52 5.3-11.22 10.65-11.22 1.9 0 2.93.93 2.93 2.43 0 3.07-3.75 5.85-10.13 6.67-.36.72-.36 1.64-.36 2.18 0 1.96 1.33 3.24 3.33 3.24 1.57 0 2.67-.57 5.24-2.67m-7.35-5.1l-.6 1.57c3.06-.75 4.42-1.4 5.74-2.64 1.1-1.07 1.78-2.36 1.78-3.46 0-.86-.25-1.4-1.25-1.4-2.04 0-4.47 2.75-5.68 5.93M477.85 793.4c0 4.32-1.6 8.66-5.7 8.66-4.32 0-5.7-4.7-5.7-8.82 0-4.47 1.74-8.58 5.8-8.58 3.3 0 5.6 3.56 5.6 8.73m-2.43.1c0-5.23-1.1-8.18-3.33-8.18-2.1 0-3.23 2.97-3.23 8.1 0 5.1 1.1 8 3.28 8 2.14 0 3.27-2.9 3.27-7.9"/><path d="M678.95 780.36H711v22.3h-32.05z" fill="#fff" fill-opacity="0"/><path d="M691.72 792.8l.43.44c-2.03 2.5-4.3 3.85-7.27 3.85-2.9 0-4.82-1.93-4.82-4.9 0-5.52 5.3-11.23 10.67-11.23 1.9 0 2.92.93 2.92 2.42 0 3.06-3.75 5.84-10.13 6.67-.36.7-.36 1.64-.36 2.17 0 1.96 1.32 3.25 3.32 3.25 1.57 0 2.68-.58 5.24-2.7m-7.34-5.1l-.6 1.58c3.06-.75 4.4-1.4 5.73-2.64 1.12-1.07 1.8-2.35 1.8-3.46 0-.86-.25-1.4-1.25-1.4-2.04 0-4.46 2.76-5.67 5.93M704.73 802.07h-6.96v-.38c1.87-.1 2.4-.64 2.4-2.02v-11.33c0-.86-.23-1.23-.76-1.23-.24 0-.67.12-1.13.3l-.68.25v-.35l4.5-2.3.24.08v15.06c0 1.08.5 1.53 2.4 1.53v.37"/><path d="M900.45 781h31.14v21.66h-31.15z" fill="#fff" fill-opacity="0"/><path d="M912.86 793.1l.42.4c-1.98 2.44-4.2 3.76-7.07 3.76-2.8 0-4.67-1.87-4.67-4.75 0-5.36 5.16-10.9 10.36-10.9 1.83 0 2.83.9 2.83 2.35 0 2.98-3.64 5.68-9.84 6.48-.36.7-.36 1.6-.36 2.1 0 1.92 1.28 3.17 3.23 3.17 1.52 0 2.6-.56 5.1-2.6m-7.15-4.96l-.6 1.53c3-.73 4.3-1.35 5.6-2.57 1.07-1.04 1.73-2.3 1.73-3.36 0-.83-.25-1.35-1.22-1.35-1.97 0-4.33 2.66-5.5 5.74M927.46 798.74l-1.32 3.36h-9.58v-.3l4.36-4.63c2.3-2.43 3.18-4.3 3.18-6.37 0-2.23-1.32-3.46-3.4-3.46-1.77 0-2.62.8-3.6 3.2l-.52-.13c.5-2.86 2.08-4.87 5.1-4.87 2.77 0 4.53 1.9 4.53 4.3 0 1.95-.94 3.8-3.12 6.1l-4.05 4.3h5.74c1.03 0 1.54-.26 2.35-1.64"/><path d="M1048.86 1120h15.4v16.85h-15.4z" fill="#fff" fill-opacity="0"/><path d="M1061.27 1132.1l.4.4c-1.96 2.44-4.18 3.76-7.06 3.76-2.8 0-4.67-1.87-4.67-4.75 0-5.36 5.17-10.9 10.37-10.9 1.83 0 2.84.9 2.84 2.35 0 2.98-3.64 5.68-9.85 6.48-.35.7-.35 1.6-.35 2.1 0 1.92 1.28 3.17 3.22 3.17 1.53 0 2.6-.56 5.1-2.6m-7.14-4.96l-.6 1.53c3-.73 4.3-1.35 5.6-2.57 1.06-1.04 1.72-2.3 1.72-3.36 0-.83-.24-1.35-1.2-1.35-2 0-4.35 2.66-5.52 5.74"/><path d="M410 1349v-27.5" stroke="#000" stroke-width="2" fill="none"/><path d="M411 1349h-2 2zM414.64 1335.77h-9.28l4.64-14.27z"/><path d="M416 1336.77h-12l5.44-16.77h1.12zm-9.26-2h6.52l-3.26-10.03z"/><path d="M630 1349v-27.5" stroke="#000" stroke-width="2" fill="none"/><path d="M631 1349h-2 2zM634.64 1335.77h-9.28l4.64-14.27z"/><path d="M636 1336.77h-12l5.44-16.77h1.12zm-9.26-2h6.52l-3.26-10.03z"/><path d="M850 1349v-27.5" stroke="#000" stroke-width="2" fill="none"/><path d="M851 1349h-2 2zM854.64 1335.77h-9.28l4.64-14.27z"/><path d="M856 1336.77h-12l5.44-16.77h1.12zm-9.26-2h6.52l-3.26-10.03z"/><defs><path d="M424-1484c-2 206 5 424-8 618h4c67-145 160-234 348-236 251-3 335 167 336 416V0H824v-621c0-150-23-276-173-270-163 7-227 142-227 312V0H143v-1484h281" id="g"/><path d="M616-1102c361 0 521 202 521 560 0 354-171 562-527 562C259 20 92-192 92-542c0-351 169-560 524-560zm-9 930c200-2 236-165 236-370 0-199-27-367-223-367-195 0-233 146-233 367 0 129 18 223 55 282s92 88 165 88" id="h"/><path d="M1028 0H784c-56-191-119-378-170-573C562-377 495-191 437 0H194L11-1082h228c32 239 67 472 95 714 4 40 7 80 7 119 53-195 119-378 177-568h193c56 190 120 371 169 568-1-79 11-158 21-226l91-607h226" id="i"/><g id="a"><use transform="matrix(0.01193576388888889,0,0,0.01193576388888889,0,0)" xlink:href="#g"/><use transform="matrix(0.01193576388888889,0,0,0.01193576388888889,14.669053819444446,0)" xlink:href="#h"/><use transform="matrix(0.01193576388888889,0,0,0.01193576388888889,29.338107638888893,0)" xlink:href="#i"/></g><path d="M143 212c82 12 185 12 233-31 50-45 83-117 110-192L38-1082h297c100 284 211 557 291 861 72-305 176-578 270-861h294L742 57c-80 192-156 368-417 368-60 0-131-4-182-13V212" id="j"/><path d="M471 20c-247 0-336-169-336-415v-687h281v607c4 148 31 285 172 285 152 0 207-150 207-312v-580h281c4 359-9 736 8 1082H816c-7-63-11-146-12-215h-5C736-76 644 20 471 20" id="k"/><g id="b"><use transform="matrix(0.01193576388888889,0,0,0.01193576388888889,0,0)" xlink:href="#j"/><use transform="matrix(0.01193576388888889,0,0,0.01193576388888889,14.669053819444446,0)" xlink:href="#h"/><use transform="matrix(0.01193576388888889,0,0,0.01193576388888889,29.338107638888893,0)" xlink:href="#k"/></g><path d="M775-193C708-75 621 20 439 20 226 20 106-93 106-306c0-251 170-341 417-346l223-4c4-143-12-264-148-264-103 0-141 58-150 153l-293-14c37-219 194-321 455-321 263 0 418 130 417 390v392c1 84 5 161 89 160 21 0 42-2 62-6v152c-57 15-108 27-180 26-145 0-202-73-217-205h-6zm-256 17c168 0 234-139 227-325-166 4-347-25-347 173 0 94 33 152 120 152" id="l"/><path d="M875-1102c70 0 148 7 206 17v237c-110-17-267-37-359 15-123 69-192 207-192 395V0H250c-10-367 32-789-52-1082h271c19 69 36 149 46 228h4c52-151 151-250 356-248" id="m"/><path d="M1113-274C1038-96 884 20 626 20c-352 0-526-209-526-566 0-358 185-556 530-556 358 0 496 251 499 615H395c5 180 68 319 245 319 102 0 186-45 208-129zM857-663c-6-177-128-307-315-247-94 30-141 121-145 247h460" id="n"/><g id="c"><use transform="matrix(0.01193576388888889,0,0,0.01193576388888889,0,0)" xlink:href="#l"/><use transform="matrix(0.01193576388888889,0,0,0.01193576388888889,14.669053819444446,0)" xlink:href="#m"/><use transform="matrix(0.01193576388888889,0,0,0.01193576388888889,29.338107638888893,0)" xlink:href="#n"/></g><path d="M237 0v-1349h191v1193h672V0H237" id="o"/><path d="M614-1226c-167 1-283 53-283 213 0 183 186 193 334 234 230 63 463 120 463 409 0 286-219 387-518 390C309 23 131-98 79-338l185-37c34 165 149 248 351 246 184-2 324-58 324-238 0-203-207-221-372-266-210-57-422-111-422-377 0-267 201-356 470-360 279-5 430 101 480 324l-188 33c-28-141-121-215-293-213" id="p"/><path d="M709-1193V0H519v-1193H76v-156h1076v156H709" id="q"/><path d="M285-1169c8 382 2 780 4 1169H129v-1349h237c86 239 188 461 253 720 69-258 169-481 255-720h225V0H937c2-390-5-788 6-1169-75 255-170 488-259 729H547c-90-240-185-475-262-729" id="r"/><g id="d"><use transform="matrix(0.013020833333333334,0,0,0.013020833333333334,0,0)" xlink:href="#o"/><use transform="matrix(0.013020833333333334,0,0,0.013020833333333334,16.002604166666668,0)" xlink:href="#p"/><use transform="matrix(0.013020833333333334,0,0,0.013020833333333334,32.005208333333336,0)" xlink:href="#q"/><use transform="matrix(0.013020833333333334,0,0,0.013020833333333334,48.0078125,0)" xlink:href="#r"/></g><path d="M621-530c0 421 127 700 301 955H641C466 173 344-110 344-531s122-702 297-953h281c-174 254-301 534-301 954" id="s"/><path d="M768-1103c247 0 336 167 336 416V0H824v-619c-3-164-24-273-171-273-164 0-229 142-229 312V0H143c-4-359 9-736-8-1082h268c7 63 12 146 13 215h4c67-145 160-236 348-236" id="t"/><path d="M1109-360C1066-122 902 20 624 20c-347 0-514-209-514-555 0-353 168-567 518-567 270 0 425 136 473 361l-283 14c-16-106-75-183-196-182-75 0-130 31-165 93s-52 152-52 270c0 249 74 374 221 374 120 0 188-82 201-201" id="u"/><path d="M802-909c-3-189-2-383-2-575h281v1248c-1 83 4 168 8 236H817c-9-50-14-117-15-176h-4C735-49 651 20 482 20 191 20 97-238 97-539c0-243 66-432 221-519 50-28 108-42 175-42 162 2 253 78 309 191zm-70 658c91-113 93-462 2-584-46-61-145-100-224-53-96 56-119 190-120 349 0 123 17 214 52 275 46 82 130 115 222 74 25-12 46-33 68-61" id="v"/><g id="e"><use transform="matrix(0.0087890625,0,0,0.0087890625,0,0)" xlink:href="#s"/><use transform="matrix(0.0087890625,0,0,0.0087890625,10.8017578125,0)" xlink:href="#n"/><use transform="matrix(0.0087890625,0,0,0.0087890625,21.603515625,0)" xlink:href="#t"/><use transform="matrix(0.0087890625,0,0,0.0087890625,32.4052734375,0)" xlink:href="#u"/><use transform="matrix(0.0087890625,0,0,0.0087890625,43.20703125,0)" xlink:href="#h"/><use transform="matrix(0.0087890625,0,0,0.0087890625,54.0087890625,0)" xlink:href="#v"/><use transform="matrix(0.0087890625,0,0,0.0087890625,64.810546875,0)" xlink:href="#n"/><use transform="matrix(0.0087890625,0,0,0.0087890625,75.6123046875,0)" xlink:href="#m"/></g><path d="M427-171c3 195 2 397 2 596H148V-846c1-83-4-168-8-236h272c10 49 14 118 15 176h4c59-114 151-197 316-197 291 0 385 259 385 560 0 243-65 433-220 521-50 28-109 42-176 42-162-2-253-78-309-191zm69-661c-91 113-92 463-1 586 46 62 145 101 225 54 96-57 118-191 119-351 0-123-18-215-53-276-46-82-128-115-220-74-25 12-48 33-70 61" id="w"/><path d="M622-916c-112 2-200 14-200 111 0 90 89 101 168 121 234 58 514 77 514 368C1104-4 751 54 434 5 267-21 161-112 121-270l247-37c24 111 113 145 252 141 114-3 226-12 226-124 0-101-103-113-192-134-225-54-490-76-490-351 0-247 201-328 458-328 245 0 413 88 457 292l-249 26c-16-98-92-133-208-131" id="x"/><path d="M711 13c-250 0-386-99-385-349l2-556H161v-190h181l88-282h176v282h385v190H606v530c-10 130 45 186 174 184 91-2 176-11 255-27v186C933-1 833 13 711 13" id="y"/><path d="M794-190h353V0H118v-190h395v-702H223v-190h571v892zM513-1277v-207h281v207H513" id="z"/><path d="M885-531c0 421-122 704-297 956H307c174-255 301-534 301-955 0-420-127-700-301-954h281c175 251 297 532 297 953" id="A"/><g id="f"><use transform="matrix(0.0087890625,0,0,0.0087890625,0,0)" xlink:href="#m"/><use transform="matrix(0.0087890625,0,0,0.0087890625,10.8017578125,0)" xlink:href="#n"/><use transform="matrix(0.0087890625,0,0,0.0087890625,21.603515625,0)" xlink:href="#w"/><use transform="matrix(0.0087890625,0,0,0.0087890625,32.4052734375,0)" xlink:href="#m"/><use transform="matrix(0.0087890625,0,0,0.0087890625,43.20703125,0)" xlink:href="#n"/><use transform="matrix(0.0087890625,0,0,0.0087890625,54.0087890625,0)" xlink:href="#x"/><use transform="matrix(0.0087890625,0,0,0.0087890625,64.810546875,0)" xlink:href="#n"/><use transform="matrix(0.0087890625,0,0,0.0087890625,75.6123046875,0)" xlink:href="#t"/><use transform="matrix(0.0087890625,0,0,0.0087890625,86.4140625,0)" xlink:href="#y"/><use transform="matrix(0.0087890625,0,0,0.0087890625,97.2158203125,0)" xlink:href="#l"/><use transform="matrix(0.0087890625,0,0,0.0087890625,108.017578125,0)" xlink:href="#y"/><use transform="matrix(0.0087890625,0,0,0.0087890625,118.8193359375,0)" xlink:href="#z"/><use transform="matrix(0.0087890625,0,0,0.0087890625,129.62109375,0)" xlink:href="#h"/><use transform="matrix(0.0087890625,0,0,0.0087890625,140.4228515625,0)" xlink:href="#t"/><use transform="matrix(0.0087890625,0,0,0.0087890625,151.224609375,0)" xlink:href="#A"/></g></defs></g></svg>