<svg xmlns="http://www.w3.org/2000/svg" xmlns:xlink="http://www.w3.org/1999/xlink" xmlns:lucid="lucid" width="1300" height="1034"><g transform="translate(0 -320)" lucid:page-tab-id="0_0"><path d="M1060.4 1080c0-11.05 8.95-20 20-20h14.4c11.05 0 20 8.95 20 20v234c0 11.05-8.95 20-20 20h-14.4c-11.05 0-20-8.95-20-20z" stroke="#000" stroke-opacity="0" stroke-width=".5" fill="#d1bcd2" fill-opacity=".3"/><path d="M60 360c0-11.05 8.95-20 20-20h580c11.05 0 20 8.95 20 20v460c0 11.05-8.95 20-20 20H80c-11.05 0-20-8.95-20-20z" stroke="#000" stroke-opacity="0" stroke-width=".5" fill="#f5b5c8" fill-opacity=".3"/><path d="M60 881c0-11.05 8.95-20 20-20h580c11.05 0 20 8.95 20 20v118c0 11.05-8.95 20-20 20H80c-11.05 0-20-8.95-20-20z" stroke="#000" stroke-opacity="0" stroke-width=".5" fill="#d1bcd2" fill-opacity=".3"/><path d="M100 896c0-8.28 6.72-15 15-15h70c8.28 0 15 6.72 15 15v50c0 8.28-6.72 15-15 15h-70c-8.28 0-15-6.72-15-15z" stroke="#000" stroke-width="3" fill="#fff" fill-opacity=".48"/><use xlink:href="#a" transform="matrix(1,0,0,1,100,881.0000000000001) translate(17.994791666666664 47.994791666666664)"/><path d="M320 896c0-8.28 6.72-15 15-15h70c8.28 0 15 6.72 15 15v50c0 8.28-6.72 15-15 15h-70c-8.28 0-15-6.72-15-15z" stroke="#000" stroke-width="3" fill="#fff" fill-opacity=".48"/><use xlink:href="#a" transform="matrix(1,0,0,1,319.99999999999994,881.0000000000001) translate(17.994791666666664 47.994791666666664)"/><path d="M540 896c0-8.28 6.72-15 15-15h70c8.28 0 15 6.72 15 15v50c0 8.28-6.72 15-15 15h-70c-8.28 0-15-6.72-15-15z" stroke="#000" stroke-width="3" fill="#fff" fill-opacity=".48"/><use xlink:href="#a" transform="matrix(1,0,0,1,540,881.0000000000001) translate(17.994791666666664 47.994791666666664)"/><path d="M200 921h118.5" stroke="#000" stroke-width="3" fill="none"/><path d="M200 922.5v-3zM318.5 921l-14.27 4.64v-9.28z"/><path d="M320 919.9v2.2l-17.27 5.6v-13.4zm-14.27 3.67l7.92-2.57-7.92-2.57z"/><path d="M420 921h120" stroke="#000" stroke-width="3" fill="none"/><path d="M420 922.5v-3zM540 921l-14.27 4.64v-9.28z"/><path d="M540 919.42v3.16l-15.77 5.12v-13.4zm-12.77 4.15l7.92-2.57-7.92-2.57z"/><path d="M164.62 706.38c0-2.97-2.55-5.38-5.7-5.38h-17.16c-3.16 0-5.72 2.4-5.72 5.38v109.24c0 2.97 2.56 5.38 5.72 5.38h17.15c3.17 0 5.72-2.4 5.72-5.38z" stroke="#000" stroke-width="3" fill="#666" fill-opacity=".6"/><path d="M159.86 719.5c0 4.95-4.26 8.96-9.53 8.96-5.26 0-9.52-4-9.52-8.96 0-4.94 4.27-8.95 9.53-8.95 5.27 0 9.53 4 9.53 8.95z" stroke="#000" stroke-width="3"/><path d="M159.86 746.37c0 4.95-4.26 8.95-9.53 8.95-5.26 0-9.52-4-9.52-8.95 0-4.94 4.27-8.95 9.53-8.95 5.27 0 9.53 4 9.53 8.95z" stroke="#000" stroke-width="3" fill="#ccc"/><path d="M159.86 773.24c0 4.94-4.26 8.95-9.53 8.95-5.26 0-9.52-4.02-9.52-8.96 0-4.94 4.27-8.95 9.53-8.95 5.27 0 9.53 4 9.53 8.94z" stroke="#000" stroke-width="3" fill="#666"/><path d="M159.86 800.1c0 4.95-4.26 8.96-9.53 8.96-5.26 0-9.52-4-9.52-8.95 0-4.94 4.27-8.96 9.53-8.96 5.27 0 9.53 4.02 9.53 8.97z" stroke="#000" stroke-width="3" fill="#fff"/><path d="M384.04 706.38c0-2.97-2.56-5.38-5.72-5.38h-17.15c-3.15 0-5.7 2.4-5.7 5.38v109.24c0 2.97 2.55 5.38 5.7 5.38h17.15c3.16 0 5.72-2.4 5.72-5.38z" stroke="#000" stroke-width="3" fill="#fff" fill-opacity=".6"/><path d="M379.28 719.5c0 4.95-4.27 8.96-9.53 8.96-5.27 0-9.53-4-9.53-8.96 0-4.94 4.26-8.95 9.53-8.95 5.26 0 9.53 4 9.53 8.95z" stroke="#000" stroke-width="3"/><path d="M379.28 746.37c0 4.95-4.27 8.95-9.53 8.95-5.27 0-9.53-4-9.53-8.95 0-4.94 4.26-8.95 9.53-8.95 5.26 0 9.53 4 9.53 8.95z" stroke="#000" stroke-width="3" fill="#ccc"/><path d="M379.28 773.24c0 4.94-4.27 8.95-9.53 8.95-5.27 0-9.53-4.02-9.53-8.96 0-4.94 4.26-8.95 9.53-8.95 5.26 0 9.53 4 9.53 8.94z" stroke="#000" stroke-width="3" fill="#666"/><path d="M379.28 800.1c0 4.95-4.27 8.96-9.53 8.96-5.27 0-9.53-4-9.53-8.95 0-4.94 4.26-8.96 9.53-8.96 5.26 0 9.53 4.02 9.53 8.97z" stroke="#000" stroke-width="3" fill="#fff"/><path d="M604 706.38c0-2.97-2.5-5.38-5.58-5.38h-16.75c-3.1 0-5.6 2.4-5.6 5.38v109.24c0 2.97 2.5 5.38 5.6 5.38h16.75c3.08 0 5.58-2.4 5.58-5.38z" stroke="#000" stroke-width="3" fill="#ccc" fill-opacity=".6"/><path d="M599.35 719.5c0 4.95-4.17 8.96-9.3 8.96-5.15 0-9.3-4-9.3-8.96 0-4.94 4.15-8.95 9.3-8.95 5.13 0 9.3 4 9.3 8.95z" stroke="#000" stroke-width="3"/><path d="M599.35 746.37c0 4.95-4.17 8.95-9.3 8.95-5.15 0-9.3-4-9.3-8.95 0-4.94 4.15-8.95 9.3-8.95 5.13 0 9.3 4 9.3 8.95z" stroke="#000" stroke-width="3" fill="#ccc"/><path d="M599.35 773.24c0 4.94-4.17 8.95-9.3 8.95-5.15 0-9.3-4.02-9.3-8.96 0-4.94 4.15-8.95 9.3-8.95 5.13 0 9.3 4 9.3 8.94z" stroke="#000" stroke-width="3" fill="#666"/><path d="M599.35 800.1c0 4.95-4.17 8.96-9.3 8.96-5.15 0-9.3-4-9.3-8.95 0-4.94 4.15-8.96 9.3-8.96 5.13 0 9.3 4.02 9.3 8.97z" stroke="#000" stroke-width="3" fill="#fff"/><path d="M590 881v-58.5" stroke="#000" stroke-width="3" fill="none"/><path/><path d="M594.64 836.77h-9.28L590 822.5z"/><path d="M596.7 838.27h-13.4l5.6-17.27h2.2zm-9.27-3h5.14l-2.57-7.92z"/><path d="M370 881v-58.5" stroke="#000" stroke-width="3" fill="none"/><path/><path d="M374.64 836.77h-9.28L370 822.5z"/><path d="M376.7 838.27h-13.4l5.6-17.27h2.2zm-9.27-3h5.14l-2.57-7.92z"/><path d="M150.08 881l.13-60" stroke="#000" stroke-width="3" fill="none"/><path d="M150.08 881h-1.5zM154.8 835.28l-9.26-.02L150.2 821z"/><path d="M156.88 836.78l-13.4-.03 5.15-15.75h3.15zm-9.27-3.02h5.15l-2.55-7.9z"/><path d="M561.5 620c0-11.05 8.95-20 20-20h17c11.05 0 20 8.95 20 20s-8.95 20-20 20h-17c-11.05 0-20-8.95-20-20z" stroke="#000" stroke-width="3" fill="#d1bcd2"/><use xlink:href="#b" transform="matrix(1,0,0,1,561.5,600) translate(23.09912109375 25.396484375)"/><path d="M118.5 620c0-11.05 8.95-20 20-20h17c11.05 0 20 8.95 20 20s-8.95 20-20 20h-17c-11.05 0-20-8.95-20-20z" stroke="#000" stroke-width="3" fill="#d1bcd2"/><use xlink:href="#b" transform="matrix(1,0,0,1,118.5,600) translate(23.09912109375 25.396484375)"/><path d="M340 620c0-11.05 8.95-20 20-20h17c11.05 0 20 8.95 20 20s-8.95 20-20 20h-17c-11.05 0-20-8.95-20-20z" stroke="#000" stroke-width="3" fill="#d1bcd2"/><use xlink:href="#b" transform="matrix(1,0,0,1,340,600) translate(23.09912109375 25.396484375)"/><path d="M590.04 701v-59.5" stroke="#000" stroke-width="3" fill="none"/><path d="M591.54 701h-3 3zM594.68 655.77h-9.27l4.64-14.27z"/><path d="M596.74 657.27h-13.4l5.6-17.27h2.2zm-9.27-3h5.14l-2.56-7.92z"/><path d="M150.33 701v-59.5" stroke="#000" stroke-width="3" fill="none"/><path d="M151.83 701h-3 3zM154.97 655.77h-9.27l4.63-14.27z"/><path d="M157.03 657.27h-13.4l5.6-17.27h2.2zm-9.27-3h5.14l-2.57-7.92z"/><path d="M369.75 701v-59.5" stroke="#000" stroke-width="3" fill="none"/><path d="M371.25 701h-3 3zM374.38 655.77h-9.27l4.65-14.27z"/><path d="M376.45 657.27h-13.4l5.6-17.27h2.2zm-9.27-3h5.14l-2.57-7.92z"/><path d="M119 529.5c0-3.87 3.13-7 7-7h486c3.87 0 7 3.13 7 7v21c0 3.87-3.13 7-7 7H126c-3.87 0-7-3.13-7-7z" stroke="#000" stroke-width="3" fill="#e5e5e5"/><path d="M597 539.5c0 5.52-4.48 10-10 10s-10-4.48-10-10 4.48-10 10-10 10 4.48 10 10z" stroke="#000" stroke-width="3" fill="#fff"/><path d="M380 540c0 5.52-4.48 10-10 10s-10-4.48-10-10 4.48-10 10-10 10 4.48 10 10z" stroke="#000" stroke-width="3" fill="#d1bcd2"/><path d="M158 539.5c0 5.52-4.92 10-11 10s-11-4.48-11-10 4.92-10 11-10 11 4.48 11 10z" stroke="#000" stroke-width="3" fill="#834187"/><path d="M147 600v-49" stroke="#000" stroke-width="3" fill="none"/><path/><path d="M151.64 565.28h-9.28L147 551z"/><path d="M147 549.5l1.04-.14 5.66 17.42h-13.4l5.66-17.42zm-2.57 14.28h5.14l-2.57-7.9z"/><path d="M368.5 600v-48.72" stroke="#000" stroke-width="3" fill="none"/><path/><path d="M373.14 565.54h-9.28l4.64-14.26z"/><path d="M369.64 549.94l5.56 17.1h-13.4l5.67-17.45zm-3.7 14.1h5.13l-2.57-7.9z"/><path d="M590 600v-49.46" stroke="#000" stroke-width="3" fill="none"/><path/><path d="M594.64 564.8h-9.28l4.64-14.26z"/><path d="M596.7 566.3h-13.4l5.56-17.1 1.3-.2.78-.4zm-9.27-3h5.14l-2.57-7.9z"/><path d="M320 480c0-11.05 8.95-20 20-20h58c11.05 0 20 8.95 20 20s-8.95 20-20 20h-58c-11.05 0-20-8.95-20-20z" stroke="#000" stroke-width="3" fill="#d1bcd2"/><use xlink:href="#c" transform="matrix(1,0,0,1,320,460) translate(11.19384765625 25.396484375)"/><path d="M369 522.5v-21" stroke="#000" stroke-width="3" fill="none"/><path/><path d="M373.64 515.77h-9.28L369 501.5z"/><path d="M375.7 517.27h-13.4l5.6-17.27h2.2zm-9.27-3h5.14l-2.57-7.92z"/><path d="M120 409.5c0-3.87 3.13-7 7-7h486c3.87 0 7 3.13 7 7v21c0 3.87-3.13 7-7 7H127c-3.87 0-7-3.13-7-7z" stroke="#000" stroke-width="3" fill="#e5e5e5"/><path d="M598 419.5c0 5.52-4.48 10-10 10s-10-4.48-10-10 4.48-10 10-10 10 4.48 10 10z" stroke="#000" stroke-width="3" fill="#fff"/><path d="M381 420c0 5.52-4.48 10-10 10s-10-4.48-10-10 4.48-10 10-10 10 4.48 10 10z" stroke="#000" stroke-width="3" fill="#d1bcd2"/><path d="M159 419.5c0 5.52-4.92 10-11 10s-11-4.48-11-10 4.92-10 11-10 11 4.48 11 10z" stroke="#000" stroke-width="3" fill="#834187"/><path d="M369 460v-21" stroke="#000" stroke-width="3" fill="none"/><path/><path d="M373.64 453.27h-9.28L369 439z"/><path d="M375.7 454.77h-13.4l5.6-17.27h2.2zm-9.27-3h5.14l-2.57-7.92z"/><path d="M251.53 750h67.97v24h-67.97z" fill="#fff" fill-opacity="0"/><path d="M271.24 762h-8.08v8.1h-2.05V762h-8.08v-2.03h8.1v-8.1h2.04v8.1h8.08V762M305.3 755.57l-4.4 8.1v.54c0 1.5.38 3.08 1.06 3.08.43 0 .93-.6 1.58-2.3l.5.23c-.7 2.3-1.65 3.9-3.13 3.9-1.17 0-1.54-1.35-1.6-3.24-1.56 1.9-3.7 3.3-6.02 3.3-3 0-4.15-2.1-4.15-4.7 0-2.5 1.08-5.14 2.82-6.9 1.36-1.4 3.44-2.4 5.36-2.4 2.64 0 3.92 1.86 3.92 3.7l1.42-3.3h2.67m-5.88 4.84c0-2.1-.4-4.58-2.4-4.58-1.94 0-5.35 4.2-5.35 9.14 0 1.76.56 3.56 2.14 3.56 2.18 0 4.3-4.18 5.12-5.92.13-.6.5-1.36.5-2.2M301.65 752.22H292v-1.67h9.65v1.67M314.04 773.5H308v-.33c1.62-.1 2.08-.55 2.08-1.75v-9.84c0-.75-.2-1.08-.66-1.08-.22 0-.6.1-1 .27l-.58.22v-.32l3.92-2 .2.07v13.08c0 .95.44 1.34 2.08 1.34v.33"/><path d="M473.55 750.54H540V774h-66.45z" fill="#fff" fill-opacity="0"/><path d="M492.82 762.28h-7.9v7.9h-2v-7.9H475v-2h7.9v-7.9h2v7.9h7.9v2M526.12 755.98l-4.3 7.9v.55c0 1.46.37 3 1.03 3 .43 0 .9-.57 1.55-2.24l.48.2c-.66 2.24-1.6 3.82-3.06 3.82-1.15 0-1.5-1.33-1.57-3.18-1.52 1.85-3.6 3.24-5.88 3.24-2.94 0-4.06-2.06-4.06-4.6 0-2.46 1.07-5.03 2.76-6.76 1.34-1.37 3.37-2.34 5.25-2.34 2.58 0 3.82 1.82 3.82 3.6l1.4-3.2h2.6m-5.75 4.73c0-2.05-.4-4.48-2.34-4.48-1.9 0-5.24 4.12-5.24 8.94 0 1.73.54 3.48 2.08 3.48 2.12 0 4.18-4.1 5-5.78.12-.58.5-1.34.5-2.15M522.55 752.7h-9.42v-1.63h9.42v1.64M536.38 770.58l-1.16 2.93h-8.38v-.25l3.82-4.05c2-2.12 2.78-3.74 2.78-5.57 0-1.95-1.15-3.02-2.97-3.02-1.55 0-2.3.7-3.15 2.8l-.45-.1c.45-2.52 1.82-4.27 4.45-4.27 2.42 0 3.97 1.65 3.97 3.77 0 1.7-.85 3.3-2.76 5.3L529 771.9h5.02c.9 0 1.35-.23 2.06-1.43"/><path d="M80 751h30.5v23.76H80z" fill="#fff" fill-opacity="0"/><path d="M96.64 756.44l-4.3 7.9v.56c0 1.45.36 3 1.02 3 .43 0 .9-.58 1.55-2.25l.5.22c-.67 2.24-1.6 3.8-3.07 3.8-1.15 0-1.5-1.32-1.57-3.17-1.52 1.85-3.6 3.25-5.88 3.25-2.94 0-4.06-2.07-4.06-4.6 0-2.46 1.06-5.04 2.76-6.77 1.33-1.36 3.36-2.33 5.24-2.33 2.57 0 3.82 1.82 3.82 3.6l1.4-3.2h2.6m-5.76 4.72c0-2.06-.4-4.48-2.33-4.48-1.9 0-5.25 4.1-5.25 8.92 0 1.73.55 3.5 2.1 3.5 2.1 0 4.18-4.1 5-5.8.1-.57.48-1.33.48-2.15M93.06 753.17h-9.42v-1.64h9.42v1.64M106.93 766.9c0 3.7-1.35 7.38-4.84 7.38-3.67 0-4.85-4-4.85-7.5 0-3.8 1.48-7.3 4.93-7.3 2.8 0 4.75 3.03 4.75 7.43m-2.05.1c0-4.44-.95-6.95-2.83-6.95-1.78 0-2.74 2.53-2.74 6.88s.95 6.8 2.8 6.8c1.8 0 2.78-2.48 2.78-6.72"/><path d="M747.33 704.47c0-3.02-2.44-5.47-5.46-5.47h-16.4c-3.02 0-5.47 2.45-5.47 5.47v111.06c0 3.02 2.45 5.47 5.47 5.47h16.4c3.02 0 5.46-2.45 5.46-5.47z" stroke="#000" stroke-width="3" fill="#ccc" fill-opacity=".6"/><path d="M742.78 717.8c0 5.04-4.08 9.1-9.1 9.1-5.05 0-9.12-4.06-9.12-9.1 0-5 4.07-9.1 9.1-9.1 5.04 0 9.12 4.1 9.12 9.1z" stroke="#000" stroke-width="3"/><path d="M742.78 745.13c0 5.02-4.08 9.1-9.1 9.1-5.05 0-9.12-4.08-9.12-9.1 0-5.03 4.07-9.1 9.1-9.1 5.04 0 9.12 4.07 9.12 9.1z" stroke="#000" stroke-width="3" fill="#ccc"/><path d="M742.78 772.44c0 5.03-4.08 9.1-9.1 9.1-5.05 0-9.12-4.07-9.12-9.1 0-5.02 4.07-9.1 9.1-9.1 5.04 0 9.12 4.08 9.12 9.1z" stroke="#000" stroke-width="3" fill="#666"/><path d="M742.78 799.76c0 5.03-4.08 9.1-9.1 9.1-5.05 0-9.12-4.07-9.12-9.1 0-5.03 4.07-9.1 9.1-9.1 5.04 0 9.12 4.07 9.12 9.1z" stroke="#000" stroke-width="3" fill="#fff"/><path d="M1138 1113.64h13.47v14.72H1138z" fill="#fff" fill-opacity="0"/><path d="M1148.6 1124.27l.5.3c-1.86 2.34-3.46 3.28-5.74 3.28-2.8 0-4.45-1.58-4.45-4.67 0-2.82 1.58-5.45 3.74-7.18 1.48-1.18 3.2-1.85 5.06-1.85 1.84 0 3.18 1.03 3.18 2.46 0 .82-.67 1.46-1.46 1.46-.84 0-1.18-.6-1.18-1.2 0-.56.46-.9.46-1.47 0-.37-.43-.6-1.12-.6-1.22 0-2.43.53-3.3 1.44-1.7 1.8-2.77 4.37-2.77 7.06 0 2.18.98 3.46 2.7 3.46 1.62 0 2.77-.76 4.4-2.5"/><path d="M32 980h227v39H32z" stroke="#000" stroke-opacity="0" stroke-width="3" fill="#fff" fill-opacity="0"/><use xlink:href="#d" transform="matrix(1,0,0,1,37,985) translate(59.89208984375 19.896484375)"/><path d="M782 881c0-11.05 8.95-20 20-20h458c11.05 0 20 8.95 20 20v118c0 11.05-8.95 20-20 20H802c-11.05 0-20-8.95-20-20z" stroke="#000" stroke-opacity="0" stroke-width=".5" fill="#d1bcd2" fill-opacity=".3"/><path d="M806.14 896c0-8.28 6.72-15 15-15h70c8.3 0 15 6.72 15 15v50c0 8.28-6.7 15-15 15h-70c-8.28 0-15-6.72-15-15z" stroke="#000" stroke-width="3" fill="#fff" fill-opacity=".48"/><use xlink:href="#a" transform="matrix(1,0,0,1,806.1409685527294,881) translate(17.994791666666664 47.994791666666664)"/><path d="M1038 896c0-8.28 6.72-15 15-15h70c8.28 0 15 6.72 15 15v50c0 8.28-6.72 15-15 15h-70c-8.28 0-15-6.72-15-15z" stroke="#000" stroke-width="3" fill="#fff" fill-opacity=".48"/><use xlink:href="#a" transform="matrix(1,0,0,1,1038,881) translate(17.994791666666664 47.994791666666664)"/><path d="M906.14 921H1038" stroke="#000" stroke-width="3" fill="none"/><path/><path d="M1038 921l-14.27 4.64v-9.28z"/><path d="M1038 919.42v3.16l-15.77 5.12v-13.4zm-12.77 4.15l7.92-2.57-7.92-2.57z"/><path d="M820 1250c0-5.52 4.48-10 10-10h122c5.52 0 10 4.48 10 10v20c0 5.52-4.48 10-10 10H830c-5.52 0-10-4.48-10-10z" stroke="#000" stroke-width="2" fill="#fff" fill-opacity="0"/><use xlink:href="#e" transform="matrix(1,0,0,1,825,1245) translate(14.658311631944443 22.32855902777778)"/><path d="M1102.58 1208.88c0-2.97-2.55-5.38-5.7-5.38h-17.16c-3.16 0-5.72 2.4-5.72 5.38v109.24c0 2.97 2.56 5.38 5.72 5.38h17.15c3.16 0 5.7-2.4 5.7-5.38z" stroke="#000" stroke-width="3" fill="#fff" fill-opacity=".6"/><path d="M1097.82 1222c0 4.95-4.26 8.96-9.53 8.96s-9.54-4-9.54-8.96c0-4.94 4.27-8.95 9.53-8.95s9.52 4 9.52 8.95z" stroke="#000" stroke-width="3"/><path d="M1097.82 1248.87c0 4.95-4.26 8.95-9.53 8.95s-9.54-4-9.54-8.95c0-4.94 4.27-8.95 9.53-8.95s9.52 4 9.52 8.95z" stroke="#000" stroke-width="3" fill="#ccc"/><path d="M1097.82 1275.74c0 4.94-4.26 8.95-9.53 8.95s-9.54-4.02-9.54-8.96c0-4.94 4.27-8.95 9.53-8.95s9.52 4 9.52 8.94z" stroke="#000" stroke-width="3" fill="#666"/><path d="M1097.82 1302.6c0 4.95-4.26 8.96-9.53 8.96s-9.54-4-9.54-8.95c0-4.94 4.27-8.96 9.53-8.96s9.52 4.02 9.52 8.97z" stroke="#000" stroke-width="3" fill="#fff"/><path d="M1087.6 1060l.4-99" stroke="#000" stroke-width="3" fill="none"/><path d="M1087.6 1060h-1.5zM1092.58 975.28l-9.27-.03L1088 961z"/><path d="M1094.64 976.8l-13.4-.06 5.18-15.74h3.16zm-9.26-3.04l5.14.02-2.54-7.93z"/><path d="M735 980h227v39H735z" stroke="#000" stroke-opacity="0" stroke-width="3" fill="#fff" fill-opacity="0"/><use xlink:href="#f" transform="matrix(1,0,0,1,740,985) translate(59.89208984375 19.896484375)"/><path d="M856.14 881l-.27-12.9-.8-12.75-1.32-12.54-1.82-12.32-2.3-12.08-2.77-11.82-3.22-11.53-3.65-11.23-4.06-10.9-4.44-10.55-4.8-10.2-5.13-9.82-5.46-9.45-5.74-9.06-6.02-8.67-6.28-8.27-6.52-7.88-6.73-7.48-6.94-7.1-7.13-6.7-7.32-6.3-7.48-5.95-7.65-5.57-7.8-5.2-7.98-4.8-8.13-4.47-8.27-4.1-8.43-3.76-8.6-3.4-8.74-3.05-8.92-2.7-9.1-2.33-9.28-1.98-9.5-1.6-9.7-1.23-9.94-.82-10.2-.43-5.18-.05" stroke="#000" stroke-width="3" fill="none"/><path d="M857.64 881h-1.66l1.66-.04zM632.62 625.07L618.5 620l14.4-4.2z"/><path d="M634.05 627.18l-15.74-5.65.2-1.53-.05-1.44-.02-.1 16.04-4.67zm-10.7-7.03l7.83 2.8.16-5.12z"/><path d="M640.08 758.4h15.7v9.6h-15.7z" fill="#fff" fill-opacity="0"/><path d="M654.68 760.3h-13.5v-1.5h13.5v1.5m0 4.58h-13.5v-1.5h13.5v1.5"/><path d="M371 430l-7.1 2.47-6.37 2.52-5.76 2.55-5.23 2.6-4.8 2.63-4.4 2.66-4.06 2.7-3.78 2.75-3.5 2.77-3.3 2.84-3.08 2.9-2.9 2.97-2.75 3.04-2.6 3.14-2.44 3.24-2.33 3.35-2.22 3.5-2.1 3.64-2 3.82-1.9 4.03-1.8 4.3-1.7 4.56-1.6 4.9-1.48 5.3-1.36 5.8-1.22 6.42-1.05 7.16-.85 8.13-.6 9.46-.22 11.33.3 14.37 1.34 20.62 10.3 105.25.3 14.26-.07 7" fill="none"/><path d="M371 430l-4.23 1.47m-5.6 2.08l-3.64 1.44-4.6 2.04m-5.37 2.6l-1.02.5-4.8 2.64-2 1.2m-5.03 3.22l-1.42.95-3.78 2.74-2 1.58m-4.58 3.84l-.22.2-3.08 2.9-2.9 2.95-.2.2m-3.92 4.5l-1.22 1.47-2.45 3.24-1.7 2.45m-3.22 5.03l-1.72 3-2 3.83-.5 1.04m-2.43 5.45l-.77 1.82-1.7 4.57-.65 1.98m-1.73 5.7l-.7 2.53-1.36 5.8-.07.38m-1.1 5.86l-.05.18-1.05 7.16-.16 1.53m-.6 5.94l-.08.67-.52 8.28m-.17 5.96l-.13 6.55.05 2.4m.13 5.96l.13 6 .2 2.94m.4 5.96l.56 8.93m.5 5.94l.86 8.9m.58 5.95l.88 8.9m.58 5.94l.87 8.9m.58 5.95l.88 8.9m.58 5.94l.87 8.9m.58 5.95l.9 8.9m.57 5.93l.87 8.9m.44 5.96l.2 8.94m.04 5.97l-.05 4.5" stroke="#000" stroke-width="3" fill="none"/><path d="M374.33 430.36l-2.8 1.05-.53-1.4 3.02-.5z"/><path d="M298.67 719l-4.72-14.25 9.27-.06z" stroke="#000" stroke-width="3"/><path d="M588 429.5l-6.9 3.86-6.18 3.8-5.6 3.78-5.07 3.75-4.64 3.73-4.25 3.73-3.93 3.75-3.64 3.8-3.4 3.8-3.15 3.88-2.95 3.96-2.77 4.05-2.6 4.16-2.44 4.32-2.3 4.48-2.16 4.7-2.03 4.94-1.9 5.25-1.78 5.62-1.65 6.06-1.5 6.63-1.34 7.35-1.15 8.3-.93 9.62-.63 11.57-.2 14.9.72 22.93 5.46 99.15-.23 19.03-.18 4.6" fill="none"/><path d="M588 429.5l-3.97 2.22m-5.24 3.06l-3.88 2.4-3.77 2.53m-4.93 3.54l-1.97 1.45-4.64 3.73-.5.45m-4.53 4.03l-3.15 3-3.3 3.43m-4.02 4.53l-2.87 3.52-2.72 3.65m-3.4 5.02l-2.2 3.5-2.43 4.32m-2.73 5.4l-1.74 3.8-1.88 4.55m-2.08 5.7l-1.75 5.55-.87 3.16m-1.46 5.88l-.82 3.66-.96 5.27m-.94 6l-.6 4.38-.46 4.65m-.53 6.04l-.5 9.07m-.13 6.06l-.1 9.1m.12 6.05l.28 9.1m.2 6.05l.08 2.9.34 6.2m.33 6.04l.5 9.08m.33 6.06l.5 9.1m.33 6.04l.5 9.08m.34 6.06l.5 9.08m.33 6.05l.5 9.1m.33 6.05l.5 9.08m.07 6.06l-.1 9.08m-.08 6.06l-.18 4.55" stroke="#000" stroke-width="3" fill="none"/><path d="M591.34 429.28l-2.6 1.52-.74-1.3 3.16-.5v-.02z"/><path d="M518.67 719l-4.34-14.37 9.27.2z" stroke="#000" stroke-width="3"/><path d="M20 340h330v42.5H20z" stroke="#000" stroke-opacity="0" stroke-width="3" fill="#fff" fill-opacity="0"/><use xlink:href="#g" transform="matrix(1,0,0,1,25,345) translate(46.58154296875 21.896484375)"/><use xlink:href="#h" transform="matrix(1,0,0,1,25,345) translate(165.40087890625 21.896484375)"/><path d="M148 429.5l-4.97 2.4-4.55 2.44-4.2 2.47-3.88 2.53-3.62 2.57-3.37 2.6-3.16 2.7-2.98 2.73-2.82 2.8-2.67 2.9-2.54 3-2.42 3.13-2.3 3.24-2.2 3.4-2.12 3.57-2.02 3.77-1.94 4-1.86 4.3-1.77 4.6-1.7 5.02-1.6 5.5-1.5 6.07-1.36 6.82-1.24 7.8-1.05 9.12-.8 11.02-.45 14.1.24 20.4 5.76 124.93-.58 18.6-.32 5.3" fill="none"/><path d="M148 429.5l-4.1 1.98m-5.4 2.84l-.02.02-4.2 2.47-3.53 2.3m-4.94 3.55l-2.4 1.86-3.16 2.7-1.43 1.3m-4.35 4.23l-2.68 2.9-2.54 3-.76 1m-3.6 4.88l-.37.5-2.2 3.4-2.12 3.57-.14.27m-2.8 5.4l-1.02 2.1-1.86 4.3-.75 1.97m-2.05 5.73l-.65 1.93-1.6 5.5-.32 1.32m-1.4 5.9l-1.14 5.67-.53 3.3m-.88 6.02l-.87 7.6-.1 1.47m-.45 6.07l-.26 3.5-.17 5.62m-.2 6.07l-.07 2.4.08 6.7m.07 6.1l.1 7.6.06 1.5m.3 6.1l.4 9.1m.3 6.08l.4 9.1m.3 6.08l.4 9.12m.3 6.07l.4 9.1m.3 6.1l.4 9.1m.3 6.07l.4 9.12m.3 6.07l.4 9.12m.3 6.08l.4 9.1m-.03 6.1l-.3 9.1m-.2 6.08l-.27 4.55" stroke="#000" stroke-width="3" fill="none"/><path d="M151.35 429.42l-2.65 1.4-.7-1.32 3.12-.4.05-.03z"/><path d="M88 723.33l-4.04-14.44 9.26.37z" stroke="#000" stroke-width="3"/><path d="M1088 881v-47" stroke="#000" stroke-width="3" fill="none"/><path d="M1089.5 881h-3 3zM1092.64 848.27h-9.28L1088 834z"/><path d="M1094.7 849.77h-13.4l5.12-15.77h3.16zm-9.27-3h5.14l-2.57-7.92z"/><path d="M1060 811c0-11.05 8.95-20 20-20h16c11.05 0 20 8.95 20 20v3c0 11.05-8.95 20-20 20h-16c-11.05 0-20-8.95-20-20z" stroke="#000" stroke-width="3" fill="#d1bcd2"/><use xlink:href="#i" transform="matrix(1,0,0,1,1060,791) translate(22.59912109375 26.896484375)"/><path d="M1088 791l1-40" fill="none"/><path d="M1088 791l.1-4m.13-5.33l.2-8m.14-5.34l.2-8m.13-5.33l.1-4" stroke="#000" stroke-width="3" fill="none"/><path d="M1088.02 791h-1.52v-.04z"/><path d="M1089 751l4.28 14.38-9.27-.23z" stroke="#000" stroke-width="3"/><path d="M1101 1074.27c0-3.02-2.45-5.47-5.47-5.47h-16.4c-3.02 0-5.46 2.45-5.46 5.47v111.06c0 3.02 2.44 5.47 5.46 5.47h16.4c3.02 0 5.47-2.45 5.47-5.47z" stroke="#000" stroke-width="3" fill="#ccc" fill-opacity=".6"/><path d="M1096.44 1087.6c0 5.04-4.07 9.1-9.1 9.1-5.04 0-9.12-4.06-9.12-9.1 0-5 4.08-9.1 9.1-9.1 5.05 0 9.12 4.1 9.12 9.1z" stroke="#000" stroke-width="3"/><path d="M1096.44 1114.93c0 5.02-4.07 9.1-9.1 9.1-5.04 0-9.12-4.08-9.12-9.1 0-5.03 4.08-9.1 9.1-9.1 5.05 0 9.12 4.07 9.12 9.1z" stroke="#000" stroke-width="3" fill="#ccc"/><path d="M1096.44 1142.24c0 5.03-4.07 9.1-9.1 9.1-5.04 0-9.12-4.07-9.12-9.1 0-5.02 4.08-9.1 9.1-9.1 5.05 0 9.12 4.08 9.12 9.1z" stroke="#000" stroke-width="3" fill="#666"/><path d="M1096.44 1169.56c0 5.03-4.07 9.1-9.1 9.1-5.04 0-9.12-4.07-9.12-9.1 0-5.03 4.08-9.1 9.1-9.1 5.05 0 9.12 4.07 9.12 9.1z" stroke="#000" stroke-width="3" fill="#fff"/><path d="M733.67 821l.72 35.67 1.88 30.3 2.7 25.75 3.23 21.96 3.6 18.85 3.8 16.3 3.95 14.16 4.03 12.4 4.07 10.94 4.07 9.7 4.07 8.66 4.04 7.76 4.04 7 4 6.32 4 5.75 4 5.25 3.96 4.8 3.97 4.4 3.98 4.07 4 3.74.22.2 4.1 3.53 4.38 3.45 4.66 3.36 4.98 3.3 5.35 3.22 5.8 3.16 6.27 3.1 6.88 3.03 7.56 2.97 8.4 2.9 9.44 2.82 10.7 2.72 12.38 2.6 14.6 2.4 17.8 2.2 23.04 1.86 34.5 1.3 73.56.08" fill="none"/><path d="M733.67 821l.1 4.47m.1 5.95l.2 8.92m.1 5.95l.2 8.92m.3 5.94l.56 8.9m.37 5.95l.56 8.92m.53 5.93l.92 8.87m.62 5.92l.74 7.08.26 1.8m.87 5.88l1.3 8.83m.9 5.9l1.66 8.76m1.1 5.84l.73 3.8 1.15 4.92m1.35 5.8l1.3 5.56.87 3.1m1.6 5.73l1.48 5.34 1.05 3.2m1.84 5.67l1.14 3.53 1.82 4.9m2.07 5.57l.18.47 3.26 7.76m2.46 5.43l2.43 5.17 1.48 2.85m2.77 5.26l3.83 6.65.68 1.07m3.18 5.02l.15.24 4 5.75.98 1.3m3.63 4.73l3.34 4.02 2.48 2.75m4.1 4.32l1.36 1.4 4 3.74.22.2.9.78m4.57 3.82l3 2.38 4.13 2.98m4.95 3.3l.57.37 5.35 3.23 1.76.95m5.25 2.82l5.06 2.5 3 1.32m5.48 2.34l5.96 2.34 2.38.82m5.63 1.95l.4.12 8.14 2.44m5.75 1.52l6.23 1.58 2.44.5m5.82 1.23l4.1.85 4.67.77m5.87.98l4.06.67 4.77.6m5.9.72l7.14.86 1.75.14m5.93.48l8.9.72m5.93.47l.54.05 8.4.3m5.94.24l8.92.33m5.95.2l5.3.2 3.62.02m5.95 0h8.93m5.95.02h8.93m5.95.02h8.93m5.96.02h8.92m5.96 0l4.46.02" stroke="#000" stroke-width="3" fill="none"/><path d="M732.17 821.03V821h1.63zM1060.4 1123l-14.27 4.62v-9.27z"/><path d="M1060.4 1121.42v3.16l-15.77 5.1v-13.4zm-12.77 4.14l7.92-2.57-7.9-2.6z"/><path d="M962 1260h110.5" stroke="#000" stroke-width="3" fill="none"/><path d="M962 1261.5v-3zM1072.5 1260l-14.27 4.64v-9.28z"/><path d="M1074 1258.9v2.2l-17.27 5.6v-13.4zm-14.27 3.67l7.92-2.57-7.92-2.57z"/><defs><path d="M237 0v-1349h191v1193h672V0H237" id="j"/><path d="M614-1226c-167 1-283 53-283 213 0 183 186 193 334 234 230 63 463 120 463 409 0 286-219 387-518 390C309 23 131-98 79-338l185-37c34 165 149 248 351 246 184-2 324-58 324-238 0-203-207-221-372-266-210-57-422-111-422-377 0-267 201-356 470-360 279-5 430 101 480 324l-188 33c-28-141-121-215-293-213" id="k"/><path d="M709-1193V0H519v-1193H76v-156h1076v156H709" id="l"/><path d="M285-1169c8 382 2 780 4 1169H129v-1349h237c86 239 188 461 253 720 69-258 169-481 255-720h225V0H937c2-390-5-788 6-1169-75 255-170 488-259 729H547c-90-240-185-475-262-729" id="m"/><g id="a"><use transform="matrix(0.013020833333333334,0,0,0.013020833333333334,0,0)" xlink:href="#j"/><use transform="matrix(0.013020833333333334,0,0,0.013020833333333334,16.002604166666668,0)" xlink:href="#k"/><use transform="matrix(0.013020833333333334,0,0,0.013020833333333334,32.005208333333336,0)" xlink:href="#l"/><use transform="matrix(0.013020833333333334,0,0,0.013020833333333334,48.0078125,0)" xlink:href="#m"/></g><path d="M839-1335c-182-6-269 67-259 253h491v142H580V0H400v-940H138v-142h262c-15-293 132-408 418-402 94 2 200 7 281 21v145c-75-10-177-14-260-17" id="n"/><use transform="matrix(0.0087890625,0,0,0.0087890625,0,0)" xlink:href="#n" id="b"/><path d="M873-819c-18-114-119-146-250-146-163 0-245 50-245 151 0 151 170 148 294 185 182 54 388 94 388 320 0 240-189 325-439 329-245 4-410-69-454-268l159-31c24 133 136 168 295 165 144-2 270-31 270-171 0-164-195-160-331-202-167-52-350-87-350-299 0-218 173-315 413-313 220 2 373 77 412 260" id="o"/><path d="M615-1102c343 0 484 203 482 560-1 347-147 562-488 562-336 0-475-219-479-562-4-349 156-560 485-560zm-8 989c240 0 301-180 301-429 0-245-55-427-290-427-236 0-299 181-299 427 0 243 61 429 288 429" id="p"/><path d="M682 16c-209 0-323-80-324-285v-671H190v-142h170l58-282h120v282h432v142H538v652c2 114 60 155 182 155 106 0 209-16 297-34v137C921-4 806 16 682 16" id="q"/><path d="M904-1102c199 0 220 177 220 381V0H956v-686c-3-114 0-215-60-264-70-33-125-4-158 71-26 56-39 140-39 252V0H531v-686c-3-114-1-215-61-264-78-41-136 24-157 84-24 69-39 159-39 259V0H105c-3-360 6-732-6-1082h149c6 50 3 123 8 175 36-100 83-195 216-195 135 0 166 79 196 196 42-105 93-196 236-196" id="r"/><path d="M1000-272c3 95 12 159 101 161 21 0 41-3 59-7V-6c-44 10-86 16-139 16-141 2-191-84-197-217h-6C748-76 648 20 446 20c-207 0-318-120-318-322 0-266 194-348 454-354l236-4c12-191-40-305-222-305-140 0-220 47-232 172l-188-17c33-204 181-292 423-292 255 0 401 118 401 364v466zm-683-27c0 109 63 184 175 182 166-3 259-96 306-217 24-65 20-120 20-200-232 7-501-28-501 235" id="s"/><path d="M932 0L611-444 288 0H94l415-556-397-526h199l300 421 298-421h201L713-558 1133 0H932" id="t"/><g id="c"><use transform="matrix(0.0087890625,0,0,0.0087890625,0,0)" xlink:href="#o"/><use transform="matrix(0.0087890625,0,0,0.0087890625,10.8017578125,0)" xlink:href="#p"/><use transform="matrix(0.0087890625,0,0,0.0087890625,21.603515625,0)" xlink:href="#n"/><use transform="matrix(0.0087890625,0,0,0.0087890625,32.4052734375,0)" xlink:href="#q"/><use transform="matrix(0.0087890625,0,0,0.0087890625,43.20703125,0)" xlink:href="#r"/><use transform="matrix(0.0087890625,0,0,0.0087890625,54.0087890625,0)" xlink:href="#s"/><use transform="matrix(0.0087890625,0,0,0.0087890625,64.810546875,0)" xlink:href="#t"/></g><path d="M621-530c0 421 127 700 301 955H641C466 173 344-110 344-531s122-702 297-953h281c-174 254-301 534-301 954" id="u"/><path d="M1113-274C1038-96 884 20 626 20c-352 0-526-209-526-566 0-358 185-556 530-556 358 0 496 251 499 615H395c5 180 68 319 245 319 102 0 186-45 208-129zM857-663c-6-177-128-307-315-247-94 30-141 121-145 247h460" id="v"/><path d="M768-1103c247 0 336 167 336 416V0H824v-619c-3-164-24-273-171-273-164 0-229 142-229 312V0H143c-4-359 9-736-8-1082h268c7 63 12 146 13 215h4c67-145 160-236 348-236" id="w"/><path d="M1109-360C1066-122 902 20 624 20c-347 0-514-209-514-555 0-353 168-567 518-567 270 0 425 136 473 361l-283 14c-16-106-75-183-196-182-75 0-130 31-165 93s-52 152-52 270c0 249 74 374 221 374 120 0 188-82 201-201" id="x"/><path d="M616-1102c361 0 521 202 521 560 0 354-171 562-527 562C259 20 92-192 92-542c0-351 169-560 524-560zm-9 930c200-2 236-165 236-370 0-199-27-367-223-367-195 0-233 146-233 367 0 129 18 223 55 282s92 88 165 88" id="y"/><path d="M802-909c-3-189-2-383-2-575h281v1248c-1 83 4 168 8 236H817c-9-50-14-117-15-176h-4C735-49 651 20 482 20 191 20 97-238 97-539c0-243 66-432 221-519 50-28 108-42 175-42 162 2 253 78 309 191zm-70 658c91-113 93-462 2-584-46-61-145-100-224-53-96 56-119 190-120 349 0 123 17 214 52 275 46 82 130 115 222 74 25-12 46-33 68-61" id="z"/><path d="M875-1102c70 0 148 7 206 17v237c-110-17-267-37-359 15-123 69-192 207-192 395V0H250c-10-367 32-789-52-1082h271c19 69 36 149 46 228h4c52-151 151-250 356-248" id="A"/><path d="M885-531c0 421-122 704-297 956H307c174-255 301-534 301-955 0-420-127-700-301-954h281c175 251 297 532 297 953" id="B"/><g id="d"><use transform="matrix(0.0087890625,0,0,0.0087890625,0,0)" xlink:href="#u"/><use transform="matrix(0.0087890625,0,0,0.0087890625,10.8017578125,0)" xlink:href="#v"/><use transform="matrix(0.0087890625,0,0,0.0087890625,21.603515625,0)" xlink:href="#w"/><use transform="matrix(0.0087890625,0,0,0.0087890625,32.4052734375,0)" xlink:href="#x"/><use transform="matrix(0.0087890625,0,0,0.0087890625,43.20703125,0)" xlink:href="#y"/><use transform="matrix(0.0087890625,0,0,0.0087890625,54.0087890625,0)" xlink:href="#z"/><use transform="matrix(0.0087890625,0,0,0.0087890625,64.810546875,0)" xlink:href="#v"/><use transform="matrix(0.0087890625,0,0,0.0087890625,75.6123046875,0)" xlink:href="#A"/><use transform="matrix(0.0087890625,0,0,0.0087890625,86.4140625,0)" xlink:href="#B"/></g><path d="M934-1102c199 0 220 177 220 381V0H926c-2-260 10-533-4-785-4-72-14-138-83-138-34 0-61 27-81 81s-29 134-29 241V0H501c-2-260 9-533-5-785-4-72-13-138-82-138-46 0-65 47-80 93-21 67-30 155-30 248V0H75c-3-360 6-732-6-1082h209c6 50 3 123 8 175 36-100 83-195 216-195 135 0 166 79 196 196 42-105 93-196 236-196" id="C"/><path d="M711 13c-250 0-386-99-385-349l2-556H161v-190h181l88-282h176v282h385v190H606v530c-10 130 45 186 174 184 91-2 176-11 255-27v186C933-1 833 13 711 13" id="D"/><g id="e"><use transform="matrix(0.01193576388888889,0,0,0.01193576388888889,0,0)" xlink:href="#x"/><use transform="matrix(0.01193576388888889,0,0,0.01193576388888889,14.669053819444446,0)" xlink:href="#y"/><use transform="matrix(0.01193576388888889,0,0,0.01193576388888889,29.338107638888893,0)" xlink:href="#C"/><use transform="matrix(0.01193576388888889,0,0,0.01193576388888889,44.00716145833334,0)" xlink:href="#C"/><use transform="matrix(0.01193576388888889,0,0,0.01193576388888889,58.676215277777786,0)" xlink:href="#v"/><use transform="matrix(0.01193576388888889,0,0,0.01193576388888889,73.34526909722223,0)" xlink:href="#w"/><use transform="matrix(0.01193576388888889,0,0,0.01193576388888889,88.01432291666667,0)" xlink:href="#D"/></g><g id="f"><use transform="matrix(0.0087890625,0,0,0.0087890625,0,0)" xlink:href="#u"/><use transform="matrix(0.0087890625,0,0,0.0087890625,10.8017578125,0)" xlink:href="#z"/><use transform="matrix(0.0087890625,0,0,0.0087890625,21.603515625,0)" xlink:href="#v"/><use transform="matrix(0.0087890625,0,0,0.0087890625,32.4052734375,0)" xlink:href="#x"/><use transform="matrix(0.0087890625,0,0,0.0087890625,43.20703125,0)" xlink:href="#y"/><use transform="matrix(0.0087890625,0,0,0.0087890625,54.0087890625,0)" xlink:href="#z"/><use transform="matrix(0.0087890625,0,0,0.0087890625,64.810546875,0)" xlink:href="#v"/><use transform="matrix(0.0087890625,0,0,0.0087890625,75.6123046875,0)" xlink:href="#A"/><use transform="matrix(0.0087890625,0,0,0.0087890625,86.4140625,0)" xlink:href="#B"/></g><path d="M775-193C708-75 621 20 439 20 226 20 106-93 106-306c0-251 170-341 417-346l223-4c4-143-12-264-148-264-103 0-141 58-150 153l-293-14c37-219 194-321 455-321 263 0 418 130 417 390v392c1 84 5 161 89 160 21 0 42-2 62-6v152c-57 15-108 27-180 26-145 0-202-73-217-205h-6zm-256 17c168 0 234-139 227-325-166 4-347-25-347 173 0 94 33 152 120 152" id="E"/><path d="M794-190h353V0H118v-190h395v-702H223v-190h571v892zM513-1277v-207h281v207H513" id="F"/><g id="g"><use transform="matrix(0.0087890625,0,0,0.0087890625,0,0)" xlink:href="#u"/><use transform="matrix(0.0087890625,0,0,0.0087890625,10.8017578125,0)" xlink:href="#E"/><use transform="matrix(0.0087890625,0,0,0.0087890625,21.603515625,0)" xlink:href="#D"/><use transform="matrix(0.0087890625,0,0,0.0087890625,32.4052734375,0)" xlink:href="#D"/><use transform="matrix(0.0087890625,0,0,0.0087890625,43.20703125,0)" xlink:href="#v"/><use transform="matrix(0.0087890625,0,0,0.0087890625,54.0087890625,0)" xlink:href="#w"/><use transform="matrix(0.0087890625,0,0,0.0087890625,64.810546875,0)" xlink:href="#D"/><use transform="matrix(0.0087890625,0,0,0.0087890625,75.6123046875,0)" xlink:href="#F"/><use transform="matrix(0.0087890625,0,0,0.0087890625,86.4140625,0)" xlink:href="#y"/><use transform="matrix(0.0087890625,0,0,0.0087890625,97.2158203125,0)" xlink:href="#w"/></g><path d="M424-1484c-2 206 5 424-8 618h4c67-145 160-234 348-236 251-3 335 167 336 416V0H824v-621c0-150-23-276-173-270-163 7-227 142-227 312V0H143v-1484h281" id="G"/><path d="M622-916c-112 2-200 14-200 111 0 90 89 101 168 121 234 58 514 77 514 368C1104-4 751 54 434 5 267-21 161-112 121-270l247-37c24 111 113 145 252 141 114-3 226-12 226-124 0-101-103-113-192-134-225-54-490-76-490-351 0-247 201-328 458-328 245 0 413 88 457 292l-249 26c-16-98-92-133-208-131" id="H"/><g id="h"><use transform="matrix(0.0087890625,0,0,0.0087890625,0,0)" xlink:href="#C"/><use transform="matrix(0.0087890625,0,0,0.0087890625,10.8017578125,0)" xlink:href="#v"/><use transform="matrix(0.0087890625,0,0,0.0087890625,21.603515625,0)" xlink:href="#x"/><use transform="matrix(0.0087890625,0,0,0.0087890625,32.4052734375,0)" xlink:href="#G"/><use transform="matrix(0.0087890625,0,0,0.0087890625,43.20703125,0)" xlink:href="#E"/><use transform="matrix(0.0087890625,0,0,0.0087890625,54.0087890625,0)" xlink:href="#w"/><use transform="matrix(0.0087890625,0,0,0.0087890625,64.810546875,0)" xlink:href="#F"/><use transform="matrix(0.0087890625,0,0,0.0087890625,75.6123046875,0)" xlink:href="#H"/><use transform="matrix(0.0087890625,0,0,0.0087890625,86.4140625,0)" xlink:href="#C"/><use transform="matrix(0.0087890625,0,0,0.0087890625,97.2158203125,0)" xlink:href="#B"/></g><path d="M1048-32c-2 300-135 456-433 456-222-1-358-88-400-267l184-25c22 99 100 157 222 156 184-2 248-125 248-315 0-64 3-133-2-194C807-100 706-13 524-12c-306 0-381-228-381-537 0-318 85-550 400-550 164 0 271 83 325 202h3c1-60 3-134 12-185h171c-13 339-4 702-6 1050zM585-145c210-8 284-178 284-406 0-192-52-331-177-392-33-16-69-22-104-22-223 2-259 184-259 414 0 229 31 415 256 406" id="I"/><use transform="matrix(0.0087890625,0,0,0.0087890625,0,0)" xlink:href="#I" id="i"/></defs></g></svg>